SplineFontDB: 3.2
FontName: DrukaatieBurti-Thin
FullName: Drukaatie burti smalki
FamilyName: Drukaatie burti
Weight: Thin
Copyright: License: SIL OFL.\nAuthor: Karlis Kalviskis\nLast update: 2023.02.15.\nContact: karlo@lu.lv
UComments: "Creted from DrukaatieBurti Medium. Embolden by -48 em units."
Version: 0.14.4
ItalicAngle: 0
UnderlinePosition: -173
UnderlineWidth: 100
Ascent: 1638
Descent: 410
InvalidEm: 0
LayerCount: 2
Layer: 0 1 "Back" 1
Layer: 1 1 "Fore" 0
XUID: [1021 827 580535596 12029684]
FSType: 0
OS2Version: 3
OS2_WeightWidthSlopeOnly: 1
OS2_UseTypoMetrics: 1
CreationTime: 1425569563
ModificationTime: 1677168999
PfmFamily: 65
TTFWeight: 100
TTFWidth: 5
LineGap: 87
VLineGap: 0
Panose: 3 8 3 2 3 3 2 3 2 4
OS2TypoAscent: 1420
OS2TypoAOffset: 0
OS2TypoDescent: -442
OS2TypoDOffset: 0
OS2TypoLinegap: 307
OS2WinAscent: 1825
OS2WinAOffset: 0
OS2WinDescent: 443
OS2WinDOffset: 0
HheadAscent: 1825
HheadAOffset: 0
HheadDescent: -443
HheadDOffset: 0
OS2SubXSize: 1434
OS2SubYSize: 1332
OS2SubXOff: 0
OS2SubYOff: 292
OS2SupXSize: 1434
OS2SupYSize: 1332
OS2SupXOff: 0
OS2SupYOff: 928
OS2StrikeYSize: 100
OS2StrikeYPos: 420
OS2CapHeight: 1344
OS2XHeight: 855
OS2FamilyClass: 2568
OS2Vendor: '    '
Lookup: 4 0 0 "'dlig' Discretionary Ligatures in Latin lookup 0" { "My Spelling"  } ['dlig' ('DFLT' <'dflt' > 'latn' <'LVI ' > ) ]
Lookup: 258 0 0 "'kern' Horizontal Kerning in Latin lookup 0" { "'TVWYFf' Horizontal Kerning in Latin lookup 0-1" [307,60,2] "'beforeTVWY' Horizontal Kerning in Latin lookup 0-2" [307,30,0] } ['kern' ('DFLT' <'dflt' > 'latn' <'dflt' > ) ]
MarkAttachClasses: 1
DEI: 91125
KernClass2: 3 3 "'beforeTVWY' Horizontal Kerning in Latin lookup 0-2"

StartChar: .notdef
Encoding: 65536 -1 0
Width: 1340
VWidth: 1894
Flags: W
HStem: -390 30<127 1189> 1100 28<126 1188>
VStem: 101 26<-360 1100> 194 37<467 949> 651 37<-99 394> 1189 28<-360 1100>
LayerCount: 2
Fore
SplineSet
237 949 m 1,0,-1
 231 467 l 1,1,-1
 654 949 l 1,2,-1
 695 949 l 1,3,-1
 463 672 l 1,4,-1
 693 407 l 1,5,-1
 688 -99 l 1,6,-1
 1081 407 l 1,7,-1
 1128 410 l 1,8,-1
 902 104 l 1,9,-1
 1134 -169 l 1,10,-1
 1081 -170 l 1,11,-1
 874 69 l 1,12,-1
 695 -169 l 1,13,-1
 651 -168 l 1,14,-1
 652 394 l 1,15,-1
 433 633 l 1,16,-1
 230 407 l 1,17,-1
 194 407 l 1,18,-1
 194 949 l 1,19,-1
 237 949 l 1,0,-1
101 -390 m 1,20,-1
 100 1128 l 1,21,-1
 1216 1128 l 1,22,-1
 1217 -390 l 1,23,-1
 101 -390 l 1,20,-1
127 -360 m 1,24,-1
 1189 -360 l 1,25,-1
 1188 1100 l 1,26,-1
 126 1100 l 1,27,-1
 127 -360 l 1,24,-1
EndSplineSet
Validated: 1
EndChar

StartChar: exclam
Encoding: 33 33 2
Width: 544
Flags: W
HStem: -25 53<221.222 288.406> 1288 82<267.791 321.748>
VStem: 140 74<36.4047 123.299> 152 48<743.772 1099.87> 200 120<396.392 548.871> 308 46<44.5956 127.715> 364 36<868.844 1208.53>
LayerCount: 2
Fore
SplineSet
324 1368 m 0,0,1
 364 1344 364 1344 384 1228 c 1,2,3
 400 1122 400 1122 400 1062 c 0,4,5
 400 1056 400 1056 400 1050 c 0,6,7
 400 986 400 986 388 904 c 2,8,-1
 320 454 l 1,9,10
 308 390 308 390 268 390 c 0,11,12
 256 390 256 390 236 396 c 1,13,14
 220 408 220 408 200 490 c 0,15,16
 180 570 180 570 172 684 c 0,17,18
 164 796 164 796 156 858 c 1,19,20
 152 920 152 920 152 958 c 0,21,22
 152 994 152 994 180 1120 c 0,23,24
 208 1244 208 1244 244 1308 c 1,25,26
 276 1370 276 1370 296 1370 c 0,27,28
 320 1370 320 1370 324 1368 c 0,0,1
224 1134 m 25,29,30
 200 986 200 986 200 958 c 0,31,32
 200 918 200 918 216 798 c 0,33,34
 232 678 232 678 244 662 c 0,35,36
 256 646 256 646 272 646 c 0,37,38
 292 646 292 646 304 664 c 0,39,40
 316 680 316 680 316 712 c 1,41,42
 320 744 320 744 340 822 c 1,43,44
 356 902 356 902 356 956 c 1,45,-1
 364 1090 l 2,46,47
 364 1096 364 1096 364 1102 c 2,48,-1
 364 1128 l 1,49,50
 360 1140 360 1140 356 1162 c 0,51,52
 352 1184 352 1184 348 1202 c 0,53,54
 344 1220 344 1220 336 1244 c 0,55,56
 328 1268 328 1268 320 1278 c 1,57,58
 308 1288 308 1288 296 1288 c 0,59,60
 280 1288 280 1288 280 1286 c 0,61,62
 272 1282 272 1282 268 1278 c 1,63,64
 228 1188 228 1188 224 1134 c 25,29,30
EndSplineSet
Refer: 13 46 N 1 0 0 1 0 -4 2
Validated: 1
EndChar

StartChar: numbersign
Encoding: 35 35 3
Width: 1118
VWidth: 1894
Flags: W
HStem: 268 76<110.861 264 380.951 631.274> 286 38<491.388 680.913> 690 86<229.842 282> 702 54<373.28 653.207> 746 50<64.2188 148.932> 760 68<858 1052.34>
VStem: 252 76<14.25 224.133> 284 52<354 675.547> 309 53<1041.31 1173.87> 702 56<80.0957 178.415 482.489 675.122 833.162 1075.65 1084.34 1225.21> 718 78<80.6309 265.374> 724 54<400.761 670.627>
LayerCount: 2
Fore
SplineSet
1056 774 m 0,0,1
 1056 760 1056 760 1010 760 c 1,2,-1
 858 750 l 1,3,4
 786 740 786 740 772 722 c 128,-1,5
 758 704 758 704 758 676 c 128,-1,6
 758 648 758 648 768 606 c 128,-1,7
 778 564 778 564 778 494 c 128,-1,8
 778 424 778 424 795 400 c 128,-1,9
 812 376 812 376 867 368 c 128,-1,10
 922 360 922 360 933 351 c 128,-1,11
 944 342 944 342 944 320 c 128,-1,12
 944 298 944 298 940 292 c 1,13,14
 940 292 940 292 818 284 c 1,15,16
 796 270 796 270 796 244 c 0,17,18
 796 242 796 242 797 241 c 128,-1,19
 798 240 798 240 798 238 c 0,20,21
 796 208 796 208 768 116 c 0,22,23
 740 20 740 20 730 12 c 1,24,25
 722 12 722 12 708 28 c 128,-1,26
 694 44 694 44 694 79 c 128,-1,27
 694 114 694 114 706 157 c 128,-1,28
 718 200 718 200 718 223 c 128,-1,29
 718 246 718 246 704 266 c 0,30,31
 688 286 688 286 633 286 c 128,-1,32
 578 286 578 286 494 268 c 128,-1,33
 410 250 410 250 380 236 c 1,34,-1
 378 234 l 1,35,-1
 376 234 l 1,36,37
 344 212 344 212 328 112 c 128,-1,38
 312 12 312 12 282 12 c 128,-1,39
 252 12 252 12 252 76 c 2,40,-1
 252 136 l 1,41,-1
 264 258 l 1,42,-1
 182 268 l 1,43,44
 110 272 110 272 110 301 c 128,-1,45
 110 330 110 330 196 344 c 1,46,-1
 284 354 l 1,47,-1
 284 690 l 1,48,-1
 216 708 l 1,49,-1
 174 716 l 2,50,51
 88 734 88 734 76 746 c 0,52,53
 64 756 64 756 64 768 c 0,54,55
 64 796 64 796 120 796 c 1,56,-1
 282 776 l 1,57,-1
 286 934 l 2,58,59
 288 1056 288 1056 309 1117 c 128,-1,60
 330 1178 330 1178 342 1178 c 128,-1,61
 354 1178 354 1178 357 1174 c 128,-1,62
 360 1170 360 1170 362 1156 c 1,63,-1
 344 1012 l 1,64,-1
 354 888 l 1,65,66
 364 792 364 792 373 781 c 128,-1,67
 382 770 382 770 387 767 c 128,-1,68
 392 764 392 764 401 762 c 128,-1,69
 410 760 410 760 417 758 c 128,-1,70
 424 756 424 756 448 756 c 2,71,-1
 512 756 l 2,72,73
 628 756 628 756 682 802 c 1,74,-1
 684 802 l 1,75,76
 702 820 702 820 702 840 c 2,77,-1
 702 948 l 2,78,79
 702 1252 702 1252 758 1252 c 0,80,81
 766 1252 766 1252 771 1236 c 128,-1,82
 776 1220 776 1220 776 1080 c 128,-1,83
 776 940 776 940 767 909 c 128,-1,84
 758 878 758 878 758 866 c 0,85,86
 758 838 758 838 780 833 c 128,-1,87
 802 828 802 828 895 828 c 128,-1,88
 988 828 988 828 1022 819 c 128,-1,89
 1056 810 1056 810 1056 774 c 0,0,1
724 480 m 128,-1,91
 724 560 724 560 716 595 c 128,-1,92
 708 630 708 630 703 653 c 128,-1,93
 698 676 698 676 683 692 c 128,-1,94
 668 708 668 708 622 708 c 128,-1,95
 576 708 576 708 543 706 c 128,-1,96
 510 704 510 704 461 702 c 128,-1,97
 412 700 412 700 392 694 c 0,98,99
 362 688 362 688 349 652 c 128,-1,100
 336 616 336 616 336 558 c 2,101,-1
 336 436 l 1,102,103
 338 362 338 362 349 350 c 128,-1,104
 360 338 360 338 364 336 c 128,-1,105
 368 334 368 334 375 332 c 128,-1,106
 382 330 382 330 388 328 c 128,-1,107
 394 326 394 326 403 325 c 128,-1,108
 412 324 412 324 418 324 c 2,109,-1
 514 324 l 2,110,111
 648 324 648 324 682 340 c 128,-1,112
 716 356 716 356 720 378 c 128,-1,90
 724 400 724 400 724 480 c 128,-1,91
EndSplineSet
Validated: 1
EndChar

StartChar: dollar
Encoding: 36 36 4
Width: 1036
VWidth: 1894
Flags: W
HStem: -18 34<499.798 555.747> 682 122<440.628 548>
VStem: 184 60<878.103 1119.89> 344 48<851.374 1139.22> 344 12<1460 1481.36> 356 18<1424.09 1470.37> 364 56<396.544 662.402> 440 52<-221.924 -81.251> 504 100<1316 1461.55> 531 77<1318.45 1461.55> 552 58<324.116 681.538 804.469 1160> 570 34<125.547 463.825> 920 56<279.562 552.47>
LayerCount: 2
Fore
SplineSet
492 682 m 2,0,1
 460 682 460 682 440 663 c 128,-1,2
 420 644 420 644 420 608 c 1,3,-1
 452 136 l 1,4,5
 458 94 458 94 483 55 c 128,-1,6
 508 16 508 16 528 16 c 128,-1,7
 548 16 548 16 556 23 c 128,-1,8
 564 30 564 30 566 45 c 128,-1,9
 568 60 568 60 570 70 c 0,10,11
 570 74 570 74 571 83 c 128,-1,12
 572 92 572 92 570 102 c 0,13,14
 568 124 568 124 568 128 c 2,15,-1
 548 682 l 1,16,-1
 492 682 l 2,0,1
838 626 m 128,-1,18
 792 674 792 674 764 691 c 128,-1,19
 736 708 736 708 712 708 c 128,-1,20
 688 708 688 708 660 706 c 128,-1,21
 632 704 632 704 618 683 c 128,-1,22
 604 662 604 662 604 488 c 128,-1,23
 604 314 604 314 612 199 c 128,-1,24
 620 84 620 84 648 60 c 1,25,-1
 680 50 l 1,26,27
 696 50 696 50 740 74 c 0,28,29
 830 120 830 120 875 232 c 128,-1,30
 920 344 920 344 920 426 c 128,-1,31
 920 508 920 508 902 543 c 128,-1,17
 884 578 884 578 838 626 c 128,-1,18
404 834 m 0,32,33
 464 804 464 804 522 804 c 2,34,-1
 536 804 l 2,35,36
 552 804 552 804 552 932 c 2,37,-1
 552 1002 l 1,38,-1
 552 1204 l 1,39,-1
 452 1262 l 1,40,-1
 448 1262 l 2,41,42
 422 1262 422 1262 407 1230 c 128,-1,43
 392 1198 392 1198 392 1036 c 0,44,45
 392 842 392 842 404 834 c 0,32,33
610 1160 m 2,46,-1
 600 794 l 1,47,-1
 664 784 l 2,48,49
 740 772 740 772 784 748 c 0,50,51
 824 728 824 728 872 674 c 128,-1,52
 920 620 920 620 948 553 c 128,-1,53
 976 486 976 486 976 405 c 128,-1,54
 976 324 976 324 944 231 c 128,-1,55
 912 138 912 138 872 88 c 128,-1,56
 832 38 832 38 814 29 c 128,-1,57
 796 20 796 20 744 12 c 128,-1,58
 692 4 692 4 674 -9 c 128,-1,59
 656 -22 656 -22 648 -45 c 128,-1,60
 640 -68 640 -68 636 -74 c 1,61,62
 630 -76 630 -76 613 -76 c 128,-1,63
 596 -76 596 -76 578 -47 c 128,-1,64
 560 -18 560 -18 532 -18 c 0,65,66
 494 -18 494 -18 494 -60 c 1,67,68
 494 -60 494 -60 496 -62 c 1,69,70
 496 -62 496 -62 496 -80 c 2,71,72
 496 -120 496 -120 492 -164 c 0,73,74
 488 -220 488 -220 468 -222 c 0,75,76
 466 -222 466 -222 464 -222 c 0,77,78
 448 -224 448 -224 440 -208 c 128,-1,79
 432 -192 432 -192 428 -117 c 128,-1,80
 424 -42 424 -42 406 -9 c 128,-1,81
 388 24 388 24 328 50 c 1,82,-1
 244 80 l 1,83,-1
 240 80 l 1,84,85
 204 76 204 76 192 18 c 128,-1,86
 180 -40 180 -40 150 -69 c 128,-1,87
 120 -98 120 -98 90 -98 c 128,-1,88
 60 -98 60 -98 60 -77 c 128,-1,89
 60 -56 60 -56 78 -31 c 128,-1,90
 96 -6 96 -6 96 46 c 1,91,-1
 92 70 l 1,92,-1
 92 72 l 2,93,94
 92 116 92 116 104 132 c 128,-1,95
 116 148 116 148 144 148 c 1,96,-1
 376 112 l 1,97,-1
 384 188 l 1,98,-1
 388 188 l 1,99,-1
 364 692 l 1,100,-1
 312 728 l 2,101,102
 278 750 278 750 243 792 c 128,-1,103
 208 834 208 834 196 867 c 128,-1,104
 184 900 184 900 184 974 c 128,-1,105
 184 1048 184 1048 204 1098 c 128,-1,106
 224 1148 224 1148 264 1199 c 128,-1,107
 304 1250 304 1250 320 1295 c 128,-1,108
 336 1340 336 1340 344 1401 c 128,-1,109
 352 1462 352 1462 356 1482 c 1,110,111
 364 1460 364 1460 374 1414 c 128,-1,112
 384 1368 384 1368 398 1342 c 128,-1,113
 412 1316 412 1316 452 1310 c 1,114,-1
 504 1316 l 1,115,-1
 504 1318 l 1,116,117
 522 1332 522 1332 531 1390 c 128,-1,118
 540 1448 540 1448 548 1462 c 128,-1,119
 556 1476 556 1476 568 1476 c 128,-1,120
 580 1476 580 1476 594 1460 c 128,-1,121
 608 1444 608 1444 608 1418 c 2,122,-1
 604 1252 l 1,123,-1
 724 1178 l 1,124,-1
 780 1210 l 2,125,126
 816 1230 816 1230 836 1230 c 0,127,128
 838 1230 838 1230 840 1230 c 0,129,130
 860 1228 860 1228 860 1222 c 2,131,-1
 864 1200 l 1,132,133
 858 1184 858 1184 833 1139 c 128,-1,134
 808 1094 808 1094 780 1064 c 128,-1,135
 752 1034 752 1034 740 1032 c 1,136,137
 728 1036 728 1036 714 1056 c 128,-1,138
 700 1076 700 1076 694 1090 c 128,-1,139
 688 1104 688 1104 682 1111 c 128,-1,140
 676 1118 676 1118 670 1124 c 0,141,142
 664 1132 664 1132 640 1148 c 0,143,144
 622 1162 622 1162 614 1160 c 0,145,146
 612 1160 612 1160 610 1160 c 2,46,-1
344 1060 m 1,147,-1
 342 1104 l 2,148,149
 342 1108 342 1108 341 1115 c 128,-1,150
 340 1122 340 1122 336 1126 c 128,-1,151
 332 1130 332 1130 330 1134 c 128,-1,152
 328 1138 328 1138 322 1140 c 128,-1,153
 316 1142 316 1142 312 1142 c 0,154,155
 244 1140 244 1140 244 1052 c 2,156,157
 244 1052 244 1052 244 1034 c 2,158,159
 244 962 244 962 252 938 c 0,160,161
 260 912 260 912 264 904 c 128,-1,162
 268 896 268 896 268 893 c 128,-1,163
 268 890 268 890 272 882 c 128,-1,164
 276 874 276 874 278 871 c 128,-1,165
 280 868 280 868 284 863 c 128,-1,166
 288 858 288 858 292 856 c 128,-1,167
 296 854 296 854 300 852 c 128,-1,168
 304 850 304 850 312 850 c 128,-1,169
 320 850 320 850 326 853 c 128,-1,170
 332 856 332 856 334 862 c 128,-1,171
 336 868 336 868 338 875 c 128,-1,172
 340 882 340 882 342 892 c 128,-1,173
 344 902 344 902 344 908 c 2,174,-1
 344 1060 l 1,147,-1
EndSplineSet
Validated: 1
EndChar

StartChar: percent
Encoding: 37 37 5
Width: 1110
VWidth: 1894
Flags: W
HStem: -6 74<775.91 924.799> 494 68<839.75 961.273> 758 58<189.789 320.219> 1340 56<224.567 341.494>
VStem: 64 60<877.848 1178.38> 400 68<960.93 1272.58> 998 54<176.277 444.611>
LayerCount: 2
Fore
SplineSet
998 336 m 0,0,1
 998 384 998 384 974 439 c 128,-1,2
 950 494 950 494 908 494 c 0,3,4
 864 494 864 494 816 434 c 0,5,6
 768 372 768 372 756 300 c 2,7,-1
 740 190 l 1,8,-1
 764 124 l 1,9,10
 792 68 792 68 840 68 c 2,11,12
 840 68 840 68 842 68 c 2,13,14
 890 68 890 68 920 100 c 1,15,16
 998 172 998 172 998 336 c 0,0,1
836 -6 m 128,-1,18
 812 -6 812 -6 777 9 c 128,-1,19
 742 24 742 24 721 64 c 128,-1,20
 700 104 700 104 686 187 c 128,-1,21
 672 270 672 270 672 330 c 128,-1,22
 672 390 672 390 701 441 c 128,-1,23
 730 492 730 492 766 500 c 128,-1,24
 802 508 802 508 832 536 c 0,25,26
 860 562 860 562 880 562 c 0,27,28
 882 562 882 562 884 562 c 0,29,30
 972 562 972 562 1026 472 c 0,31,32
 1042 446 1042 446 1047 420 c 128,-1,33
 1052 394 1052 394 1052 319 c 128,-1,34
 1052 244 1052 244 1048 217 c 128,-1,35
 1044 190 1044 190 1021 146 c 128,-1,36
 998 102 998 102 954 56 c 128,-1,37
 910 10 910 10 885 2 c 128,-1,17
 860 -6 860 -6 836 -6 c 128,-1,18
140 898 m 128,-1,39
 156 868 156 868 193 842 c 128,-1,40
 230 816 230 816 266 816 c 128,-1,41
 302 816 302 816 339 867 c 128,-1,42
 376 918 376 918 388 975 c 128,-1,43
 400 1032 400 1032 400 1136 c 128,-1,44
 400 1240 400 1240 378 1279 c 128,-1,45
 356 1318 356 1318 342 1328 c 0,46,47
 326 1340 326 1340 284 1340 c 2,48,49
 284 1340 284 1340 278 1340 c 2,50,51
 242 1340 242 1340 224 1328 c 128,-1,52
 206 1316 206 1316 184 1278 c 128,-1,53
 162 1240 162 1240 143 1118 c 128,-1,54
 124 996 124 996 124 962 c 128,-1,38
 124 928 124 928 140 898 c 128,-1,39
110 1294 m 1,55,56
 148 1396 148 1396 259 1396 c 128,-1,57
 370 1396 370 1396 399 1351 c 128,-1,58
 428 1306 428 1306 448 1226 c 0,59,60
 468 1150 468 1150 468 1110 c 0,61,62
 468 1108 468 1108 468 1106 c 0,63,64
 468 1066 468 1066 432 954 c 0,65,66
 370 758 370 758 274 758 c 0,67,68
 224 758 224 758 158 794 c 128,-1,69
 92 830 92 830 78 860 c 128,-1,70
 64 890 64 890 64 932 c 128,-1,71
 64 974 64 974 70 1094 c 128,-1,72
 76 1214 76 1214 110 1294 c 1,55,56
132 -127 m 128,-1,74
 118 -140 118 -140 110 -140 c 2,75,-1
 100 -140 l 1,76,-1
 98 -134 l 1,77,-1
 96 -106 l 1,78,79
 96 -52 96 -52 215 168 c 128,-1,80
 334 388 334 388 423 539 c 128,-1,81
 512 690 512 690 548 761 c 128,-1,82
 584 832 584 832 617 893 c 128,-1,83
 650 954 650 954 729 1133 c 128,-1,84
 808 1312 808 1312 834 1352 c 128,-1,85
 860 1392 860 1392 868 1399 c 128,-1,86
 876 1406 876 1406 888 1406 c 2,87,-1
 906 1406 l 1,88,89
 908 1392 908 1392 908 1364 c 128,-1,90
 908 1336 908 1336 875 1270 c 128,-1,91
 842 1204 842 1204 771 1071 c 128,-1,92
 700 938 700 938 659 849 c 128,-1,93
 618 760 618 760 477 509 c 128,-1,94
 336 258 336 258 287 175 c 128,-1,95
 238 92 238 92 213 26 c 128,-1,96
 188 -40 188 -40 167 -77 c 128,-1,73
 146 -114 146 -114 132 -127 c 128,-1,74
EndSplineSet
Validated: 1
EndChar

StartChar: ampersand
Encoding: 38 38 6
Width: 1112
VWidth: 1894
Flags: W
HStem: -58 70<202.327 427.732> 114 54<760.472 1047.92> 480 24<918.437 1010> 1290 82<432.831 561.859>
VStem: 64 60<99.3705 380.236> 292 52<810.957 1110.7> 588 130<193.403 281.656> 608 44<1010.72 1222.01>
LayerCount: 2
Fore
SplineSet
292 896 m 2,0,-1
 292 1038 l 1,1,2
 298 1154 298 1154 364 1272 c 0,3,4
 400 1336 400 1336 426 1354 c 128,-1,5
 452 1372 452 1372 478 1372 c 128,-1,6
 504 1372 504 1372 570 1326 c 128,-1,7
 636 1280 636 1280 648 1210 c 1,8,-1
 652 1058 l 1,9,10
 652 1058 652 1058 652 1052 c 2,11,12
 652 992 652 992 622 920 c 1,13,14
 592 842 592 842 566 805 c 128,-1,15
 540 768 540 768 486 731 c 128,-1,16
 432 694 432 694 432 651 c 128,-1,17
 432 608 432 608 464 542 c 128,-1,18
 496 476 496 476 528 429 c 128,-1,19
 560 382 560 382 570 364 c 128,-1,20
 580 346 580 346 586 338 c 128,-1,21
 592 330 592 330 600 320 c 128,-1,22
 608 310 608 310 616 306 c 128,-1,23
 624 302 624 302 632 302 c 128,-1,24
 640 302 640 302 648 306 c 128,-1,25
 656 310 656 310 666 320 c 128,-1,26
 676 330 676 330 684 340 c 128,-1,27
 692 350 692 350 710 370 c 128,-1,28
 728 390 728 390 774 441 c 128,-1,29
 820 492 820 492 846 502 c 0,30,31
 878 514 878 514 918 514 c 0,32,33
 932 514 932 514 944 512 c 0,34,35
 1000 506 1000 506 1004 504 c 1,36,37
 1010 496 1010 496 1010 492 c 0,38,39
 1010 484 1010 484 998 480 c 0,40,41
 980 474 980 474 924 469 c 128,-1,42
 868 464 868 464 792 376 c 1,43,44
 720 288 720 288 718 256 c 1,45,46
 718 256 718 256 718 254 c 1,47,48
 720 224 720 224 736 210 c 128,-1,49
 752 196 752 196 770 191 c 128,-1,50
 788 186 788 186 846 180 c 128,-1,51
 904 174 904 174 916 171 c 128,-1,52
 928 168 928 168 946 168 c 128,-1,53
 964 168 964 168 988 172 c 1,54,-1
 1044 174 l 1,55,56
 1048 166 1048 166 1048 146 c 128,-1,57
 1048 126 1048 126 1044 120 c 1,58,59
 1010 114 1010 114 895 114 c 128,-1,60
 780 114 780 114 720 152 c 1,61,-1
 664 180 l 1,62,-1
 612 118 l 1,63,64
 534 34 534 34 457 -12 c 128,-1,65
 380 -58 380 -58 340 -58 c 128,-1,66
 300 -58 300 -58 226 -32 c 128,-1,67
 152 -6 152 -6 122 16 c 128,-1,68
 92 38 92 38 78 115 c 128,-1,69
 64 192 64 192 64 240 c 0,70,71
 64 438 64 438 232 622 c 2,72,-1
 320 718 l 1,73,-1
 304 800 l 1,74,75
 292 872 292 872 292 896 c 2,0,-1
484 1290 m 0,76,77
 464 1290 464 1290 444 1276 c 128,-1,78
 424 1262 424 1262 400 1209 c 128,-1,79
 376 1156 376 1156 360 1063 c 128,-1,80
 344 970 344 970 344 918 c 128,-1,81
 344 866 344 866 366 818 c 128,-1,82
 388 770 388 770 420 770 c 128,-1,83
 452 770 452 770 474 795 c 128,-1,84
 496 820 496 820 538 893 c 128,-1,85
 580 966 580 966 594 1045 c 128,-1,86
 608 1124 608 1124 608 1149 c 128,-1,87
 608 1174 608 1174 592 1210 c 0,88,89
 560 1290 560 1290 484 1290 c 0,76,77
584 176 m 2,90,91
 588 184 588 184 588 193 c 128,-1,92
 588 202 588 202 586 211 c 128,-1,93
 584 220 584 220 576 231 c 128,-1,94
 568 242 568 242 564 251 c 128,-1,95
 560 260 560 260 546 278 c 128,-1,96
 532 296 532 296 500 346 c 128,-1,97
 468 396 468 396 438 453 c 128,-1,98
 408 510 408 510 400 526 c 128,-1,99
 392 542 392 542 388 551 c 128,-1,100
 384 560 384 560 378 572 c 128,-1,101
 372 584 372 584 366 591 c 128,-1,102
 360 598 360 598 354 605 c 128,-1,103
 348 612 348 612 342 614 c 128,-1,104
 336 616 336 616 320 616 c 128,-1,105
 304 616 304 616 254 559 c 128,-1,106
 204 502 204 502 186 470 c 128,-1,107
 168 438 168 438 146 352 c 128,-1,108
 124 266 124 266 124 200 c 128,-1,109
 124 134 124 134 172 73 c 128,-1,110
 220 12 220 12 294 12 c 128,-1,111
 368 12 368 12 412 37 c 128,-1,112
 456 62 456 62 492 91 c 128,-1,113
 528 120 528 120 540 130 c 128,-1,114
 552 140 552 140 560 146 c 1,115,-1
 584 176 l 2,90,91
EndSplineSet
Validated: 1
EndChar

StartChar: parenleft
Encoding: 40 40 7
Width: 374
VWidth: 1894
Flags: W
VStem: 60 52<278.109 740.195>
LayerCount: 2
Fore
SplineSet
456 1512 m 128,-1,1
 464 1506 464 1506 464 1487 c 128,-1,2
 464 1468 464 1468 390 1376 c 128,-1,3
 316 1284 316 1284 232 1104 c 128,-1,4
 148 924 148 924 130 750 c 128,-1,5
 112 576 112 576 112 504 c 128,-1,6
 112 432 112 432 146 225 c 128,-1,7
 180 18 180 18 480 -268 c 0,8,9
 512 -300 512 -300 512 -312 c 2,10,-1
 512 -314 l 1,11,12
 498 -318 498 -318 473 -322 c 128,-1,13
 448 -326 448 -326 424 -326 c 1,14,-1
 420 -324 l 1,15,16
 412 -304 412 -304 372 -263 c 128,-1,17
 332 -222 332 -222 284 -157 c 128,-1,18
 236 -92 236 -92 200 -51 c 128,-1,19
 164 -10 164 -10 124 86 c 128,-1,20
 84 182 84 182 72 289 c 128,-1,21
 60 396 60 396 60 508 c 128,-1,22
 60 620 60 620 84 734 c 128,-1,23
 108 848 108 848 154 1003 c 128,-1,24
 200 1158 200 1158 276 1309 c 128,-1,25
 352 1460 352 1460 376 1488 c 128,-1,26
 400 1516 400 1516 424 1517 c 128,-1,0
 448 1518 448 1518 456 1512 c 128,-1,1
EndSplineSet
Validated: 1
EndChar

StartChar: parenright
Encoding: 41 41 8
Width: 382
VWidth: 1894
Flags: W
VStem: 268 52<473.077 928>
LayerCount: 2
Fore
SplineSet
-88 1508 m 1,0,-1
 -80 1516 l 1,1,-1
 4 1516 l 1,2,3
 12 1496 12 1496 48 1453 c 128,-1,4
 84 1410 84 1410 130 1343 c 128,-1,5
 176 1276 176 1276 208 1232 c 128,-1,6
 240 1188 240 1188 276 1090 c 128,-1,7
 312 992 312 992 316 928 c 2,8,-1
 324 774 l 1,9,10
 324 722 324 722 320 636 c 128,-1,11
 316 550 316 550 286 439 c 128,-1,12
 256 328 256 328 200 176 c 128,-1,13
 144 24 144 24 60 -122 c 128,-1,14
 -24 -268 -24 -268 -48 -298 c 0,15,16
 -68 -320 -68 -320 -76 -320 c 2,17,-1
 -100 -322 l 1,18,19
 -136 -318 -136 -318 -136 -302 c 2,20,-1
 -136 -300 l 2,21,22
 -136 -270 -136 -270 -54 -181 c 128,-1,23
 28 -92 28 -92 118 82 c 128,-1,24
 208 256 208 256 236 429 c 128,-1,25
 264 602 264 602 268 650 c 1,26,-1
 268 756 l 1,27,28
 264 816 264 816 248 948 c 0,29,30
 224 1160 224 1160 -60 1464 c 0,31,32
 -88 1494 -88 1494 -88 1508 c 1,0,-1
EndSplineSet
Validated: 1
EndChar

StartChar: asterisk
Encoding: 42 42 9
Width: 924
VWidth: 1894
Flags: W
HStem: 508 134<144.131 287.931 436.75 516.168> 565 91<668.507 781.679> 864 20G<676 692>
VStem: 140 652
LayerCount: 2
Fore
SplineSet
688 884 m 9,0,1
 696 880 696 880 704 874 c 0,2,3
 716 864 716 864 716 848 c 2,4,-1
 716 844 l 2,5,6
 716 822 716 822 698 798 c 128,-1,7
 680 774 680 774 670 761 c 128,-1,8
 660 748 660 748 658 744 c 128,-1,9
 656 740 656 740 650 731 c 128,-1,10
 644 722 644 722 644 716 c 2,11,-1
 644 700 l 2,12,13
 644 690 644 690 648 682 c 128,-1,14
 652 674 652 674 664 670 c 2,15,-1
 682 664 l 2,16,17
 688 662 688 662 704 661 c 128,-1,18
 720 660 720 660 746 656 c 128,-1,19
 772 652 772 652 782 645 c 128,-1,20
 792 638 792 638 792 611 c 128,-1,21
 792 584 792 584 782 576 c 128,-1,22
 772 568 772 568 728 565 c 128,-1,23
 684 562 684 562 668 554 c 128,-1,24
 652 546 652 546 648 526 c 128,-1,25
 644 506 644 506 644 482 c 128,-1,26
 644 458 644 458 682 437 c 128,-1,27
 720 416 720 416 720 392 c 128,-1,28
 720 368 720 368 714 363 c 128,-1,29
 708 358 708 358 688 358 c 128,-1,30
 668 358 668 358 632 393 c 128,-1,31
 596 428 596 428 580 445 c 128,-1,32
 564 462 564 462 552 474 c 128,-1,33
 540 486 540 486 524 497 c 128,-1,34
 508 508 508 508 498 508 c 128,-1,35
 488 508 488 508 482 506 c 128,-1,36
 476 504 476 504 470 500 c 128,-1,37
 464 496 464 496 460 493 c 128,-1,38
 456 490 456 490 450 482 c 0,39,40
 444 472 444 472 440 468 c 2,41,-1
 388 400 l 1,42,43
 332 314 332 314 296 314 c 0,44,45
 294 314 294 314 277 322 c 128,-1,46
 260 330 260 330 260 361 c 128,-1,47
 260 392 260 392 286 416 c 128,-1,48
 312 440 312 440 312 468 c 128,-1,49
 312 496 312 496 294 502 c 128,-1,50
 276 508 276 508 262 508 c 128,-1,51
 248 508 248 508 224 504 c 1,52,-1
 172 502 l 1,53,54
 164 504 164 504 152 519 c 128,-1,55
 140 534 140 534 140 560 c 128,-1,56
 140 586 140 586 144 598 c 128,-1,57
 148 610 148 610 178 626 c 128,-1,58
 208 642 208 642 220 642 c 2,59,-1
 244 642 l 2,60,61
 288 642 288 642 288 680 c 2,62,-1
 288 686 l 1,63,64
 282 706 282 706 257 740 c 128,-1,65
 232 774 232 774 232 792 c 128,-1,66
 232 810 232 810 238 816 c 128,-1,67
 244 822 244 822 270 822 c 128,-1,68
 296 822 296 822 324 780 c 128,-1,69
 352 738 352 738 368 718 c 2,70,-1
 396 684 l 2,71,72
 408 668 408 668 424 655 c 128,-1,73
 440 642 440 642 452 642 c 128,-1,74
 464 642 464 642 470 645 c 128,-1,75
 476 648 476 648 484 656 c 0,76,77
 544 708 544 708 584 766 c 0,78,79
 666 884 666 884 686 884 c 2,80,-1
 688 884 l 9,0,1
EndSplineSet
Validated: 1
EndChar

StartChar: plus
Encoding: 43 43 10
Width: 924
VWidth: 1894
Flags: W
HStem: 540 112<170.625 398.713> 566 82<170.625 398.713> 588 64<492.207 780>
VStem: 412 60<676.568 949.536> 430 58<265.582 550.516>
LayerCount: 2
Fore
SplineSet
356 566 m 2,0,-1
 328 566 l 1,1,2
 276 562 276 562 228 550 c 0,3,4
 186 540 186 540 174 540 c 0,5,6
 172 540 172 540 170 540 c 0,7,8
 160 544 160 544 148 552 c 1,9,-1
 140 568 l 1,10,11
 140 588 140 588 180 614 c 128,-1,12
 220 640 220 640 304 648 c 1,13,-1
 408 652 l 1,14,-1
 412 800 l 2,15,16
 414 912 414 912 423 931 c 128,-1,17
 432 950 432 950 446 950 c 128,-1,18
 460 950 460 950 464 946 c 1,19,20
 472 920 472 920 472 872 c 2,21,-1
 472 810 l 2,22,23
 472 696 472 696 486 672 c 0,24,25
 498 650 498 650 530 652 c 1,26,27
 530 652 530 652 536 652 c 1,28,-1
 696 666 l 1,29,30
 784 666 784 666 784 620 c 1,31,-1
 780 586 l 1,32,33
 768 580 768 580 740 580 c 2,34,-1
 624 588 l 1,35,36
 576 588 576 588 540 580 c 1,37,-1
 488 554 l 1,38,-1
 488 360 l 2,39,40
 488 352 488 352 488 344 c 0,41,42
 488 264 488 264 468 264 c 128,-1,43
 448 264 448 264 440 289 c 128,-1,44
 432 314 432 314 430 385 c 128,-1,45
 428 456 428 456 418 499 c 128,-1,46
 408 542 408 542 399 554 c 128,-1,47
 390 566 390 566 356 566 c 2,0,-1
EndSplineSet
Validated: 1
EndChar

StartChar: comma
Encoding: 44 44 11
Width: 466
VWidth: 1894
Flags: W
HStem: 116 42<221.342 295.276>
VStem: 156 48<6.09181 103.35> 308 32<10.3875 100.054>
LayerCount: 2
Fore
SplineSet
292 10 m 128,-1,1
 308 26 308 26 308 44 c 128,-1,2
 308 62 308 62 298 89 c 128,-1,3
 288 116 288 116 260 116 c 128,-1,4
 232 116 232 116 218 90 c 128,-1,5
 204 64 204 64 204 33 c 128,-1,6
 204 2 204 2 224 -2 c 128,-1,7
 244 -6 244 -6 260 -6 c 128,-1,0
 276 -6 276 -6 292 10 c 128,-1,1
228 -61 m 0,8,9
 228 -52 228 -52 224 -44 c 128,-1,10
 220 -36 220 -36 216 -31 c 128,-1,11
 212 -26 212 -26 204 -18 c 2,12,-1
 180 6 l 2,13,14
 164 22 164 22 160 33 c 128,-1,15
 156 44 156 44 156 66 c 0,16,17
 156 124 156 124 216 150 c 0,18,19
 234 158 234 158 245 158 c 128,-1,20
 256 158 256 158 268 154 c 128,-1,21
 280 150 280 150 310 126 c 128,-1,22
 340 102 340 102 340 66 c 128,-1,23
 340 30 340 30 336 3 c 128,-1,24
 332 -24 332 -24 278 -101 c 0,25,26
 226 -175 226 -175 180 -178 c 2,27,-1
 167 -179 l 1,28,29
 160 -179 160 -179 155 -177 c 1,30,31
 153 -174 153 -174 156 -170 c 1,32,33
 162 -158 162 -158 176 -140 c 2,34,-1
 224 -78 l 2,35,36
 228 -73 228 -73 228 -61 c 0,8,9
EndSplineSet
Validated: 1
EndChar

StartChar: hyphen
Encoding: 45 45 12
Width: 924
VWidth: 1894
Flags: W
HStem: 566 82<170.625 663.431> 588 64<511.016 779.529>
VStem: 140 640<614 616.398>
LayerCount: 2
Fore
SplineSet
540 580 m 0,0,1
 477 566 477 566 356 566 c 2,2,-1
 328 566 l 1,3,4
 276 562 276 562 228 550 c 0,5,6
 186 540 186 540 174 540 c 0,7,8
 172 540 172 540 170 540 c 0,9,10
 160 544 160 544 148 552 c 1,11,-1
 140 568 l 1,12,13
 140 588 140 588 180 614 c 128,-1,14
 220 640 220 640 304 648 c 1,15,-1
 530 652 l 1,16,-1
 536 652 l 1,17,-1
 696 666 l 1,18,19
 784 666 784 666 784 620 c 1,20,-1
 780 586 l 1,21,22
 765 578 765 578 740 580 c 2,23,-1
 624 588 l 1,24,25
 576 588 576 588 540 580 c 0,0,1
EndSplineSet
Validated: 1
EndChar

StartChar: period
Encoding: 46 46 13
Width: 494
VWidth: 1894
Flags: W
HStem: -21 53<221.222 288.406>
VStem: 140 74<40.4047 127.299> 308 46<48.5956 131.715>
LayerCount: 2
Fore
SplineSet
140 61 m 128,-1,1
 140 80 140 80 158 121 c 128,-1,2
 176 162 176 162 194 173 c 128,-1,3
 212 184 212 184 238 187 c 128,-1,4
 264 190 264 190 280 193 c 128,-1,5
 296 196 296 196 302 197 c 128,-1,6
 308 198 308 198 331 187 c 128,-1,7
 354 176 354 176 354 120 c 128,-1,8
 354 64 354 64 332 33 c 128,-1,9
 310 2 310 2 284 -9 c 128,-1,10
 258 -20 258 -20 249 -21 c 128,-1,11
 240 -22 240 -22 218 -16 c 128,-1,12
 196 -10 196 -10 168 16 c 128,-1,0
 140 42 140 42 140 61 c 128,-1,1
221 48 m 128,-1,14
 228 32 228 32 249 32 c 128,-1,15
 270 32 270 32 289 50 c 128,-1,16
 308 68 308 68 308 100 c 128,-1,17
 308 132 308 132 280 132 c 2,18,-1
 278 132 l 1,19,20
 214 128 214 128 214 82 c 0,21,13
 214 64 214 64 221 48 c 128,-1,14
EndSplineSet
Validated: 1
EndChar

StartChar: slash
Encoding: 47 47 14
Width: 655
VWidth: 1894
Flags: W
LayerCount: 2
Fore
SplineSet
-42 -134 m 2,0,1
 -42 -120 -42 -120 -17 -70 c 128,-1,2
 8 -20 8 -20 130 242 c 1,3,4
 246 504 246 504 407 862 c 128,-1,5
 568 1220 568 1220 598 1308 c 128,-1,6
 628 1396 628 1396 658 1442 c 128,-1,7
 688 1488 688 1488 708 1488 c 1,8,-1
 720 1482 l 1,9,-1
 732 1468 l 1,10,-1
 630 1194 l 1,11,12
 440 832 440 832 329 556 c 128,-1,13
 218 280 218 280 121 75 c 128,-1,14
 24 -130 24 -130 12 -148 c 128,-1,15
 0 -166 0 -166 -20 -166 c 1,16,-1
 -28 -166 l 1,17,18
 -40 -156 -40 -156 -42 -142 c 1,19,-1
 -42 -134 l 2,0,1
EndSplineSet
EndChar

StartChar: zero
Encoding: 48 48 15
Width: 922
VWidth: 1894
Flags: W
HStem: -78 66<297.208 621.78> 1304 86<370.935 461.486> 1380 42<473.75 577>
VStem: 64 40<257.305 631.5> 818 42<434.024 825.078>
LayerCount: 2
Fore
SplineSet
64 422 m 2,0,1
 64 584 64 584 140 936 c 1,2,3
 148 1008 148 1008 178 1066 c 128,-1,4
 208 1124 208 1124 249 1228 c 128,-1,5
 290 1332 290 1332 328 1361 c 128,-1,6
 366 1390 366 1390 401 1390 c 128,-1,7
 436 1390 436 1390 473 1406 c 128,-1,8
 510 1422 510 1422 540 1422 c 128,-1,9
 570 1422 570 1422 591 1403 c 128,-1,10
 612 1384 612 1384 658 1314 c 128,-1,11
 704 1244 704 1244 714 1207 c 128,-1,12
 724 1170 724 1170 769 1102 c 128,-1,13
 814 1034 814 1034 837 845 c 128,-1,14
 860 656 860 656 860 544 c 128,-1,15
 860 432 860 432 842 331 c 128,-1,16
 824 230 824 230 795 145 c 128,-1,17
 766 60 766 60 721 15 c 128,-1,18
 676 -30 676 -30 595 -54 c 128,-1,19
 514 -78 514 -78 468 -78 c 0,20,21
 298 -78 298 -78 206 10 c 128,-1,22
 114 98 114 98 89 200 c 128,-1,23
 64 302 64 302 64 338 c 2,24,-1
 64 422 l 2,0,1
104 460 m 128,-1,26
 104 412 104 412 108 343 c 128,-1,27
 112 274 112 274 142 208 c 0,28,29
 172 144 172 144 216 88 c 1,30,31
 256 32 256 32 296 10 c 0,32,33
 334 -12 334 -12 454 -12 c 2,34,35
 454 -12 454 -12 464 -12 c 2,36,37
 592 -12 592 -12 628 8 c 0,38,39
 760 80 760 80 782 302 c 0,40,41
 788 380 788 380 803 469 c 128,-1,42
 818 558 818 558 818 646 c 0,43,44
 818 932 818 932 730 1116 c 0,45,46
 710 1162 710 1162 662 1237 c 128,-1,47
 614 1312 614 1312 590 1344 c 1,48,49
 566 1380 566 1380 526 1380 c 2,50,-1
 524 1380 l 2,51,52
 486 1380 486 1380 460 1344 c 128,-1,53
 434 1308 434 1308 424 1304 c 0,54,55
 420 1304 420 1304 415 1303 c 128,-1,56
 410 1302 410 1302 406 1299 c 128,-1,57
 402 1296 402 1296 398 1292 c 0,58,59
 392 1288 392 1288 388 1284 c 2,60,-1
 344 1226 l 2,61,62
 290 1154 290 1154 257 1088 c 128,-1,63
 224 1022 224 1022 193 909 c 128,-1,64
 162 796 162 796 144 758 c 128,-1,65
 126 720 126 720 115 614 c 128,-1,25
 104 508 104 508 104 460 c 128,-1,26
352 282 m 1,66,-1
 352 304 l 2,67,68
 352 320 352 320 409 543 c 128,-1,69
 466 766 466 766 487 831 c 128,-1,70
 508 896 508 896 524 917 c 128,-1,71
 540 938 540 938 551 938 c 128,-1,72
 562 938 562 938 565 934 c 128,-1,73
 568 930 568 930 568 912 c 128,-1,74
 568 894 568 894 562 865 c 128,-1,75
 556 836 556 836 494 647 c 128,-1,76
 432 458 432 458 410 387 c 128,-1,77
 388 316 388 316 376 298 c 0,78,79
 366 282 366 282 360 282 c 2,80,-1
 358 282 l 1,81,-1
 352 282 l 1,66,-1
EndSplineSet
Validated: 1
EndChar

StartChar: one
Encoding: 49 49 16
Width: 608
VWidth: 1894
Flags: W
HStem: 1404 20G<428.5 449.5>
VStem: 380 54<113.896 1041.75>
LayerCount: 2
Fore
SplineSet
224 996 m 128,-1,1
 336 1258 336 1258 363 1322 c 128,-1,2
 390 1386 390 1386 404 1405 c 128,-1,3
 418 1424 418 1424 439 1424 c 128,-1,4
 460 1424 460 1424 464 1412 c 128,-1,5
 468 1400 468 1400 468 1350 c 2,6,7
 468 1350 468 1350 468 1322 c 2,8,9
 468 1274 468 1274 464 1194 c 0,10,11
 460 1086 460 1086 450 1051 c 128,-1,12
 440 1016 440 1016 436 888 c 0,13,14
 434 800 434 800 434 698 c 2,15,16
 434 698 434 698 434 592 c 1,17,-1
 434 382 l 2,18,19
 434 140 434 140 449 113 c 128,-1,20
 464 86 464 86 532 76 c 2,21,-1
 560 72 l 1,22,-1
 548 -8 l 2,23,24
 546 -10 546 -10 544 -10 c 0,25,26
 542 -8 542 -8 540 -8 c 0,27,28
 534 -8 534 -8 503 5 c 128,-1,29
 472 18 472 18 452 18 c 128,-1,30
 432 18 432 18 387 1 c 128,-1,31
 342 -16 342 -16 282 -16 c 1,32,-1
 214 -10 l 1,33,-1
 214 -8 l 1,34,-1
 206 16 l 1,35,-1
 210 34 l 1,36,37
 220 42 220 42 282 55 c 128,-1,38
 344 68 344 68 360 80 c 1,39,-1
 376 110 l 2,40,41
 380 120 380 120 381 129 c 128,-1,42
 382 138 382 138 383 155 c 128,-1,43
 384 172 384 172 384 184 c 2,44,-1
 386 332 l 2,45,46
 386 408 386 408 380 432 c 1,47,-1
 374 562 l 1,48,49
 374 636 374 636 376 750 c 128,-1,50
 378 864 378 864 378 902 c 128,-1,51
 378 940 378 940 380 959 c 128,-1,52
 382 978 382 978 382 991 c 128,-1,53
 382 1004 382 1004 380 1019 c 128,-1,54
 378 1034 378 1034 370 1042 c 128,-1,55
 362 1050 362 1050 346 1050 c 128,-1,56
 330 1050 330 1050 309 1023 c 128,-1,57
 288 996 288 996 273 942 c 128,-1,58
 258 888 258 888 227 805 c 128,-1,59
 196 722 196 722 169 642 c 128,-1,60
 142 562 142 562 122 540 c 1,61,-1
 120 540 l 1,62,63
 106 522 106 522 88 518 c 1,64,-1
 68 524 l 1,65,-1
 62 552 l 1,66,67
 62 578 62 578 87 656 c 128,-1,0
 112 734 112 734 224 996 c 128,-1,1
EndSplineSet
Validated: 1
EndChar

StartChar: two
Encoding: 50 50 17
Width: 920
VWidth: 1894
Flags: W
HStem: -86 96<531.718 674.034> 59 155<746.909 824.47> 94 66<245.667 416.641> 878 21G<159.429 210> 1320 74<329.305 569.245>
VStem: 90 120<942.436 1039.09> 650 70<845.195 994 996 1221.95>
LayerCount: 2
Fore
SplineSet
230 1098 m 1,0,-1
 210 890 l 1,1,-1
 198 878 l 1,2,-1
 144 906 l 2,3,4
 102 928 102 928 96 942 c 128,-1,5
 90 956 90 956 90 962 c 128,-1,6
 90 968 90 968 103 990 c 128,-1,7
 116 1012 116 1012 135 1074 c 128,-1,8
 154 1136 154 1136 195 1209 c 128,-1,9
 236 1282 236 1282 266 1311 c 128,-1,10
 296 1340 296 1340 338 1367 c 128,-1,11
 380 1394 380 1394 400 1394 c 2,12,-1
 438 1394 l 2,13,14
 458 1394 458 1394 516 1377 c 128,-1,15
 574 1360 574 1360 600 1342 c 1,16,17
 682 1298 682 1298 708 1128 c 1,18,19
 720 1064 720 1064 720 1034 c 128,-1,20
 720 1004 720 1004 700 905 c 128,-1,21
 680 806 680 806 639 720 c 128,-1,22
 598 634 598 634 518 536 c 128,-1,23
 438 438 438 438 393 406 c 128,-1,24
 348 374 348 374 307 328 c 128,-1,25
 266 282 266 282 255 272 c 128,-1,26
 244 262 244 262 234 244 c 128,-1,27
 224 226 224 226 224 198 c 128,-1,28
 224 170 224 170 245 165 c 128,-1,29
 266 160 266 160 330 160 c 128,-1,30
 394 160 394 160 475 85 c 128,-1,31
 556 10 556 10 596 10 c 0,32,33
 664 10 664 10 705 112 c 128,-1,34
 746 214 746 214 796 214 c 0,35,36
 808 214 808 214 825 203 c 128,-1,37
 842 192 842 192 850 155 c 128,-1,38
 858 118 858 118 858 101 c 128,-1,39
 858 84 858 84 857 73 c 128,-1,40
 856 62 856 62 851 61 c 128,-1,41
 846 60 846 60 817 59 c 128,-1,42
 788 58 788 58 768 38 c 128,-1,43
 748 18 748 18 676 -70 c 0,44,45
 664 -86 664 -86 638 -86 c 128,-1,46
 612 -86 612 -86 568 -64 c 128,-1,47
 524 -42 524 -42 496 -8 c 0,48,49
 404 94 404 94 324 94 c 0,50,51
 322 94 322 94 320 94 c 2,52,-1
 316 94 l 2,53,54
 278 94 278 94 255 76 c 128,-1,55
 232 58 232 58 168 -14 c 128,-1,56
 104 -86 104 -86 84 -86 c 0,57,58
 72 -86 72 -86 60 -50 c 1,59,-1
 60 -30 l 2,60,61
 60 -14 60 -14 80 60 c 0,62,63
 98 134 98 134 119 165 c 128,-1,64
 140 196 140 196 155 243 c 128,-1,65
 170 290 170 290 236 357 c 128,-1,66
 302 424 302 424 375 475 c 128,-1,67
 448 526 448 526 475 555 c 128,-1,68
 502 584 502 584 548 664 c 1,69,70
 646 820 646 820 648 994 c 1,71,-1
 650 996 l 1,72,-1
 650 1018 l 2,73,74
 650 1180 650 1180 601 1250 c 128,-1,75
 552 1320 552 1320 450 1320 c 2,76,-1
 446 1320 l 2,77,78
 278 1320 278 1320 230 1098 c 1,0,-1
EndSplineSet
Validated: 1
EndChar

StartChar: three
Encoding: 51 51 18
Width: 840
VWidth: 1894
Flags: W
HStem: -80 52<358.32 507.59> 1350 70<381.266 537.972>
VStem: 56 92<76.7585 226.523> 96 146<1030.38 1087.75> 586 56<1025.78 1289.98> 704 70<214.915 532.969>
LayerCount: 2
Fore
SplineSet
572 702 m 1,0,-1
 506 716 l 1,1,2
 492 710 492 710 464 688 c 128,-1,3
 436 666 436 666 420 666 c 0,4,5
 406 666 406 666 400 672 c 0,6,7
 396 676 396 676 396 688 c 2,8,9
 396 688 396 688 396 694 c 2,10,11
 396 712 396 712 443 795 c 128,-1,12
 490 878 490 878 530 963 c 128,-1,13
 570 1048 570 1048 578 1079 c 128,-1,14
 586 1110 586 1110 586 1168 c 128,-1,15
 586 1226 586 1226 580 1250 c 128,-1,16
 574 1274 574 1274 541 1312 c 128,-1,17
 508 1350 508 1350 472 1350 c 128,-1,18
 436 1350 436 1350 388 1320 c 128,-1,19
 340 1290 340 1290 318 1255 c 128,-1,20
 296 1220 296 1220 270 1144 c 1,21,-1
 242 1036 l 1,22,23
 242 1010 242 1010 252 984 c 128,-1,24
 262 958 262 958 262 952 c 128,-1,25
 262 946 262 946 260 942 c 1,26,-1
 258 942 l 1,27,28
 240 948 240 948 183 981 c 128,-1,29
 126 1014 126 1014 108 1030 c 0,30,31
 96 1042 96 1042 96 1061 c 128,-1,32
 96 1080 96 1080 98 1088 c 1,33,34
 104 1092 104 1092 131 1102 c 128,-1,35
 158 1112 158 1112 196 1194 c 128,-1,36
 234 1276 234 1276 275 1318 c 128,-1,37
 316 1360 316 1360 370 1390 c 128,-1,38
 424 1420 424 1420 483 1420 c 128,-1,39
 542 1420 542 1420 592 1356 c 128,-1,40
 642 1292 642 1292 642 1172 c 128,-1,41
 642 1052 642 1052 592 952 c 0,42,43
 586 938 586 938 577 918 c 128,-1,44
 568 898 568 898 563 889 c 128,-1,45
 558 880 558 880 552 867 c 128,-1,46
 546 854 546 854 544 847 c 128,-1,47
 542 840 542 840 540 833 c 128,-1,48
 538 826 538 826 538 818 c 128,-1,49
 538 810 538 810 541 802 c 128,-1,50
 544 794 544 794 554 787 c 128,-1,51
 564 780 564 780 570 776 c 128,-1,52
 576 772 576 772 591 765 c 128,-1,53
 606 758 606 758 610 756 c 0,54,55
 662 730 662 730 695 663 c 128,-1,56
 728 596 728 596 751 480 c 128,-1,57
 774 364 774 364 774 336 c 128,-1,58
 774 308 774 308 770 281 c 128,-1,59
 766 254 766 254 722 162 c 0,60,61
 628 -32 628 -32 518 -68 c 1,62,63
 494 -80 494 -80 454 -80 c 2,64,65
 454 -80 454 -80 448 -80 c 2,66,67
 404 -80 404 -80 355 -79 c 128,-1,68
 306 -78 306 -78 264 -47 c 128,-1,69
 222 -16 222 -16 140 27 c 128,-1,70
 58 70 58 70 56 100 c 0,71,72
 56 114 56 114 68 163 c 128,-1,73
 80 212 80 212 88 227 c 128,-1,74
 96 242 96 242 115 242 c 128,-1,75
 134 242 134 242 141 233 c 128,-1,76
 148 224 148 224 148 171 c 128,-1,77
 148 118 148 118 209 60 c 128,-1,78
 270 2 270 2 340 -10 c 2,79,-1
 430 -28 l 1,80,81
 452 -28 452 -28 481 -18 c 128,-1,82
 510 -8 510 -8 566 53 c 128,-1,83
 622 114 622 114 663 201 c 128,-1,84
 704 288 704 288 704 352 c 128,-1,85
 704 416 704 416 688 503 c 128,-1,86
 672 590 672 590 650 638 c 128,-1,87
 628 686 628 686 572 702 c 1,0,-1
EndSplineSet
Validated: 1
EndChar

StartChar: four
Encoding: 52 52 19
Width: 708
VWidth: 1894
Flags: W
HStem: -12 76<361.793 424.469> 1372 20G<310 332>
VStem: 300 48<1310.03 1390.66> 460 36<238.277 243.916> 500 72<480.131 622.523>
LayerCount: 2
Fore
SplineSet
282 1076 m 1,0,1
 282 1076 282 1076 154 470 c 1,2,3
 154 444 154 444 186 440 c 0,4,5
 202 438 202 438 217 438 c 128,-1,6
 232 438 232 438 258 441 c 128,-1,7
 284 444 284 444 300 442 c 0,8,9
 318 440 318 440 340 440 c 2,10,-1
 346 440 l 2,11,12
 408 440 408 440 442 460 c 128,-1,13
 476 480 476 480 500 554 c 128,-1,14
 524 628 524 628 529 633 c 128,-1,15
 534 638 534 638 540 638 c 128,-1,16
 546 638 546 638 559 623 c 128,-1,17
 572 608 572 608 572 558 c 128,-1,18
 572 508 572 508 606 465 c 128,-1,19
 640 422 640 422 640 411 c 128,-1,20
 640 400 640 400 609 383 c 128,-1,21
 578 366 578 366 561 343 c 128,-1,22
 544 320 544 320 520 260 c 128,-1,23
 496 200 496 200 496 180 c 2,24,-1
 496 158 l 2,25,26
 496 116 496 116 540 83 c 128,-1,27
 584 50 584 50 592 10 c 1,28,29
 580 -12 580 -12 482 -12 c 128,-1,30
 384 -12 384 -12 360 0 c 1,31,32
 356 8 356 8 364 34 c 0,33,34
 372 54 372 54 392 64 c 1,35,-1
 394 64 l 1,36,37
 424 84 424 84 436 136 c 1,38,-1
 460 390 l 1,39,-1
 356 382 l 2,40,41
 262 374 262 374 176 350 c 2,42,-1
 92 326 l 1,43,44
 78 342 78 342 62 360 c 1,45,-1
 96 474 l 2,46,47
 110 522 110 522 140 660 c 0,48,49
 168 796 168 796 213 947 c 128,-1,50
 258 1098 258 1098 258 1162 c 128,-1,51
 258 1226 258 1226 274 1299 c 128,-1,52
 290 1372 290 1372 300 1384 c 1,53,-1
 300 1386 l 1,54,55
 304 1392 304 1392 316 1392 c 0,56,57
 348 1392 348 1392 348 1324 c 128,-1,58
 348 1256 348 1256 325 1204 c 128,-1,59
 302 1152 302 1152 282 1076 c 1,0,1
EndSplineSet
Validated: 1
EndChar

StartChar: five
Encoding: 53 53 20
Width: 820
VWidth: 1894
Flags: W
HStem: -70 54<331.347 509.871> -28 144<92.4438 180.404> 884 20G<309 427> 1252 94<220 249.875> 1300 58<338 669.494> 1356 20G<701 778>
VStem: 56 126<9.2959 89.4131> 708 48<309.539 633.171>
LayerCount: 2
Fore
SplineSet
682 1188 m 1,0,-1
 666 1232 l 1,1,-1
 666 1238 l 1,2,-1
 670 1300 l 1,3,-1
 338 1300 l 1,4,-1
 310 1170 l 1,5,6
 288 1052 288 1052 288 980 c 2,7,-1
 288 880 l 1,8,-1
 414 904 l 1,9,10
 440 902 440 902 505 883 c 128,-1,11
 570 864 570 864 606 837 c 128,-1,12
 642 810 642 810 684 748 c 128,-1,13
 726 686 726 686 741 644 c 128,-1,14
 756 602 756 602 756 458 c 128,-1,15
 756 314 756 314 707 169 c 128,-1,16
 658 24 658 24 552 -48 c 0,17,18
 530 -64 530 -64 507 -67 c 128,-1,19
 484 -70 484 -70 400 -70 c 128,-1,20
 316 -70 316 -70 287 -67 c 128,-1,21
 258 -64 258 -64 234 -46 c 128,-1,22
 210 -28 210 -28 173 -28 c 128,-1,23
 136 -28 136 -28 100 -50 c 1,24,-1
 98 -50 l 1,25,26
 84 -60 84 -60 78 -64 c 1,27,-1
 68 -54 l 1,28,-1
 66 -54 l 1,29,30
 56 -42 56 -42 56 1 c 128,-1,31
 56 44 56 44 91 80 c 128,-1,32
 126 116 126 116 151 116 c 128,-1,33
 176 116 176 116 180 113 c 128,-1,34
 184 110 184 110 183 99 c 128,-1,35
 182 88 182 88 182 70 c 128,-1,36
 182 52 182 52 197 34 c 128,-1,37
 212 16 212 16 252 -6 c 128,-1,38
 292 -28 292 -28 306 -33 c 128,-1,39
 320 -38 320 -38 331 -38 c 128,-1,40
 342 -38 342 -38 368 -27 c 128,-1,41
 394 -16 394 -16 432 -16 c 128,-1,42
 470 -16 470 -16 498 2 c 128,-1,43
 526 20 526 20 572 72 c 128,-1,44
 618 124 618 124 644 181 c 128,-1,45
 670 238 670 238 689 333 c 128,-1,46
 708 428 708 428 708 463 c 128,-1,47
 708 498 708 498 703 563 c 128,-1,48
 698 628 698 628 640 712 c 1,49,50
 580 794 580 794 519 814 c 128,-1,51
 458 834 458 834 426 834 c 2,52,-1
 418 834 l 1,53,54
 382 832 382 832 314 750 c 1,55,56
 264 700 264 700 240 686 c 1,57,-1
 236 686 l 1,58,-1
 224 706 l 1,59,-1
 216 766 l 1,60,61
 220 804 220 804 234 972 c 128,-1,62
 248 1140 248 1140 251 1163 c 128,-1,63
 254 1186 254 1186 254 1199 c 128,-1,64
 254 1212 254 1212 250 1222 c 1,65,-1
 250 1224 l 1,66,67
 246 1230 246 1230 243 1234 c 128,-1,68
 240 1238 240 1238 237 1241 c 128,-1,69
 234 1244 234 1244 228 1248 c 0,70,71
 224 1252 224 1252 220 1252 c 2,72,-1
 196 1260 l 2,73,74
 176 1268 176 1268 176 1291 c 128,-1,75
 176 1314 176 1314 187 1325 c 128,-1,76
 198 1336 198 1336 244 1346 c 128,-1,77
 290 1356 290 1356 467 1358 c 128,-1,78
 644 1360 644 1360 668 1367 c 128,-1,79
 692 1374 692 1374 710 1376 c 1,80,-1
 778 1370 l 1,81,82
 778 1346 778 1346 752 1257 c 128,-1,83
 726 1168 726 1168 694 1166 c 1,84,85
 688 1172 688 1172 682 1186 c 1,86,-1
 682 1188 l 1,0,-1
EndSplineSet
Validated: 1
EndChar

StartChar: six
Encoding: 54 54 21
Width: 884
VWidth: 1894
Flags: W
HStem: -88 50<293.839 538.097> 880 48<392.865 595.973> 1350 96<467.465 608.687>
VStem: 58 58<124.791 480> 746 76<212.656 596>
LayerCount: 2
Fore
SplineSet
564 1446 m 128,-1,1
 602 1446 602 1446 627 1393 c 128,-1,2
 652 1340 652 1340 652 1311 c 128,-1,3
 652 1282 652 1282 650 1272 c 1,4,5
 634 1282 634 1282 597 1316 c 128,-1,6
 560 1350 560 1350 535 1350 c 128,-1,7
 510 1350 510 1350 450 1288 c 128,-1,8
 390 1226 390 1226 349 1163 c 128,-1,9
 308 1100 308 1100 234 947 c 128,-1,10
 160 794 160 794 160 772 c 128,-1,11
 160 750 160 750 150 741 c 128,-1,12
 140 732 140 732 144 708 c 128,-1,13
 148 684 148 684 176 684 c 128,-1,14
 204 684 204 684 222 727 c 128,-1,15
 240 770 240 770 279 818 c 128,-1,16
 318 866 318 866 324 892 c 128,-1,17
 330 918 330 918 351 923 c 128,-1,18
 372 928 372 928 476 928 c 128,-1,19
 580 928 580 928 623 904 c 128,-1,20
 666 880 666 880 738 745 c 128,-1,21
 810 610 810 610 816 559 c 128,-1,22
 822 508 822 508 822 454 c 128,-1,23
 822 400 822 400 792 249 c 128,-1,24
 762 98 762 98 727 37 c 128,-1,25
 692 -24 692 -24 578 -56 c 128,-1,26
 464 -88 464 -88 417 -88 c 128,-1,27
 370 -88 370 -88 308 -68 c 1,28,29
 156 -26 156 -26 90 76 c 0,30,31
 70 108 70 108 64 154 c 128,-1,32
 58 200 58 200 58 460 c 128,-1,33
 58 720 58 720 114 830 c 1,34,35
 132 872 132 872 183 1006 c 128,-1,36
 234 1140 234 1140 273 1177 c 128,-1,37
 312 1214 312 1214 354 1281 c 128,-1,38
 396 1348 396 1348 461 1397 c 128,-1,0
 526 1446 526 1446 564 1446 c 128,-1,1
690 706 m 1,39,40
 638 818 638 818 605 849 c 128,-1,41
 572 880 572 880 497 880 c 128,-1,42
 422 880 422 880 391 855 c 128,-1,43
 360 830 360 830 311 768 c 128,-1,44
 262 706 262 706 222 630 c 128,-1,45
 182 554 182 554 152 522 c 2,46,-1
 110 480 l 1,47,-1
 116 328 l 1,48,49
 118 180 118 180 142 130 c 0,50,51
 222 -38 222 -38 400 -38 c 0,52,53
 442 -38 442 -38 500 -24 c 128,-1,54
 558 -10 558 -10 592 8 c 128,-1,55
 626 26 626 26 673 77 c 128,-1,56
 720 128 720 128 733 186 c 128,-1,57
 746 244 746 244 746 408 c 2,58,-1
 746 596 l 1,59,-1
 690 706 l 1,39,40
EndSplineSet
Validated: 1
EndChar

StartChar: seven
Encoding: 55 55 22
Width: 788
VWidth: 1894
Flags: W
HStem: 1350 54<166.224 614>
VStem: 52 74<1038.65 1318> 664 84<1002.53 1328.98>
LayerCount: 2
Fore
SplineSet
708 1008 m 128,-1,1
 668 852 668 852 627 778 c 128,-1,2
 586 704 586 704 586 666 c 128,-1,3
 586 628 586 628 616 608 c 1,4,5
 612 600 612 600 590 600 c 0,6,7
 582 600 582 600 570 602 c 0,8,9
 556 604 556 604 546 604 c 0,10,11
 524 604 524 604 512 598 c 0,12,13
 494 590 494 590 469 547 c 128,-1,14
 444 504 444 504 421 466 c 128,-1,15
 398 428 398 428 346 328 c 128,-1,16
 294 228 294 228 268 172 c 128,-1,17
 242 116 242 116 242 73 c 128,-1,18
 242 30 242 30 250 10 c 128,-1,19
 258 -10 258 -10 282 -17 c 128,-1,20
 306 -24 306 -24 321 -43 c 128,-1,21
 336 -62 336 -62 336 -72 c 128,-1,22
 336 -82 336 -82 321 -88 c 128,-1,23
 306 -94 306 -94 231 -99 c 128,-1,24
 156 -104 156 -104 129 -104 c 128,-1,25
 102 -104 102 -104 92 -99 c 128,-1,26
 82 -94 82 -94 82 -76 c 128,-1,27
 82 -58 82 -58 110 -38 c 128,-1,28
 138 -18 138 -18 153 14 c 128,-1,29
 168 46 168 46 195 133 c 128,-1,30
 222 220 222 220 260 292 c 128,-1,31
 298 364 298 364 366 486 c 1,32,-1
 368 488 l 1,33,34
 376 504 376 504 376 518 c 0,35,36
 376 536 376 536 360 552 c 0,37,38
 332 576 332 576 324 600 c 0,39,40
 322 608 322 608 320 616 c 1,41,42
 320 628 320 628 328 642 c 0,43,44
 340 662 340 662 402 662 c 128,-1,45
 464 662 464 662 488 688 c 128,-1,46
 512 714 512 714 558 795 c 128,-1,47
 604 876 604 876 619 915 c 128,-1,48
 634 954 634 954 648 1032 c 0,49,50
 664 1110 664 1110 664 1175 c 128,-1,51
 664 1240 664 1240 640 1294 c 1,52,-1
 614 1346 l 1,53,-1
 316 1350 l 2,54,55
 232 1350 232 1350 194 1338 c 2,56,-1
 132 1318 l 1,57,-1
 126 1170 l 2,58,59
 122 1058 122 1058 112 1038 c 1,60,61
 102 1028 102 1028 90 1026 c 1,62,63
 80 1038 80 1038 66 1093 c 128,-1,64
 52 1148 52 1148 52 1241 c 128,-1,65
 52 1334 52 1334 61 1354 c 128,-1,66
 70 1374 70 1374 130 1390 c 0,67,68
 184 1404 184 1404 246 1404 c 0,69,70
 254 1404 254 1404 262 1404 c 2,71,-1
 408 1398 l 1,72,-1
 518 1404 l 1,73,74
 686 1404 686 1404 717 1389 c 128,-1,75
 748 1374 748 1374 748 1269 c 128,-1,0
 748 1164 748 1164 708 1008 c 128,-1,1
EndSplineSet
Validated: 1
EndChar

StartChar: eight
Encoding: 56 56 23
Width: 932
VWidth: 1894
Flags: W
HStem: -51 57<356.207 587.055> 796 120<441.351 535.686> 1362 40<366.023 554>
VStem: 56 86<198.651 395.6> 148 64<1031.23 1137.49> 654 50<1103.8 1300.34> 816 54<371.641 592.779>
LayerCount: 2
Fore
SplineSet
566 796 m 128,-1,1
 520 796 520 796 492 777 c 128,-1,2
 464 758 464 758 400 736 c 0,3,4
 276 692 276 692 184 536 c 0,5,6
 148 476 148 476 142 354 c 1,7,-1
 142 340 l 2,8,9
 142 224 142 224 206 130 c 1,10,-1
 208 130 l 1,11,-1
 208 128 l 1,12,13
 264 58 264 58 319 32 c 128,-1,14
 374 6 374 6 458 6 c 128,-1,15
 542 6 542 6 584 32 c 0,16,17
 682 88 682 88 749 259 c 128,-1,18
 816 430 816 430 816 490 c 2,19,-1
 816 494 l 2,20,21
 816 556 816 556 763 648 c 128,-1,22
 710 740 710 740 661 768 c 128,-1,0
 612 796 612 796 566 796 c 128,-1,1
654 1214 m 2,23,24
 654 1360 654 1360 462 1362 c 0,25,26
 408 1362 408 1362 379 1350 c 128,-1,27
 350 1338 350 1338 282 1273 c 128,-1,28
 214 1208 214 1208 212 1136 c 1,29,-1
 212 1132 l 2,30,31
 212 1062 212 1062 262 1009 c 128,-1,32
 312 956 312 956 340 952 c 1,33,34
 492 916 492 916 509 916 c 128,-1,35
 526 916 526 916 536 923 c 128,-1,36
 546 930 546 930 559 953 c 128,-1,37
 572 976 572 976 578 988 c 128,-1,38
 584 1000 584 1000 618 1076 c 128,-1,39
 652 1152 652 1152 654 1208 c 1,40,-1
 654 1214 l 2,23,24
612 1372 m 1,41,42
 652 1354 652 1354 678 1320 c 128,-1,43
 704 1286 704 1286 704 1231 c 128,-1,44
 704 1176 704 1176 687 1114 c 128,-1,45
 670 1052 670 1052 641 1001 c 128,-1,46
 612 950 612 950 612 934 c 2,47,-1
 612 916 l 1,48,-1
 614 910 l 2,49,50
 622 892 622 892 712 814 c 1,51,52
 870 682 870 682 870 478 c 1,53,-1
 860 320 l 1,54,55
 850 282 850 282 821 222 c 128,-1,56
 792 162 792 162 726 84 c 128,-1,57
 660 6 660 6 624 -21 c 128,-1,58
 588 -48 588 -48 561 -50 c 128,-1,59
 534 -52 534 -52 502 -51 c 128,-1,60
 470 -50 470 -50 388 -31 c 128,-1,61
 306 -12 306 -12 250 22 c 128,-1,62
 194 56 194 56 125 157 c 128,-1,63
 56 258 56 258 56 306 c 1,64,-1
 80 456 l 1,65,66
 98 536 98 536 113 553 c 128,-1,67
 128 570 128 570 177 648 c 128,-1,68
 226 726 226 726 259 751 c 128,-1,69
 292 776 292 776 302 786 c 128,-1,70
 312 796 312 796 320 810 c 128,-1,71
 328 824 328 824 328 843 c 128,-1,72
 328 862 328 862 310 880 c 0,73,74
 290 898 290 898 261 915 c 128,-1,75
 232 932 232 932 226 936 c 0,76,77
 148 984 148 984 148 1020 c 2,78,-1
 148 1022 l 1,79,80
 150 1070 150 1070 206 1208 c 128,-1,81
 262 1346 262 1346 328 1366 c 1,82,-1
 336 1368 l 1,83,-1
 340 1376 l 1,84,85
 368 1398 368 1398 554 1402 c 1,86,-1
 612 1372 l 1,41,42
EndSplineSet
Validated: 1
EndChar

StartChar: nine
Encoding: 57 57 24
Width: 862
VWidth: 1894
Flags: W
HStem: -76 66<289.787 561.766> 398 76<367.581 530.154> 1308 38<308 433.467>
VStem: 694 70<194.792 398> 704 80<644.25 1208.79>
LayerCount: 2
Fore
SplineSet
694 342 m 1,0,-1
 688 398 l 1,1,-1
 672 432 l 1,2,-1
 648 436 l 1,3,4
 626 436 626 436 592 416 c 128,-1,5
 558 396 558 396 531 396 c 128,-1,6
 504 396 504 396 468 398 c 128,-1,7
 432 400 432 400 382 426 c 0,8,9
 244 498 244 498 164 613 c 128,-1,10
 84 728 84 728 76 748 c 1,11,-1
 64 796 l 1,12,13
 64 808 64 808 68 826 c 128,-1,14
 72 844 72 844 88 936 c 128,-1,15
 104 1028 104 1028 117 1068 c 128,-1,16
 130 1108 130 1108 142 1162 c 1,17,-1
 142 1164 l 1,18,19
 154 1256 154 1256 244 1322 c 0,20,21
 264 1336 264 1336 280 1344 c 1,22,-1
 322 1350 l 1,23,24
 344 1346 344 1346 368 1346 c 128,-1,25
 392 1346 392 1346 425 1361 c 128,-1,26
 458 1376 458 1376 496 1376 c 128,-1,27
 534 1376 534 1376 608 1344 c 128,-1,28
 682 1312 682 1312 732 1231 c 128,-1,29
 782 1150 782 1150 790 1098 c 1,30,-1
 784 846 l 1,31,32
 768 650 768 650 760 618 c 1,33,-1
 750 524 l 1,34,35
 750 486 750 486 756 434 c 0,36,37
 764 382 764 382 764 336 c 0,38,39
 764 332 764 332 764 328 c 0,40,41
 764 288 764 288 754 248 c 0,42,43
 744 204 744 204 694 111 c 128,-1,44
 644 18 644 18 622 -29 c 128,-1,45
 600 -76 600 -76 490 -76 c 2,46,-1
 482 -76 l 1,47,48
 362 -74 362 -74 263 -34 c 128,-1,49
 164 6 164 6 142 29 c 128,-1,50
 120 52 120 52 98 106 c 1,51,-1
 98 108 l 1,52,-1
 96 112 l 1,53,-1
 94 124 l 1,54,55
 102 124 102 124 123 122 c 128,-1,56
 144 120 144 120 168 102 c 0,57,58
 304 -10 304 -10 414 -10 c 2,59,-1
 424 -10 l 2,60,61
 524 -10 524 -10 563 13 c 128,-1,62
 602 36 602 36 648 161 c 128,-1,63
 694 286 694 286 694 342 c 1,0,-1
636 1248 m 128,-1,65
 618 1256 618 1256 584 1256 c 128,-1,66
 550 1256 550 1256 508 1284 c 0,67,68
 470 1308 470 1308 410 1308 c 2,69,70
 410 1308 410 1308 400 1308 c 1,71,-1
 390 1308 l 1,72,-1
 308 1308 l 1,73,-1
 250 1234 l 2,74,75
 196 1166 196 1166 176 1108 c 0,76,77
 156 1052 156 1052 148 984 c 1,78,-1
 140 830 l 1,79,80
 148 776 148 776 160 746 c 128,-1,81
 172 716 172 716 212 656 c 0,82,83
 336 474 336 474 472 474 c 1,84,-1
 578 480 l 1,85,-1
 620 550 l 2,86,87
 690 666 690 666 704 830 c 1,88,-1
 716 1110 l 1,89,90
 706 1168 706 1168 680 1204 c 128,-1,64
 654 1240 654 1240 636 1248 c 128,-1,65
EndSplineSet
Validated: 1
EndChar

StartChar: less
Encoding: 60 60 27
Width: 918
VWidth: 1894
Flags: W
VStem: 156 118<514.914 590>
LayerCount: 2
Fore
SplineSet
750 1166 m 1,0,-1
 754 1166 l 1,1,2
 778 1174 778 1174 788 1178 c 1,3,4
 790 1174 790 1174 793 1160 c 128,-1,5
 796 1146 796 1146 796 1133 c 128,-1,6
 796 1120 796 1120 788 1102 c 128,-1,7
 780 1084 780 1084 658 991 c 128,-1,8
 536 898 536 898 493 841 c 128,-1,9
 450 784 450 784 424 764 c 128,-1,10
 398 744 398 744 341 684 c 128,-1,11
 284 624 284 624 278 590 c 1,12,-1
 274 590 l 1,13,-1
 274 564 l 2,14,15
 274 538 274 538 318 485 c 128,-1,16
 362 432 362 432 404 401 c 128,-1,17
 446 370 446 370 500 306 c 1,18,19
 562 242 562 242 576 235 c 128,-1,20
 590 228 590 228 632 181 c 128,-1,21
 674 134 674 134 686 126 c 128,-1,22
 698 118 698 118 743 75 c 128,-1,23
 788 32 788 32 796 22 c 1,24,-1
 794 -12 l 2,25,26
 792 -20 792 -20 774 -36 c 128,-1,27
 756 -52 756 -52 748 -56 c 1,28,-1
 746 -56 l 1,29,30
 738 -48 738 -48 725 -16 c 128,-1,31
 712 16 712 16 634 99 c 128,-1,32
 556 182 556 182 508 223 c 128,-1,33
 460 264 460 264 338 388 c 1,34,35
 198 512 198 512 177 540 c 128,-1,36
 156 568 156 568 156 586 c 1,37,-1
 160 600 l 1,38,-1
 160 602 l 1,39,40
 168 632 168 632 192 648 c 1,41,-1
 228 664 l 1,42,43
 236 664 236 664 246 668 c 128,-1,44
 256 672 256 672 271 685 c 128,-1,45
 286 698 286 698 298 708 c 128,-1,46
 310 718 310 718 335 742 c 128,-1,47
 360 766 360 766 378 782 c 1,48,49
 476 894 476 894 588 1030 c 1,50,51
 718 1160 718 1160 750 1166 c 1,0,-1
EndSplineSet
Validated: 1
EndChar

StartChar: equal
Encoding: 61 61 28
Width: 1178
VWidth: 1894
Flags: W
HStem: 380 90<177.021 1030.95> 389 57<328 1039.62> 402 59<176 575.875> 722 90<169.021 1022.95> 730 58<320 1034.69> 742 62<168 567.875>
LayerCount: 2
Fore
SplineSet
764 380 m 2,0,-1
 484 380 l 2,1,2
 448 380 448 380 328 389 c 128,-1,3
 208 398 208 398 176 402 c 1,4,-1
 148 434 l 1,5,6
 148 452 148 452 162 461 c 128,-1,7
 176 470 176 470 212 470 c 2,8,-1
 668 456 l 1,9,10
 970 452 970 452 999 446 c 128,-1,11
 1028 440 1028 440 1040 438 c 1,12,13
 1042 430 1042 430 1041 413 c 128,-1,14
 1040 396 1040 396 1032 390 c 1,15,16
 1000 380 1000 380 764 380 c 2,0,-1
756 722 m 2,17,-1
 476 722 l 2,18,19
 440 722 440 722 320 730 c 128,-1,20
 200 738 200 738 168 742 c 1,21,-1
 140 778 l 1,22,23
 140 796 140 796 154 804 c 128,-1,24
 168 812 168 812 204 812 c 2,25,-1
 664 798 l 1,26,27
 966 794 966 794 995 788 c 128,-1,28
 1024 782 1024 782 1032 780 c 1,29,30
 1034 772 1034 772 1035 755 c 128,-1,31
 1036 738 1036 738 1024 732 c 1,32,33
 992 722 992 722 756 722 c 2,17,-1
EndSplineSet
Validated: 1
EndChar

StartChar: greater
Encoding: 62 62 29
Width: 880
VWidth: 1894
Flags: W
VStem: 604 128<546 647.713>
LayerCount: 2
Fore
SplineSet
144 1098 m 1,0,-1
 152 1120 l 1,1,-1
 152 1122 l 1,2,-1
 176 1130 l 1,3,4
 196 1130 196 1130 254 1062 c 128,-1,5
 312 994 312 994 394 915 c 128,-1,6
 476 836 476 836 518 809 c 128,-1,7
 560 782 560 782 608 724 c 128,-1,8
 656 666 656 666 696 644 c 128,-1,9
 736 622 736 622 736 606 c 2,10,-1
 732 564 l 1,11,12
 718 536 718 536 541 331 c 128,-1,13
 364 126 364 126 188 -98 c 1,14,15
 174 -112 174 -112 161 -113 c 128,-1,16
 148 -114 148 -114 140 -115 c 128,-1,17
 132 -116 132 -116 132 -114 c 2,18,-1
 128 -86 l 1,19,20
 128 -54 128 -54 148 -28 c 1,21,-1
 148 -26 l 1,22,23
 172 10 172 10 378 253 c 128,-1,24
 584 496 584 496 600 546 c 1,25,-1
 604 582 l 1,26,27
 600 588 600 588 600 592 c 0,28,29
 600 632 600 632 520 712 c 1,30,31
 282 930 282 930 217 999 c 128,-1,32
 152 1068 152 1068 144 1090 c 1,33,-1
 144 1098 l 1,0,-1
EndSplineSet
Validated: 1
EndChar

StartChar: question
Encoding: 63 63 30
Width: 874
Flags: W
HStem: -15 53<388.222 455.406> 326 59<405 501.455> 1330 52<307.972 531.607>
VStem: 138 86<805.481 1160.09> 175 49<805 880.048> 282 60<411.035 567.426> 307 74<46.4047 133.299> 475 46<54.5956 137.715> 689 46<904.97 1109.32>
LayerCount: 2
Fore
SplineSet
182 1103 m 1,0,1
 186 1074 186 1074 197 978 c 0,2,3
 208 882 208 882 216 862 c 0,4,5
 225 842 225 842 224 837 c 2,6,-1
 224 831 l 1,7,8
 220 804 220 804 191 798 c 1,9,-1
 175 805 l 1,10,11
 163 820 163 820 150 884 c 0,12,13
 138 944 138 944 138 977 c 0,14,15
 138 979 138 979 138 982 c 0,16,17
 138 1015 138 1015 143 1053 c 0,18,19
 146 1091 146 1091 150 1158 c 0,20,21
 154 1225 154 1225 220 1304 c 0,22,23
 285 1382 285 1382 417 1382 c 0,24,25
 418 1382 418 1382 420 1382 c 0,26,27
 421 1382 421 1382 423 1382 c 2,28,-1
 428 1382 l 2,29,30
 523 1382 523 1382 617 1298 c 1,31,32
 735 1179 735 1179 735 1007 c 2,33,-1
 735 971 l 1,34,35
 719 754 719 754 428 610 c 1,36,-1
 342 574 l 1,37,-1
 342 474 l 2,38,39
 342 442 342 442 366 417 c 0,40,41
 389 392 389 392 420 385 c 1,42,-1
 423 385 l 2,43,44
 451 385 451 385 477 397 c 0,45,46
 503 408 503 408 508 408 c 2,47,-1
 509 408 l 2,48,49
 520 408 520 408 519 400 c 2,50,-1
 519 384 l 2,51,52
 519 378 519 378 502 352 c 0,53,54
 485 326 485 326 413 326 c 2,55,-1
 405 326 l 1,56,-1
 401 324 l 1,57,-1
 397 324 l 1,58,59
 379 331 379 331 297 392 c 1,60,61
 282 419 282 419 282 450 c 2,62,-1
 282 486 l 2,63,64
 282 550 282 550 293 568 c 0,65,66
 304 587 304 587 340 614 c 0,67,68
 376 641 376 641 420 653 c 0,69,70
 464 664 464 664 586 783 c 1,71,-1
 590 783 l 1,72,73
 689 897 689 897 689 1004 c 2,74,-1
 689 1024 l 2,75,76
 689 1025 689 1025 689 1035 c 0,77,78
 689 1045 689 1045 656 1140 c 0,79,80
 622 1234 622 1234 568 1282 c 0,81,82
 515 1330 515 1330 468 1330 c 2,83,-1
 451 1330 l 2,84,85
 350 1330 350 1330 305 1303 c 0,86,87
 260 1276 260 1276 186 1161 c 1,88,-1
 182 1103 l 1,0,1
EndSplineSet
Refer: 13 46 N 1 0 0 1 167 6 2
Validated: 1
EndChar

StartChar: at
Encoding: 64 64 31
Width: 1404
VWidth: 1894
Flags: W
HStem: 244 70<559.589 699.52 1005.5 1150> 954 65<591.692 819> 1460 30<551.571 688.145>
VStem: 82 56<323.162 771.898> 394 60<444.107 775.337> 912 64<406 792.752> 1296 54<607.112 1016.29>
LayerCount: 2
Fore
SplineSet
894 366 m 1,0,-1
 890 366 l 2,1,2
 868 366 868 366 817 306 c 128,-1,3
 766 246 766 246 710 246 c 1,4,5
 706 244 706 244 674 244 c 0,6,7
 672 244 672 244 670 244 c 0,8,9
 636 244 636 244 584 262 c 0,10,11
 528 280 528 280 504 298 c 128,-1,12
 480 316 480 316 437 401 c 128,-1,13
 394 486 394 486 394 630 c 0,14,15
 394 886 394 886 590 990 c 0,16,17
 644 1018 644 1018 717 1019 c 128,-1,18
 790 1020 790 1020 819 1024 c 128,-1,19
 848 1028 848 1028 870 1046 c 128,-1,20
 892 1064 892 1064 900 1064 c 0,21,22
 902 1064 902 1064 904 1066 c 0,23,24
 912 1068 912 1068 920 1060 c 0,25,26
 930 1052 930 1052 939 1013 c 128,-1,27
 948 974 948 974 952 843 c 128,-1,28
 956 712 956 712 966 653 c 128,-1,29
 976 594 976 594 976 557 c 128,-1,30
 976 520 976 520 974 490 c 128,-1,31
 972 460 972 460 972 431 c 128,-1,32
 972 402 972 402 1003 352 c 128,-1,33
 1034 302 1034 302 1069 302 c 128,-1,34
 1104 302 1104 302 1163 360 c 128,-1,35
 1222 418 1222 418 1240 474 c 128,-1,36
 1258 530 1258 530 1277 645 c 128,-1,37
 1296 760 1296 760 1296 854 c 128,-1,38
 1296 948 1296 948 1270 1015 c 128,-1,39
 1244 1082 1244 1082 1206 1124 c 128,-1,40
 1168 1166 1168 1166 1158 1176 c 128,-1,41
 1148 1186 1148 1186 1144 1191 c 128,-1,42
 1140 1196 1140 1196 1132 1204 c 2,43,-1
 1086 1240 l 1,44,45
 1082 1240 1082 1240 1068 1246 c 128,-1,46
 1054 1252 1054 1252 949 1328 c 128,-1,47
 844 1404 844 1404 740 1432 c 128,-1,48
 636 1460 636 1460 616 1460 c 2,49,-1
 614 1460 l 2,50,51
 592 1460 592 1460 536 1440 c 128,-1,52
 480 1420 480 1420 429 1368 c 128,-1,53
 378 1316 378 1316 318 1201 c 128,-1,54
 258 1086 258 1086 238 1016 c 128,-1,55
 218 946 218 946 201 890 c 128,-1,56
 184 834 184 834 174 803 c 128,-1,57
 164 772 164 772 151 707 c 128,-1,58
 138 642 138 642 138 538 c 128,-1,59
 138 434 138 434 142 400 c 128,-1,60
 146 366 146 366 175 302 c 128,-1,61
 204 238 204 238 207 220 c 128,-1,62
 210 202 210 202 265 135 c 128,-1,63
 320 68 320 68 400 2 c 128,-1,64
 480 -64 480 -64 559 -100 c 128,-1,65
 638 -136 638 -136 736 -144 c 128,-1,66
 834 -152 834 -152 848 -157 c 128,-1,67
 862 -162 862 -162 880 -162 c 128,-1,68
 898 -162 898 -162 953 -146 c 128,-1,69
 1008 -130 1008 -130 1064 -96 c 1,70,71
 1188 -28 1188 -28 1268 146 c 1,72,73
 1314 236 1314 236 1329 256 c 128,-1,74
 1344 276 1344 276 1356 278 c 1,75,-1
 1362 276 l 1,76,77
 1364 260 1364 260 1364 216 c 128,-1,78
 1364 172 1364 172 1291 57 c 128,-1,79
 1218 -58 1218 -58 1130 -120 c 1,80,-1
 1066 -168 l 1,81,-1
 808 -236 l 1,82,-1
 550 -162 l 1,83,-1
 478 -122 l 1,84,85
 398 -80 398 -80 301 8 c 128,-1,86
 204 96 204 96 178 148 c 0,87,88
 114 286 114 286 98 343 c 128,-1,89
 82 400 82 400 82 576 c 128,-1,90
 82 752 82 752 138 916 c 0,91,92
 144 934 144 934 179 1029 c 128,-1,93
 214 1124 214 1124 235 1163 c 128,-1,94
 256 1202 256 1202 285 1259 c 128,-1,95
 314 1316 314 1316 362 1377 c 128,-1,96
 410 1438 410 1438 456 1464 c 128,-1,97
 502 1490 502 1490 605 1490 c 128,-1,98
 708 1490 708 1490 745 1481 c 128,-1,99
 782 1472 782 1472 951 1378 c 128,-1,100
 1120 1284 1120 1284 1228 1158 c 0,101,102
 1280 1100 1280 1100 1315 1045 c 128,-1,103
 1350 990 1350 990 1350 867 c 128,-1,104
 1350 744 1350 744 1326 622 c 128,-1,105
 1302 500 1302 500 1284 445 c 128,-1,106
 1266 390 1266 390 1232 346 c 0,107,108
 1148 232 1148 232 1072 232 c 0,109,110
 1070 232 1070 232 1068 230 c 1,111,112
 996 230 996 230 962 286 c 0,113,114
 960 290 960 290 952 303 c 128,-1,115
 944 316 944 316 942 320 c 128,-1,116
 940 324 940 324 933 333 c 128,-1,117
 926 342 926 342 923 346 c 128,-1,118
 920 350 920 350 914 355 c 128,-1,119
 908 360 908 360 903 362 c 128,-1,120
 898 364 898 364 894 366 c 1,0,-1
617 944 m 128,-1,122
 598 934 598 934 526 846 c 128,-1,123
 454 758 454 758 454 614 c 128,-1,124
 454 470 454 470 513 392 c 128,-1,125
 572 314 572 314 682 314 c 1,126,-1
 742 322 l 1,127,128
 766 330 766 330 796 363 c 128,-1,129
 826 396 826 396 841 399 c 128,-1,130
 856 402 856 402 869 404 c 128,-1,131
 882 406 882 406 887 408 c 128,-1,132
 892 410 892 410 899 416 c 128,-1,133
 906 422 906 422 909 433 c 128,-1,134
 912 444 912 444 912 453 c 128,-1,135
 912 462 912 462 908 499 c 128,-1,136
 904 536 904 536 894 670 c 128,-1,137
 884 804 884 804 866 850 c 0,138,139
 830 952 830 952 690 954 c 0,140,121
 636 954 636 954 617 944 c 128,-1,122
EndSplineSet
Validated: 1
EndChar

StartChar: A
Encoding: 65 65 32
Width: 1042
VWidth: 1894
Flags: W
HStem: 572 62<304.625 754.907> 1320 79<406.698 638>
VStem: 172 74<624 931.744> 806 80<96 551.755> 806 58<341.945 545.328 681.077 868 869.253 1068.53>
LayerCount: 2
Fore
SplineSet
676 16 m 1,0,-1
 688 50 l 1,1,2
 704 68 704 68 740 77 c 128,-1,3
 776 86 776 86 786 99 c 128,-1,4
 796 112 796 112 799 118 c 128,-1,5
 802 124 802 124 803 128 c 128,-1,6
 804 132 804 132 805 142 c 128,-1,7
 806 152 806 152 806 156 c 2,8,-1
 800 400 l 1,9,-1
 796 524 l 1,10,11
 790 542 790 542 756 557 c 128,-1,12
 722 572 722 572 563 572 c 128,-1,13
 404 572 404 572 337 553 c 128,-1,14
 270 534 270 534 253 502 c 128,-1,15
 236 470 236 470 224 346 c 1,16,-1
 210 124 l 1,17,18
 216 62 216 62 294 46 c 0,19,20
 306 44 306 44 314 40 c 1,21,22
 312 34 312 34 307 20 c 128,-1,23
 302 6 302 6 272 -1 c 128,-1,24
 242 -8 242 -8 171 -8 c 128,-1,25
 100 -8 100 -8 78 -2 c 128,-1,26
 56 4 56 4 56 15 c 128,-1,27
 56 26 56 26 92 56 c 128,-1,28
 128 86 128 86 128 124 c 1,29,-1
 164 460 l 1,30,31
 172 560 172 560 172 604 c 2,32,-1
 172 680 l 2,33,34
 172 748 172 748 206 921 c 128,-1,35
 240 1094 240 1094 294 1197 c 128,-1,36
 348 1300 348 1300 379 1338 c 128,-1,37
 410 1376 410 1376 447 1388 c 128,-1,38
 484 1400 484 1400 504 1399 c 128,-1,39
 524 1398 524 1398 558 1396 c 0,40,41
 772 1376 772 1376 844 1080 c 0,42,43
 860 1008 860 1008 864 960 c 0,44,45
 868 908 868 908 868 868 c 1,46,-1
 864 802 l 1,47,-1
 886 96 l 1,48,-1
 972 20 l 1,49,-1
 966 -12 l 1,50,-1
 686 2 l 1,51,52
 676 6 676 6 676 16 c 1,0,-1
246 728 m 2,53,-1
 246 624 l 1,54,-1
 514 644 l 1,55,56
 582 644 582 644 627 639 c 128,-1,57
 672 634 672 634 699 634 c 128,-1,58
 726 634 726 634 764 660 c 1,59,-1
 806 692 l 1,60,-1
 792 920 l 2,61,62
 780 1096 780 1096 759 1148 c 128,-1,63
 738 1200 738 1200 692 1260 c 1,64,-1
 638 1320 l 1,65,-1
 544 1320 l 1,66,67
 452 1318 452 1318 426 1298 c 1,68,69
 364 1260 364 1260 305 1068 c 128,-1,70
 246 876 246 876 246 728 c 2,53,-1
EndSplineSet
Validated: 1
EndChar

StartChar: B
Encoding: 66 66 33
Width: 926
VWidth: 1894
Flags: W
HStem: -28 56<66.3745 234 306.259 533.903> 620 82<308.875 508.271> 1272 82<324.51 593.367>
VStem: 234 54<32.251 98 702 846.203> 236 72<576.24 588 1024.85 1204.89> 800 64<258.271 485.668>
LayerCount: 2
Fore
SplineSet
234 1332 m 128,-1,1
 320 1342 320 1342 333 1348 c 128,-1,2
 346 1354 346 1354 391 1354 c 128,-1,3
 436 1354 436 1354 522 1335 c 128,-1,4
 608 1316 608 1316 662 1277 c 128,-1,5
 716 1238 716 1238 755 1158 c 128,-1,6
 794 1078 794 1078 794 1024 c 128,-1,7
 794 970 794 970 756 890 c 128,-1,8
 718 810 718 810 700 795 c 128,-1,9
 682 780 682 780 674 774 c 2,10,11
 674 774 674 774 664 764 c 1,12,-1
 646 744 l 1,13,14
 648 740 648 740 644 732 c 0,15,16
 642 728 642 728 642 722 c 128,-1,17
 642 716 642 716 644 710 c 0,18,19
 648 696 648 696 686 672 c 1,20,-1
 728 640 l 1,21,-1
 730 638 l 1,22,23
 778 604 778 604 821 513 c 128,-1,24
 864 422 864 422 864 383 c 128,-1,25
 864 344 864 344 846 275 c 128,-1,26
 828 206 828 206 777 137 c 128,-1,27
 726 68 726 68 643 20 c 128,-1,28
 560 -28 560 -28 312 -28 c 1,29,-1
 100 -22 l 1,30,31
 72 -16 72 -16 66 -8 c 2,32,-1
 60 4 l 1,33,34
 62 10 62 10 66 16 c 1,35,36
 78 26 78 26 88 28 c 1,37,-1
 234 28 l 1,38,-1
 236 466 l 1,39,-1
 242 1018 l 2,40,41
 242 1096 242 1096 234 1158 c 2,42,-1
 220 1248 l 1,43,-1
 104 1236 l 2,44,45
 90 1236 90 1236 80 1246 c 1,46,-1
 80 1248 l 2,47,48
 80 1256 80 1256 88 1274 c 0,49,50
 98 1296 98 1296 123 1309 c 128,-1,0
 148 1322 148 1322 234 1332 c 128,-1,1
372 702 m 2,51,52
 430 702 430 702 472 722 c 128,-1,53
 514 742 514 742 569 788 c 128,-1,54
 624 834 624 834 650 862 c 128,-1,55
 676 890 676 890 698 932 c 2,56,-1
 734 1004 l 1,57,-1
 676 1188 l 1,58,-1
 674 1198 l 1,59,-1
 590 1244 l 1,60,61
 528 1284 528 1284 508 1284 c 0,62,63
 504 1284 504 1284 502 1286 c 1,64,65
 484 1286 484 1286 472 1280 c 0,66,67
 458 1272 458 1272 398 1272 c 0,68,69
 340 1272 340 1272 324 1252 c 0,70,71
 310 1234 310 1234 308 1210 c 0,72,73
 308 1208 308 1208 308 1206 c 0,74,75
 308 1180 308 1180 315 1150 c 128,-1,76
 322 1120 322 1120 322 1044 c 1,77,-1
 302 702 l 1,78,-1
 372 702 l 2,51,52
628 616 m 1,79,-1
 470 620 l 2,80,81
 408 620 408 620 364 606 c 2,82,-1
 308 588 l 1,83,-1
 294 98 l 1,84,-1
 288 74 l 1,85,86
 288 74 288 74 288 68 c 2,87,88
 288 60 288 60 292 52 c 0,89,90
 296 40 296 40 306 32 c 0,91,92
 314 28 314 28 360 28 c 2,93,94
 360 28 360 28 380 28 c 2,95,96
 444 28 444 28 574 66 c 0,97,98
 648 88 648 88 724 190 c 128,-1,99
 800 292 800 292 800 359 c 128,-1,100
 800 426 800 426 764 494 c 128,-1,101
 728 562 728 562 692 587 c 128,-1,102
 656 612 656 612 628 616 c 1,79,-1
EndSplineSet
Validated: 1
EndChar

StartChar: C
Encoding: 67 67 34
Width: 940
VWidth: 1894
Flags: W
HStem: -94 60<375.535 614.396> 1346 70<510.391 671.574>
VStem: 60 80<348.246 844.414> 710 146<1228.65 1316.1> 722 154<41.1328 161.009>
LayerCount: 2
Fore
SplineSet
864 16 m 0,0,1
 846 4 846 4 656 -70 c 0,2,3
 618 -84 618 -84 592 -88 c 0,4,5
 570 -92 570 -92 488 -94 c 0,6,7
 408 -94 408 -94 369 -79 c 128,-1,8
 330 -64 330 -64 262 4 c 1,9,10
 122 130 122 130 111 240 c 128,-1,11
 100 350 100 350 80 479 c 128,-1,12
 60 608 60 608 60 650 c 128,-1,13
 60 692 60 692 68 745 c 128,-1,14
 76 798 76 798 143 949 c 128,-1,15
 210 1100 210 1100 276 1183 c 128,-1,16
 342 1266 342 1266 427 1341 c 128,-1,17
 512 1416 512 1416 603 1416 c 128,-1,18
 694 1416 694 1416 718 1398 c 1,19,-1
 720 1396 l 1,20,21
 750 1378 750 1378 778 1378 c 2,22,-1
 808 1378 l 2,23,24
 814 1378 814 1378 820 1378 c 0,25,26
 844 1380 844 1380 852 1372 c 128,-1,27
 860 1364 860 1364 858 1344 c 0,28,29
 856 1336 856 1336 856 1328 c 0,30,31
 852 1296 852 1296 840 1276 c 0,32,33
 826 1256 826 1256 796 1200 c 0,34,35
 768 1148 768 1148 740 1128 c 2,36,37
 740 1128 740 1128 720 1114 c 1,38,-1
 692 1154 l 1,39,40
 692 1164 692 1164 704 1204 c 0,41,42
 710 1224 710 1224 710 1240 c 0,43,44
 710 1258 710 1258 702 1274 c 0,45,46
 688 1304 688 1304 652 1325 c 128,-1,47
 616 1346 616 1346 595 1346 c 128,-1,48
 574 1346 574 1346 554 1336 c 0,49,50
 450 1286 450 1286 378 1192 c 0,51,52
 298 1088 298 1088 270 1043 c 128,-1,53
 242 998 242 998 200 900 c 128,-1,54
 158 802 158 802 149 762 c 128,-1,55
 140 722 140 722 140 635 c 128,-1,56
 140 548 140 548 162 447 c 128,-1,57
 184 346 184 346 184 292 c 128,-1,58
 184 238 184 238 205 192 c 128,-1,59
 226 146 226 146 306 58 c 1,60,61
 380 -34 380 -34 480 -34 c 128,-1,62
 580 -34 580 -34 651 18 c 128,-1,63
 722 70 722 70 722 130 c 128,-1,64
 722 190 722 190 730 202 c 0,65,66
 736 210 736 210 758 210 c 128,-1,67
 780 210 780 210 814 179 c 128,-1,68
 848 148 848 148 862 110 c 128,-1,69
 876 72 876 72 876 61 c 128,-1,70
 876 50 876 50 872 36 c 0,71,72
 866 18 866 18 864 16 c 0,0,1
EndSplineSet
Validated: 1
EndChar

StartChar: D
Encoding: 68 68 35
Width: 1122
VWidth: 1894
Flags: W
HStem: 12 46<328 427.208> 1269 127<352 742.155>
VStem: 236 66<85 595.872> 236 50<412.128 832.189> 992 70<650.102 1007.65>
LayerCount: 2
Fore
SplineSet
112 1331 m 128,-1,1
 160 1360 160 1360 240 1378 c 128,-1,2
 320 1396 320 1396 458 1396 c 128,-1,3
 596 1396 596 1396 667 1378 c 128,-1,4
 738 1360 738 1360 808 1315 c 128,-1,5
 878 1270 878 1270 908 1225 c 128,-1,6
 938 1180 938 1180 986 1121 c 128,-1,7
 1034 1062 1034 1062 1048 1015 c 128,-1,8
 1062 968 1062 968 1062 920 c 2,9,-1
 1062 844 l 1,10,11
 1056 730 1056 730 1017 614 c 128,-1,12
 978 498 978 498 930 439 c 128,-1,13
 882 380 882 380 860 339 c 128,-1,14
 838 298 838 298 788 240 c 128,-1,15
 738 182 738 182 679 136 c 128,-1,16
 620 90 620 90 488 51 c 128,-1,17
 356 12 356 12 248 12 c 128,-1,18
 140 12 140 12 125 14 c 128,-1,19
 110 16 110 16 104 24 c 1,20,21
 106 32 106 32 113 40 c 128,-1,22
 120 48 120 48 165 61 c 128,-1,23
 210 74 210 74 222 120 c 1,24,25
 236 158 236 158 236 210 c 2,26,-1
 230 480 l 1,27,28
 230 602 230 602 236 812 c 1,29,-1
 248 1020 l 1,30,-1
 228 1238 l 1,31,32
 228 1238 228 1238 222 1250 c 2,33,34
 220 1254 220 1254 215 1258 c 128,-1,35
 210 1262 210 1262 203 1266 c 128,-1,36
 196 1270 196 1270 182 1269 c 128,-1,37
 168 1268 168 1268 142 1259 c 128,-1,38
 116 1250 116 1250 90 1251 c 128,-1,39
 64 1252 64 1252 64 1277 c 128,-1,0
 64 1302 64 1302 112 1331 c 128,-1,1
286 620 m 1,40,-1
 302 388 l 1,41,-1
 302 328 l 2,42,43
 302 234 302 234 314 166 c 1,44,-1
 328 58 l 1,45,-1
 384 58 l 2,46,47
 424 58 424 58 483 77 c 128,-1,48
 542 96 542 96 586 122 c 0,49,50
 672 170 672 170 824 394 c 1,51,52
 988 618 988 618 992 754 c 1,53,-1
 992 806 l 2,54,55
 992 900 992 900 977 960 c 128,-1,56
 962 1020 962 1020 878 1119 c 128,-1,57
 794 1218 794 1218 747 1245 c 128,-1,58
 700 1272 700 1272 662 1276 c 1,59,-1
 352 1284 l 1,60,-1
 342 1104 l 1,61,62
 332 962 332 962 310 828 c 128,-1,63
 288 694 288 694 286 620 c 1,40,-1
EndSplineSet
Validated: 1
EndChar

StartChar: E
Encoding: 69 69 36
Width: 998
VWidth: 1894
Flags: W
HStem: 114 54<397.779 671.566> 1314 46<466.045 668.913>
VStem: 214 78<242.768 544.005> 218 58<175.597 627.426 851.847 881.698>
LayerCount: 2
Fore
SplineSet
856 236 m 1,0,-1
 860 236 l 1,1,2
 860 236 860 236 864 226 c 2,3,4
 868 216 868 216 868 181 c 128,-1,5
 868 146 868 146 812 83 c 128,-1,6
 756 20 756 20 753 8 c 128,-1,7
 750 -4 750 -4 740 -7 c 128,-1,8
 730 -10 730 -10 720 -10 c 128,-1,9
 710 -10 710 -10 703 29 c 128,-1,10
 696 68 696 68 681 81 c 128,-1,11
 666 94 666 94 629 104 c 128,-1,12
 592 114 592 114 558 114 c 128,-1,13
 524 114 524 114 372 82 c 1,14,-1
 114 22 l 1,15,16
 96 22 96 22 88 20 c 1,17,18
 88 20 88 20 80 20 c 1,19,-1
 76 20 l 1,20,-1
 72 24 l 1,21,-1
 74 52 l 1,22,23
 78 62 78 62 106 80 c 1,24,-1
 218 166 l 1,25,-1
 214 486 l 2,26,27
 208 860 208 860 196 1013 c 128,-1,28
 184 1166 184 1166 162 1187 c 128,-1,29
 140 1208 140 1208 118 1212 c 1,30,-1
 94 1212 l 1,31,-1
 80 1208 l 1,32,33
 58 1210 58 1210 51 1217 c 128,-1,34
 44 1224 44 1224 44 1244 c 128,-1,35
 44 1264 44 1264 76 1292 c 1,36,37
 112 1320 112 1320 180 1340 c 0,38,39
 246 1360 246 1360 448 1360 c 0,40,41
 458 1360 458 1360 468 1360 c 0,42,43
 688 1360 688 1360 727 1345 c 128,-1,44
 766 1330 766 1330 785 1330 c 128,-1,45
 804 1330 804 1330 827 1336 c 128,-1,46
 850 1342 850 1342 876 1379 c 128,-1,47
 902 1416 902 1416 920 1416 c 0,48,49
 922 1416 922 1416 924 1418 c 0,50,51
 940 1420 940 1420 944 1412 c 128,-1,52
 948 1404 948 1404 948 1384 c 128,-1,53
 948 1364 948 1364 916 1307 c 128,-1,54
 884 1250 884 1250 858 1228 c 128,-1,55
 832 1206 832 1206 811 1206 c 128,-1,56
 790 1206 790 1206 770 1233 c 128,-1,57
 750 1260 750 1260 682 1287 c 128,-1,58
 614 1314 614 1314 589 1314 c 128,-1,59
 564 1314 564 1314 469 1292 c 128,-1,60
 374 1270 374 1270 336 1268 c 1,61,-1
 272 1268 l 1,62,-1
 272 1096 l 2,63,64
 272 956 272 956 264 917 c 128,-1,65
 256 878 256 878 256 851 c 128,-1,66
 256 824 256 824 265 790 c 128,-1,67
 274 756 274 756 284 743 c 128,-1,68
 294 730 294 730 308 730 c 0,69,70
 322 728 322 728 340 736 c 0,71,72
 356 744 356 744 420 752 c 128,-1,73
 484 760 484 760 514 784 c 1,74,-1
 554 810 l 1,75,76
 562 810 562 810 580 800 c 128,-1,77
 598 790 598 790 598 747 c 128,-1,78
 598 704 598 704 565 645 c 128,-1,79
 532 586 532 586 513 586 c 128,-1,80
 494 586 494 586 470 624 c 2,81,-1
 430 682 l 1,82,-1
 368 666 l 1,83,84
 312 646 312 646 293 628 c 128,-1,85
 274 610 274 610 274 546 c 128,-1,86
 274 482 274 482 283 439 c 128,-1,87
 292 396 292 396 292 370 c 1,88,-1
 276 228 l 1,89,-1
 276 226 l 2,90,91
 276 194 276 194 292 175 c 128,-1,92
 308 156 308 156 331 156 c 128,-1,93
 354 156 354 156 390 162 c 128,-1,94
 426 168 426 168 539 168 c 128,-1,95
 652 168 652 168 692 160 c 1,96,-1
 764 154 l 1,97,98
 786 160 786 160 810 197 c 128,-1,99
 834 234 834 234 856 236 c 1,0,-1
EndSplineSet
Validated: 1
EndChar

StartChar: F
Encoding: 70 70 37
Width: 1088
VWidth: 1894
Flags: W
HStem: -10 6<48.0234 60> 640 70<314 566> 1190 70<72.2539 223.311> 1244 66<495 872> 1344 20G<988 1016>
VStem: 226 58<96.7803 589.5> 236 84<868.446 1169.37> 254 54<252.805 636 698.633 886.665> 592 74<562.264 590> 592 50<556.649 590>
LayerCount: 2
Fore
SplineSet
964 1180 m 2,0,1
 964 1180 964 1180 872 1244 c 1,2,-1
 754 1244 l 2,3,4
 648 1244 648 1244 560 1224 c 1,5,-1
 352 1184 l 1,6,-1
 342 1114 l 1,7,8
 324 1008 324 1008 320 896 c 128,-1,9
 316 784 316 784 312 763 c 128,-1,10
 308 742 308 742 308 728 c 128,-1,11
 308 714 308 714 319 706 c 128,-1,12
 330 698 330 698 341 698 c 128,-1,13
 352 698 352 698 393 704 c 128,-1,14
 434 710 434 710 490 710 c 128,-1,15
 546 710 546 710 567 719 c 128,-1,16
 588 728 588 728 604 752 c 1,17,18
 616 776 616 776 634 776 c 2,19,-1
 636 776 l 2,20,21
 654 776 654 776 662 770 c 1,22,23
 666 762 666 762 666 733 c 128,-1,24
 666 704 666 704 657 637 c 128,-1,25
 648 570 648 570 642 562 c 128,-1,26
 636 554 636 554 634 552 c 1,27,28
 608 552 608 552 592 588 c 1,29,-1
 592 590 l 1,30,-1
 566 640 l 1,31,-1
 444 640 l 1,32,-1
 314 636 l 1,33,-1
 310 458 l 2,34,35
 308 398 308 398 296 352 c 0,36,37
 284 310 284 310 284 274 c 2,38,39
 284 274 284 274 284 264 c 1,40,-1
 288 138 l 2,41,42
 288 124 288 124 300 104 c 0,43,44
 310 86 310 86 323 86 c 128,-1,45
 336 86 336 86 358 65 c 128,-1,46
 380 44 380 44 384 40 c 128,-1,47
 388 36 388 36 386 34 c 0,48,49
 384 34 384 34 384 32 c 2,50,51
 384 32 384 32 384 20 c 1,52,53
 380 12 380 12 365 5 c 128,-1,54
 350 -2 350 -2 314 -8 c 0,55,56
 292 -12 292 -12 236 -12 c 0,57,58
 198 -12 198 -12 144 -10 c 0,59,60
 48 -6 48 -6 48 -4 c 2,61,-1
 60 -2 l 1,62,-1
 60 0 l 1,63,64
 68 18 68 18 147 55 c 128,-1,65
 226 92 226 92 226 200 c 2,66,-1
 226 236 l 2,67,68
 226 258 226 258 240 336 c 128,-1,69
 254 414 254 414 254 498 c 1,70,-1
 236 986 l 2,71,72
 236 994 236 994 236 1002 c 0,73,74
 236 1026 236 1026 240 1052 c 2,75,-1
 246 1114 l 1,76,77
 244 1150 244 1150 224 1170 c 0,78,79
 202 1190 202 1190 174 1190 c 2,80,81
 174 1190 174 1190 168 1190 c 1,82,-1
 104 1188 l 2,83,84
 80 1188 80 1188 72 1196 c 1,85,-1
 62 1228 l 1,86,87
 64 1244 64 1244 68 1254 c 1,88,89
 84 1260 84 1260 139 1260 c 128,-1,90
 194 1260 194 1260 223 1279 c 128,-1,91
 252 1298 252 1298 279 1298 c 128,-1,92
 306 1298 306 1298 333 1281 c 128,-1,93
 360 1264 360 1264 388 1264 c 128,-1,94
 416 1264 416 1264 512 1287 c 128,-1,95
 608 1310 608 1310 742 1310 c 128,-1,96
 876 1310 876 1310 909 1315 c 128,-1,97
 942 1320 942 1320 963 1340 c 128,-1,98
 984 1360 984 1360 992 1364 c 1,99,-1
 1016 1356 l 1,100,101
 1022 1348 1022 1348 1024 1328 c 1,102,-1
 1024 1292 l 1,103,104
 1016 1172 1016 1172 982 1172 c 0,105,106
 974 1172 974 1172 964 1180 c 2,0,1
EndSplineSet
Validated: 1
EndChar

StartChar: G
Encoding: 71 71 38
Width: 970
VWidth: 1894
Flags: W
HStem: -34 64<386.633 614.797> 557 77<606.817 811.749> 572 62<580.32 676.567> 1354 52<471.904 665.197> 1366 20G<850.5 871.5>
VStem: 60 64<209.578 842.725> 830 78<351.668 526>
LayerCount: 2
Fore
SplineSet
842 52 m 1,0,-1
 828 56 l 1,1,-1
 750 60 l 1,2,3
 732 54 732 54 700 32 c 0,4,5
 614 -32 614 -32 476 -34 c 1,6,-1
 472 -34 l 2,7,8
 330 -34 330 -34 262 6 c 128,-1,9
 194 46 194 46 149 100 c 128,-1,10
 104 154 104 154 86 200 c 1,11,-1
 86 202 l 1,12,13
 64 248 64 248 60 308 c 1,14,-1
 56 554 l 1,15,16
 56 806 56 806 91 904 c 128,-1,17
 126 1002 126 1002 143 1077 c 128,-1,18
 160 1152 160 1152 235 1247 c 128,-1,19
 310 1342 310 1342 380 1374 c 128,-1,20
 450 1406 450 1406 513 1406 c 128,-1,21
 576 1406 576 1406 660 1383 c 128,-1,22
 744 1360 744 1360 774 1359 c 128,-1,23
 804 1358 804 1358 822 1372 c 128,-1,24
 840 1386 840 1386 861 1386 c 128,-1,25
 882 1386 882 1386 888 1378 c 128,-1,26
 894 1370 894 1370 896 1350 c 1,27,-1
 896 1306 l 1,28,-1
 898 1304 l 1,29,30
 894 1278 894 1278 871 1226 c 128,-1,31
 848 1174 848 1174 834 1166 c 1,32,33
 820 1176 820 1176 793 1221 c 128,-1,34
 766 1266 766 1266 731 1293 c 128,-1,35
 696 1320 696 1320 642 1337 c 128,-1,36
 588 1354 588 1354 542 1354 c 2,37,-1
 540 1354 l 1,38,-1
 426 1330 l 1,39,-1
 426 1328 l 1,40,41
 290 1266 290 1266 210 1040 c 0,42,43
 170 930 170 930 147 798 c 128,-1,44
 124 666 124 666 124 481 c 128,-1,45
 124 296 124 296 143 241 c 128,-1,46
 162 186 162 186 196 145 c 128,-1,47
 230 104 230 104 239 94 c 128,-1,48
 248 84 248 84 261 74 c 128,-1,49
 274 64 274 64 286 64 c 1,50,-1
 460 30 l 1,51,-1
 462 30 l 2,52,53
 618 30 618 30 685 118 c 128,-1,54
 752 206 752 206 791 351 c 128,-1,55
 830 496 830 496 830 516 c 2,56,-1
 830 526 l 1,57,-1
 812 548 l 1,58,59
 804 552 804 552 791 554 c 128,-1,60
 778 556 778 556 770 557 c 128,-1,61
 762 558 762 558 743 557 c 128,-1,62
 724 556 724 556 678 556 c 128,-1,63
 632 556 632 556 606 572 c 1,64,-1
 604 572 l 1,65,66
 578 584 578 584 580 612 c 1,67,-1
 580 622 l 1,68,69
 590 634 590 634 630 634 c 1,70,-1
 708 628 l 1,71,72
 768 630 768 630 812 646 c 0,73,74
 856 660 856 660 866 660 c 1,75,-1
 884 648 l 1,76,-1
 886 646 l 2,77,78
 906 626 906 626 907 599 c 128,-1,79
 908 572 908 572 908 529 c 128,-1,80
 908 486 908 486 893 316 c 128,-1,81
 878 146 878 146 876 109 c 128,-1,82
 874 72 874 72 865 62 c 128,-1,83
 856 52 856 52 842 52 c 1,0,-1
EndSplineSet
Validated: 1
EndChar

StartChar: H
Encoding: 72 72 39
Width: 1088
VWidth: 1894
Flags: W
HStem: -8 78<68 106> 788 66<582.088 864> 1324 20G<226 353 895 966>
VStem: 198 178<1231.97 1310> 776 218<7.36426 50> 848 184<1310.25 1375.25> 854 60<126.774 638.989> 884 78<854 1287.1>
LayerCount: 2
Fore
SplineSet
266 1344 m 1,0,-1
 342 1344 l 2,1,2
 364 1344 364 1344 370 1338 c 128,-1,3
 376 1332 376 1332 376 1328 c 2,4,-1
 376 1326 l 2,5,6
 376 1320 376 1320 373 1303 c 128,-1,7
 370 1286 370 1286 348 1258 c 128,-1,8
 326 1230 326 1230 318 1194 c 1,9,-1
 316 1190 l 1,10,-1
 290 740 l 1,11,-1
 432 768 l 2,12,13
 492 780 492 780 521 799 c 128,-1,14
 550 818 550 818 628 836 c 128,-1,15
 706 854 706 854 766 854 c 2,16,-1
 884 854 l 1,17,-1
 880 1082 l 1,18,19
 874 1286 874 1286 861 1307 c 128,-1,20
 848 1328 848 1328 848 1340 c 128,-1,21
 848 1352 848 1352 856 1376 c 128,-1,22
 864 1400 864 1400 926 1400 c 2,23,24
 926 1400 926 1400 932 1400 c 2,25,26
 1000 1400 1000 1400 1016 1378 c 128,-1,27
 1032 1356 1032 1356 1032 1340 c 2,28,-1
 1032 1328 l 1,29,30
 1028 1318 1028 1318 1018 1310 c 1,31,-1
 1016 1310 l 1,32,33
 962 1256 962 1256 962 988 c 2,34,-1
 962 928 l 2,35,36
 962 818 962 818 946 663 c 128,-1,37
 930 508 930 508 924 387 c 128,-1,38
 918 266 918 266 916 240 c 128,-1,39
 914 214 914 214 914 199 c 128,-1,40
 914 184 914 184 920 166 c 128,-1,41
 926 148 926 148 958 108 c 1,42,-1
 994 50 l 1,43,44
 994 26 994 26 932 -1 c 128,-1,45
 870 -28 870 -28 842 -28 c 128,-1,46
 814 -28 814 -28 799 -25 c 128,-1,47
 784 -22 784 -22 778 -18 c 1,48,49
 776 -10 776 -10 776 8 c 128,-1,50
 776 26 776 26 808 54 c 1,51,-1
 810 56 l 1,52,53
 850 100 850 100 854 162 c 1,54,-1
 864 788 l 1,55,-1
 752 788 l 2,56,57
 680 788 680 788 623 770 c 128,-1,58
 566 752 566 752 471 705 c 128,-1,59
 376 658 376 658 331 641 c 128,-1,60
 286 624 286 624 276 578 c 1,61,-1
 238 112 l 1,62,-1
 320 28 l 1,63,-1
 300 10 l 1,64,65
 284 4 284 4 252 -2 c 1,66,-1
 158 -8 l 1,67,68
 60 -8 60 -8 58 40 c 1,69,-1
 68 70 l 1,70,-1
 106 82 l 2,71,72
 146 94 146 94 159 126 c 128,-1,73
 172 158 172 158 184 270 c 128,-1,74
 196 382 196 382 202 446 c 128,-1,75
 208 510 208 510 208 626 c 2,76,-1
 198 1310 l 1,77,-1
 266 1344 l 1,0,-1
EndSplineSet
Validated: 1
EndChar

StartChar: I
Encoding: 73 73 40
Width: 476
VWidth: 1894
Flags: W
HStem: -22 21G<204.5 309.5> -14 80<72.2568 177.125> 1322 20G<314.5 331.5>
VStem: 186 84<99.9463 966.302> 216 54<634.188 1000 1004 1158.29>
LayerCount: 2
Fore
SplineSet
414 36 m 1,0,1
 414 22 414 22 388 0 c 128,-1,2
 362 -22 362 -22 257 -22 c 128,-1,3
 152 -22 152 -22 116 -14 c 128,-1,4
 80 -6 80 -6 72 0 c 1,5,-1
 64 12 l 1,6,7
 64 32 64 32 99 48 c 128,-1,8
 134 64 134 64 146 66 c 128,-1,9
 158 68 158 68 165 76 c 128,-1,10
 172 84 172 84 176 101 c 128,-1,11
 180 118 180 118 184 136 c 0,12,13
 188 152 188 152 186 184 c 2,14,-1
 184 376 l 1,15,16
 184 634 184 634 193 663 c 128,-1,17
 202 692 202 692 210 816 c 1,18,-1
 218 1000 l 1,19,-1
 216 1004 l 1,20,21
 216 1004 216 1004 216 1034 c 2,22,23
 216 1062 216 1062 214 1107 c 128,-1,24
 212 1152 212 1152 198 1180 c 128,-1,25
 184 1208 184 1208 128 1219 c 128,-1,26
 72 1230 72 1230 70 1256 c 1,27,-1
 70 1262 l 1,28,29
 72 1286 72 1286 93 1294 c 128,-1,30
 114 1302 114 1302 210 1322 c 128,-1,31
 306 1342 306 1342 323 1342 c 128,-1,32
 340 1342 340 1342 356 1326 c 1,33,-1
 374 1312 l 1,34,-1
 326 1230 l 2,35,36
 296 1180 296 1180 286 1101 c 128,-1,37
 276 1022 276 1022 273 968 c 128,-1,38
 270 914 270 914 270 818 c 2,39,-1
 270 262 l 2,40,41
 270 194 270 194 268 180 c 2,42,-1
 266 156 l 2,43,44
 266 132 266 132 286 116 c 128,-1,45
 306 100 306 100 357 78 c 128,-1,46
 408 56 408 56 412 40 c 1,47,-1
 414 36 l 1,0,1
EndSplineSet
Validated: 1
EndChar

StartChar: J
Encoding: 74 74 41
Width: 888
VWidth: 1894
Flags: W
HStem: -82 56<301.012 483.431> 568 94<522.255 653.434> 1284 74<347.312 736.667>
VStem: 738 82<712 1284>
LayerCount: 2
Fore
SplineSet
138 1182 m 0,0,1
 138 1206 138 1206 147 1230 c 128,-1,2
 156 1254 156 1254 220 1285 c 128,-1,3
 284 1316 284 1316 368 1327 c 128,-1,4
 452 1338 452 1338 514 1348 c 128,-1,5
 576 1358 576 1358 611 1358 c 128,-1,6
 646 1358 646 1358 712 1346 c 128,-1,7
 778 1334 778 1334 792 1319 c 128,-1,8
 806 1304 806 1304 811 1284 c 128,-1,9
 816 1264 816 1264 820 1222 c 128,-1,10
 824 1180 824 1180 824 1128 c 1,11,-1
 814 894 l 1,12,-1
 820 740 l 1,13,14
 820 678 820 678 790 511 c 128,-1,15
 760 344 760 344 733 260 c 128,-1,16
 706 176 706 176 650 86 c 128,-1,17
 594 -4 594 -4 563 -43 c 128,-1,18
 532 -82 532 -82 434 -82 c 2,19,-1
 426 -82 l 2,20,21
 250 -82 250 -82 156 -9 c 128,-1,22
 62 64 62 64 62 131 c 128,-1,23
 62 198 62 198 68 216 c 1,24,25
 76 220 76 220 97 220 c 128,-1,26
 118 220 118 220 128 208 c 0,27,28
 142 190 142 190 163 129 c 128,-1,29
 184 68 184 68 202 49 c 128,-1,30
 220 30 220 30 297 2 c 128,-1,31
 374 -26 374 -26 420 -26 c 128,-1,32
 466 -26 466 -26 484 -15 c 128,-1,33
 502 -4 502 -4 543 49 c 128,-1,34
 584 102 584 102 630 209 c 128,-1,35
 676 316 676 316 694 412 c 128,-1,36
 712 508 712 508 712 536 c 128,-1,37
 712 564 712 564 692 585 c 128,-1,38
 672 606 672 606 654 606 c 128,-1,39
 636 606 636 606 605 587 c 128,-1,40
 574 568 574 568 558 568 c 0,41,42
 530 568 530 568 522 608 c 128,-1,43
 514 648 514 648 535 662 c 128,-1,44
 556 676 556 676 632 692 c 2,45,-1
 738 712 l 1,46,-1
 738 1284 l 1,47,-1
 600 1284 l 2,48,49
 516 1284 516 1284 419 1264 c 128,-1,50
 322 1244 322 1244 279 1226 c 128,-1,51
 236 1208 236 1208 223 1155 c 128,-1,52
 210 1102 210 1102 204 1094 c 128,-1,53
 198 1086 198 1086 180 1088 c 1,54,55
 138 1088 138 1088 138 1182 c 0,0,1
EndSplineSet
Validated: 1
EndChar

StartChar: K
Encoding: 75 75 42
Width: 1104
VWidth: 1894
Flags: W
HStem: 1342 20G<141.5 252.5 828 945>
VStem: 194 66<92 415.991 544.328 1131.95> 844 200<-0.590576 89.5254>
LayerCount: 2
Fore
SplineSet
886 1210 m 1,0,-1
 528 672 l 1,1,-1
 554 648 l 2,2,3
 586 620 586 620 648 538 c 128,-1,4
 710 456 710 456 791 355 c 128,-1,5
 872 254 872 254 915 193 c 128,-1,6
 958 132 958 132 997 92 c 128,-1,7
 1036 52 1036 52 1044 38 c 1,8,9
 1044 12 1044 12 1025 -1 c 128,-1,10
 1006 -14 1006 -14 968 -14 c 128,-1,11
 930 -14 930 -14 904 -10 c 128,-1,12
 878 -6 878 -6 869 -2 c 128,-1,13
 860 2 860 2 852 17 c 128,-1,14
 844 32 844 32 844 50 c 2,15,-1
 854 172 l 1,16,-1
 562 560 l 2,17,18
 558 566 558 566 550 577 c 128,-1,19
 542 588 542 588 538 593 c 128,-1,20
 534 598 534 598 527 605 c 128,-1,21
 520 612 520 612 516 615 c 128,-1,22
 512 618 512 618 506 621 c 128,-1,23
 500 624 500 624 492 624 c 128,-1,24
 484 624 484 624 476 620 c 128,-1,25
 468 616 468 616 456 604 c 128,-1,26
 444 592 444 592 437 582 c 128,-1,27
 430 572 430 572 411 550 c 128,-1,28
 392 528 392 528 348 475 c 128,-1,29
 304 422 304 422 282 408 c 128,-1,30
 260 394 260 394 260 362 c 2,31,-1
 260 340 l 1,32,-1
 270 92 l 1,33,-1
 322 60 l 2,34,35
 340 50 340 50 350 36 c 1,36,-1
 332 12 l 2,37,38
 314 -10 314 -10 251 -15 c 128,-1,39
 188 -20 188 -20 160 -21 c 128,-1,40
 132 -22 132 -22 112 -17 c 128,-1,41
 92 -12 92 -12 85 -1 c 128,-1,42
 78 10 78 10 78 15 c 128,-1,43
 78 20 78 20 86 30 c 0,44,45
 104 48 104 48 134 61 c 128,-1,46
 164 74 164 74 169 102 c 128,-1,47
 174 130 174 130 184 265 c 128,-1,48
 194 400 194 400 194 725 c 128,-1,49
 194 1050 194 1050 184 1112 c 128,-1,50
 174 1174 174 1174 163 1190 c 128,-1,51
 152 1206 152 1206 120 1214 c 128,-1,52
 88 1222 88 1222 76 1234 c 128,-1,53
 64 1246 64 1246 60 1254 c 1,54,55
 86 1348 86 1348 197 1348 c 128,-1,56
 308 1348 308 1348 313 1339 c 128,-1,57
 318 1330 318 1330 317 1324 c 128,-1,58
 316 1318 316 1318 301 1295 c 128,-1,59
 286 1272 286 1272 277 1182 c 128,-1,60
 268 1092 268 1092 264 927 c 128,-1,61
 260 762 260 762 260 694 c 128,-1,62
 260 626 260 626 262 604 c 128,-1,63
 264 582 264 582 274 563 c 128,-1,64
 284 544 284 544 310 538 c 2,65,-1
 318 536 l 1,66,-1
 324 542 l 1,67,68
 330 544 330 544 338 551 c 128,-1,69
 346 558 346 558 351 563 c 128,-1,70
 356 568 356 568 368 583 c 128,-1,71
 380 598 380 598 397 616 c 128,-1,72
 414 634 414 634 560 824 c 128,-1,73
 706 1014 706 1014 745 1111 c 128,-1,74
 784 1208 784 1208 784 1238 c 2,75,-1
 784 1242 l 1,76,-1
 772 1322 l 1,77,78
 776 1362 776 1362 880 1362 c 2,79,-1
 892 1362 l 2,80,81
 998 1362 998 1362 1014 1351 c 128,-1,82
 1030 1340 1030 1340 1028 1338 c 0,83,84
 996 1288 996 1288 996 1286 c 0,85,86
 906 1256 906 1256 886 1210 c 1,0,-1
EndSplineSet
Validated: 1
EndChar

StartChar: L
Encoding: 76 76 43
Width: 1002
VWidth: 1894
Flags: W
HStem: -72 78<64.3125 232 322.031 404> -2 82<572.873 788.775> 1236 90<97.4248 188.176>
VStem: 212 74<462.969 1216> 232 64<39.0776 246 330 626.749> 852 86<87.2229 183.386>
LayerCount: 2
Fore
SplineSet
836 -60 m 1,0,-1
 812 -60 l 1,1,2
 798 -56 798 -56 778 -29 c 128,-1,3
 758 -2 758 -2 701 -2 c 128,-1,4
 644 -2 644 -2 597 -22 c 128,-1,5
 550 -42 550 -42 381 -52 c 128,-1,6
 212 -62 212 -62 179 -67 c 128,-1,7
 146 -72 146 -72 132 -72 c 0,8,9
 64 -72 64 -72 64 -34 c 2,10,-1
 64 -32 l 2,11,12
 64 6 64 6 144 6 c 2,13,-1
 232 6 l 1,14,-1
 212 872 l 1,15,-1
 208 1216 l 1,16,-1
 138 1236 l 2,17,18
 106 1246 106 1246 96 1260 c 128,-1,19
 86 1274 86 1274 84 1280 c 0,20,21
 84 1286 84 1286 97 1301 c 128,-1,22
 110 1316 110 1316 199 1326 c 128,-1,23
 288 1336 288 1336 301 1337 c 128,-1,24
 314 1338 314 1338 327 1331 c 128,-1,25
 340 1324 340 1324 340 1304 c 128,-1,26
 340 1284 340 1284 320 1268 c 2,27,-1
 286 1238 l 1,28,-1
 286 878 l 2,29,30
 286 534 286 534 294 500 c 128,-1,31
 302 466 302 466 302 446 c 2,32,-1
 296 330 l 1,33,-1
 302 246 l 1,34,-1
 296 168 l 1,35,36
 296 72 296 72 322 38 c 1,37,-1
 324 36 l 1,38,39
 342 14 342 14 368 14 c 1,40,-1
 404 20 l 1,41,42
 428 30 428 30 462 30 c 2,43,-1
 492 30 l 2,44,45
 548 30 548 30 636 55 c 128,-1,46
 724 80 724 80 764 80 c 128,-1,47
 804 80 804 80 825 87 c 128,-1,48
 846 94 846 94 852 118 c 128,-1,49
 858 142 858 142 877 165 c 128,-1,50
 896 188 896 188 904 188 c 0,51,52
 912 186 912 186 925 164 c 128,-1,53
 938 142 938 142 938 104 c 128,-1,54
 938 66 938 66 894 11 c 128,-1,55
 850 -44 850 -44 836 -60 c 1,0,-1
EndSplineSet
Validated: 1
EndChar

StartChar: M
Encoding: 77 77 44
Width: 1458
VWidth: 1894
Flags: W
HStem: 624 80<775.832 834> 1342 20G<1329 1378>
VStem: 206 64<12.7241 1077.28> 1178 80<471.754 999.5> 1204 60<91.1738 564.246>
LayerCount: 2
Fore
SplineSet
82 -52 m 1,0,1
 82 -52 82 -52 84 -52 c 1,2,3
 84 -48 84 -48 97 -32 c 128,-1,4
 110 -16 110 -16 160 5 c 128,-1,5
 210 26 210 26 214 82 c 1,6,-1
 204 416 l 1,7,-1
 206 686 l 1,8,-1
 206 688 l 2,9,10
 206 946 206 946 190 1016 c 1,11,-1
 174 1122 l 1,12,13
 174 1162 174 1162 119 1206 c 128,-1,14
 64 1250 64 1250 49 1272 c 128,-1,15
 34 1294 34 1294 34 1316 c 2,16,-1
 34 1338 l 1,17,18
 82 1332 82 1332 126 1294 c 0,19,20
 164 1260 164 1260 182 1254 c 1,21,-1
 508 1026 l 2,22,23
 682 904 682 904 758 774 c 0,24,25
 772 750 772 750 783 732 c 128,-1,26
 794 714 794 714 818 704 c 1,27,-1
 834 704 l 1,28,-1
 868 720 l 1,29,-1
 1064 1044 l 2,30,31
 1086 1084 1086 1084 1119 1184 c 128,-1,32
 1152 1284 1152 1284 1208 1338 c 1,33,34
 1304 1362 1304 1362 1354 1362 c 2,35,-1
 1378 1362 l 1,36,37
 1370 1348 1370 1348 1345 1316 c 128,-1,38
 1320 1284 1320 1284 1305 1237 c 128,-1,39
 1290 1190 1290 1190 1274 1095 c 128,-1,40
 1258 1000 1258 1000 1258 697 c 128,-1,41
 1258 394 1258 394 1266 357 c 128,-1,42
 1274 320 1274 320 1274 296 c 1,43,-1
 1264 202 l 1,44,-1
 1264 200 l 2,45,46
 1264 92 1264 92 1336 56 c 0,47,48
 1366 40 1366 40 1380 26 c 2,49,50
 1380 26 1380 26 1398 8 c 1,51,52
 1400 -4 1400 -4 1392 -28 c 0,53,54
 1380 -64 1380 -64 1344 -64 c 1,55,-1
 1326 -58 l 1,56,57
 1292 -36 1292 -36 1256 -36 c 128,-1,58
 1220 -36 1220 -36 1185 -50 c 128,-1,59
 1150 -64 1150 -64 1138 -66 c 1,60,61
 1114 -48 1114 -48 1104 -28 c 1,62,63
 1114 -14 1114 -14 1146 16 c 2,64,-1
 1204 68 l 1,65,-1
 1178 968 l 2,66,67
 1176 984 1176 984 1168 1000 c 1,68,-1
 1130 1006 l 17,69,70
 1098 1006 1098 1006 1031 875 c 128,-1,71
 964 744 964 744 916 684 c 1,72,73
 896 652 896 652 885 638 c 128,-1,74
 874 624 874 624 846 624 c 2,75,-1
 818 624 l 2,76,77
 796 624 796 624 768 644 c 128,-1,78
 740 664 740 664 702 732 c 128,-1,79
 664 800 664 800 580 882 c 128,-1,80
 496 964 496 964 424 1005 c 128,-1,81
 352 1046 352 1046 344 1060 c 1,82,-1
 344 1062 l 1,83,84
 334 1078 334 1078 313 1078 c 128,-1,85
 292 1078 292 1078 284 1072 c 1,86,-1
 270 284 l 1,87,-1
 274 74 l 1,88,89
 280 38 280 38 298 8 c 1,90,-1
 310 -26 l 1,91,-1
 310 -30 l 1,92,93
 308 -48 308 -48 293 -58 c 128,-1,94
 278 -68 278 -68 272 -68 c 1,95,-1
 256 -74 l 1,96,-1
 134 -74 l 1,97,98
 92 -72 92 -72 82 -52 c 1,0,1
EndSplineSet
Validated: 1
EndChar

StartChar: N
Encoding: 78 78 45
Width: 1136
VWidth: 1894
Flags: W
HStem: -74 68<64.1135 159.396>
VStem: 192 42<79.5015 609.5> 858 100<-46 101.078> 868 248<1202 1309.58> 924 44<589.968 733.953>
LayerCount: 2
Fore
SplineSet
310 -20 m 1,0,-1
 310 -32 l 1,1,-1
 308 -32 l 1,2,3
 298 -42 298 -42 230 -58 c 128,-1,4
 162 -74 162 -74 118 -74 c 128,-1,5
 74 -74 74 -74 66 -46 c 1,6,-1
 64 -42 l 1,7,8
 64 -34 64 -34 62 -30 c 1,9,10
 66 -22 66 -22 95 -6 c 128,-1,11
 124 10 124 10 136 11 c 128,-1,12
 148 12 148 12 156 22 c 128,-1,13
 164 32 164 32 168 53 c 128,-1,14
 172 74 172 74 175 97 c 128,-1,15
 178 120 178 120 179 159 c 128,-1,16
 180 198 180 198 181 230 c 128,-1,17
 182 262 182 262 182 315 c 128,-1,18
 182 368 182 368 188 576 c 0,19,20
 192 732 192 732 192 856 c 2,21,22
 192 856 192 856 192 936 c 1,23,24
 190 1090 190 1090 179 1127 c 128,-1,25
 168 1164 168 1164 114 1192 c 128,-1,26
 60 1220 60 1220 54 1228 c 1,27,-1
 42 1282 l 1,28,-1
 244 1280 l 1,29,-1
 252 1242 l 2,30,31
 266 1172 266 1172 301 1139 c 128,-1,32
 336 1106 336 1106 359 1079 c 128,-1,33
 382 1052 382 1052 482 902 c 128,-1,34
 582 752 582 752 678 591 c 128,-1,35
 774 430 774 430 779 401 c 128,-1,36
 784 372 784 372 810 326 c 1,37,-1
 866 216 l 1,38,-1
 882 356 l 1,39,40
 910 536 910 536 924 970 c 2,41,-1
 930 1178 l 1,42,-1
 892 1210 l 2,43,44
 870 1230 870 1230 868 1242 c 1,45,46
 868 1304 868 1304 940 1318 c 0,47,48
 948 1320 948 1320 981 1328 c 128,-1,49
 1014 1336 1014 1336 1044 1336 c 128,-1,50
 1074 1336 1074 1336 1095 1317 c 128,-1,51
 1116 1298 1116 1298 1116 1290 c 2,52,-1
 1116 1238 l 2,53,54
 1116 1224 1116 1224 1087 1211 c 128,-1,55
 1058 1198 1058 1198 1044 1170 c 0,56,57
 976 1044 976 1044 968 362 c 1,58,-1
 958 -46 l 1,59,-1
 932 -72 l 2,60,61
 906 -98 906 -98 884 -98 c 1,62,-1
 858 -90 l 1,63,64
 848 -74 848 -74 831 28 c 128,-1,65
 814 130 814 130 707 374 c 128,-1,66
 600 618 600 618 533 705 c 128,-1,67
 466 792 466 792 422 864 c 128,-1,68
 378 936 378 936 358 960 c 0,69,70
 338 982 338 982 324 982 c 1,71,72
 324 982 324 982 324 980 c 1,73,74
 308 980 308 980 301 976 c 128,-1,75
 294 972 294 972 290 964 c 128,-1,76
 286 956 286 956 283 947 c 128,-1,77
 280 938 280 938 278 924 c 128,-1,78
 276 910 276 910 275 900 c 128,-1,79
 274 890 274 890 273 873 c 128,-1,80
 272 856 272 856 267 797 c 128,-1,81
 262 738 262 738 248 503 c 128,-1,82
 234 268 234 268 234 232 c 0,83,84
 234 66 234 66 294 18 c 1,85,86
 310 2 310 2 310 -14 c 1,87,-1
 312 -16 l 1,88,-1
 310 -20 l 1,0,-1
EndSplineSet
Validated: 1
EndChar

StartChar: O
Encoding: 79 79 46
Width: 1082
VWidth: 1894
Flags: W
HStem: 1376 54<423.492 598>
VStem: 56 68<406 938.5> 942 76<408.421 1020.33>
LayerCount: 2
Fore
SplineSet
502 1430 m 1,0,-1
 598 1422 l 1,1,2
 722 1394 722 1394 789 1337 c 128,-1,3
 856 1280 856 1280 899 1219 c 128,-1,4
 942 1158 942 1158 976 1037 c 128,-1,5
 1010 916 1010 916 1014 883 c 128,-1,6
 1018 850 1018 850 1018 800 c 128,-1,7
 1018 750 1018 750 1010 593 c 128,-1,8
 1002 436 1002 436 925 236 c 128,-1,9
 848 36 848 36 732 -26 c 1,10,-1
 730 -26 l 1,11,12
 642 -82 642 -82 600 -84 c 1,13,-1
 472 -60 l 1,14,15
 394 -36 394 -36 356 -19 c 128,-1,16
 318 -2 318 -2 258 39 c 128,-1,17
 198 80 198 80 162 133 c 128,-1,18
 126 186 126 186 98 272 c 128,-1,19
 70 358 70 358 66 406 c 2,20,-1
 56 552 l 1,21,22
 56 618 56 618 68 766 c 128,-1,23
 80 914 80 914 94 974 c 128,-1,24
 108 1034 108 1034 146 1143 c 128,-1,25
 184 1252 184 1252 198 1278 c 128,-1,26
 212 1304 212 1304 264 1346 c 128,-1,27
 316 1388 316 1388 369 1407 c 128,-1,28
 422 1426 422 1426 502 1430 c 1,0,-1
643 1368 m 128,-1,30
 618 1376 618 1376 547 1376 c 128,-1,31
 476 1376 476 1376 403 1340 c 128,-1,32
 330 1304 330 1304 276 1236 c 128,-1,33
 222 1168 222 1168 181 1027 c 128,-1,34
 140 886 140 886 132 785 c 128,-1,35
 124 684 124 684 124 610 c 128,-1,36
 124 536 124 536 139 417 c 128,-1,37
 154 298 154 298 202 208 c 128,-1,38
 250 118 250 118 315 75 c 128,-1,39
 380 32 380 32 464 12 c 128,-1,40
 548 -8 548 -8 579 -8 c 128,-1,41
 610 -8 610 -8 630 2 c 0,42,43
 780 64 780 64 856 216 c 0,44,45
 872 250 872 250 898 358 c 128,-1,46
 924 466 924 466 924 488 c 128,-1,47
 924 510 924 510 933 557 c 128,-1,48
 942 604 942 604 942 736 c 128,-1,49
 942 868 942 868 936 919 c 128,-1,50
 930 970 930 970 893 1070 c 128,-1,51
 856 1170 856 1170 818 1227 c 128,-1,52
 780 1284 780 1284 724 1322 c 128,-1,29
 668 1360 668 1360 643 1368 c 128,-1,30
EndSplineSet
Validated: 1
EndChar

StartChar: P
Encoding: 80 80 47
Width: 928
VWidth: 1894
Flags: W
HStem: -28 100<207.969 310.817> 344 42<387.387 577.064> 1270 78<252 593.834> 1272 58<252 360.629>
VStem: 164 64<488.5 938.592> 792 84<688.532 1136>
LayerCount: 2
Fore
SplineSet
234 72 m 1,0,-1
 242 72 l 2,1,2
 256 72 256 72 283 53 c 128,-1,3
 310 34 310 34 316 18 c 1,4,-1
 316 16 l 1,5,-1
 318 12 l 1,6,-1
 316 12 l 1,7,8
 302 2 302 2 225 -13 c 128,-1,9
 148 -28 148 -28 106 -28 c 128,-1,10
 64 -28 64 -28 54 -12 c 2,11,-1
 52 -8 l 1,12,13
 52 4 52 4 74 26 c 2,14,-1
 124 70 l 1,15,-1
 148 502 l 1,16,17
 164 722 164 722 164 893 c 128,-1,18
 164 1064 164 1064 156 1124 c 128,-1,19
 148 1184 148 1184 142 1198 c 1,20,-1
 140 1200 l 1,21,22
 128 1216 128 1216 112 1216 c 2,23,-1
 72 1212 l 2,24,25
 58 1212 58 1212 40 1220 c 128,-1,26
 22 1228 22 1228 22 1238 c 0,27,28
 22 1278 22 1278 95 1304 c 128,-1,29
 168 1330 168 1330 216 1330 c 128,-1,30
 264 1330 264 1330 291 1339 c 128,-1,31
 318 1348 318 1348 362 1348 c 128,-1,32
 406 1348 406 1348 522 1326 c 128,-1,33
 638 1304 638 1304 718 1259 c 128,-1,34
 798 1214 798 1214 834 1137 c 128,-1,35
 870 1060 870 1060 873 1025 c 128,-1,36
 876 990 876 990 876 955 c 128,-1,37
 876 920 876 920 852 772 c 128,-1,38
 828 624 828 624 766 526 c 128,-1,39
 704 428 704 428 688 412 c 128,-1,40
 672 396 672 396 604 372 c 1,41,42
 536 344 536 344 488 344 c 0,43,44
 486 344 486 344 484 344 c 0,45,46
 440 344 440 344 400 360 c 0,47,48
 358 376 358 376 322 376 c 2,49,50
 322 376 322 376 316 376 c 2,51,52
 276 376 276 376 254 364 c 2,53,-1
 206 342 l 1,54,-1
 208 112 l 2,55,56
 210 96 210 96 217 86 c 128,-1,57
 224 76 224 76 234 72 c 1,0,-1
326 414 m 2,58,59
 406 390 406 390 441 388 c 128,-1,60
 476 386 476 386 511 386 c 128,-1,61
 546 386 546 386 589 414 c 128,-1,62
 632 442 632 442 690 534 c 0,63,64
 746 626 746 626 769 708 c 128,-1,65
 792 790 792 790 792 958 c 2,66,-1
 792 1136 l 1,67,-1
 732 1180 l 1,68,69
 674 1218 674 1218 605 1242 c 128,-1,70
 536 1266 536 1266 404 1270 c 1,71,-1
 252 1272 l 1,72,-1
 228 444 l 1,73,-1
 326 414 l 2,58,59
EndSplineSet
Validated: 1
EndChar

StartChar: Q
Encoding: 81 81 48
Width: 1036
VWidth: 1894
Flags: W
HStem: -342 152<800 900.365> -62 118<314.072 466> -58 252<506.429 668.96> 1360 54<368.367 520.012>
VStem: 52 72<273.832 782.672> 738 198<-305 -196>
LayerCount: 2
Fore
SplineSet
788 -22 m 1,0,-1
 800 -190 l 1,1,-1
 922 -190 l 2,2,3
 946 -190 946 -190 946 -196 c 2,4,-1
 936 -246 l 1,5,6
 924 -278 924 -278 886 -310 c 128,-1,7
 848 -342 848 -342 818 -342 c 128,-1,8
 788 -342 788 -342 776 -323 c 128,-1,9
 764 -304 764 -304 738 -199 c 128,-1,10
 712 -94 712 -94 697 -76 c 128,-1,11
 682 -58 682 -58 630 -58 c 1,12,-1
 534 -62 l 1,13,14
 384 -62 384 -62 297 -11 c 128,-1,15
 210 40 210 40 177 78 c 128,-1,16
 144 116 144 116 104 207 c 128,-1,17
 64 298 64 298 58 384 c 128,-1,18
 52 470 52 470 52 538 c 128,-1,19
 52 606 52 606 75 720 c 128,-1,20
 98 834 98 834 124 961 c 128,-1,21
 150 1088 150 1088 202 1228 c 128,-1,22
 254 1368 254 1368 286 1391 c 128,-1,23
 318 1414 318 1414 396 1414 c 128,-1,24
 474 1414 474 1414 508 1394 c 128,-1,25
 542 1374 542 1374 587 1366 c 128,-1,26
 632 1358 632 1358 686 1305 c 128,-1,27
 740 1252 740 1252 758 1246 c 1,28,29
 774 1230 774 1230 828 1160 c 1,30,31
 966 972 966 972 980 776 c 1,32,-1
 972 554 l 1,33,34
 960 384 960 384 938 319 c 128,-1,35
 916 254 916 254 868 160 c 128,-1,36
 820 66 820 66 810 57 c 128,-1,37
 800 48 800 48 796 42 c 1,38,-1
 788 8 l 1,39,-1
 788 -22 l 1,0,-1
649 164 m 128,-1,41
 688 134 688 134 702 134 c 2,42,-1
 720 134 l 2,43,44
 740 134 740 134 765 149 c 128,-1,45
 790 164 790 164 826 263 c 128,-1,46
 862 362 862 362 888 532 c 1,47,-1
 908 748 l 1,48,49
 892 958 892 958 806 1084 c 0,50,51
 774 1128 774 1128 672 1243 c 128,-1,52
 570 1358 570 1358 476 1360 c 1,53,-1
 474 1360 l 2,54,55
 378 1360 378 1360 324 1296 c 128,-1,56
 270 1232 270 1232 245 1160 c 128,-1,57
 220 1088 220 1088 178 908 c 128,-1,58
 136 728 136 728 130 682 c 128,-1,59
 124 636 124 636 124 591 c 128,-1,60
 124 546 124 546 130 453 c 128,-1,61
 136 360 136 360 142 328 c 128,-1,62
 148 296 148 296 168 256 c 1,63,-1
 168 254 l 1,64,-1
 170 254 l 1,65,66
 238 130 238 130 328 94 c 1,67,68
 408 56 408 56 434 56 c 1,69,-1
 466 60 l 1,70,71
 506 72 506 72 506 134 c 2,72,-1
 506 152 l 2,73,74
 506 194 506 194 586 194 c 0,75,40
 610 194 610 194 649 164 c 128,-1,41
EndSplineSet
Validated: 1
EndChar

StartChar: R
Encoding: 82 82 49
Width: 952
VWidth: 1894
Flags: W
HStem: 346 66<295.754 447.342> 1344 46<351.422 653.51>
VStem: 190 78<112.037 320.873 432.638 1177.69> 816 76<824.82 1213.54>
LayerCount: 2
Fore
SplineSet
462 1344 m 128,-1,1
 396 1344 396 1344 368 1328 c 1,2,3
 298 1306 298 1306 287 1239 c 128,-1,4
 276 1172 276 1172 276 976 c 2,5,-1
 278 524 l 2,6,7
 278 452 278 452 295 432 c 128,-1,8
 312 412 312 412 356 412 c 128,-1,9
 400 412 400 412 522 488 c 0,10,11
 816 672 816 672 816 1100 c 1,12,13
 814 1194 814 1194 767 1247 c 128,-1,14
 720 1300 720 1300 696 1314 c 128,-1,15
 672 1328 672 1328 600 1336 c 128,-1,0
 528 1344 528 1344 462 1344 c 128,-1,1
64 1168 m 1,16,17
 36 1186 36 1186 36 1211 c 128,-1,18
 36 1236 36 1236 50 1258 c 128,-1,19
 64 1280 64 1280 100 1298 c 128,-1,20
 136 1316 136 1316 236 1348 c 2,21,-1
 360 1388 l 2,22,23
 368 1390 368 1390 398 1390 c 2,24,-1
 454 1390 l 1,25,26
 536 1388 536 1388 638 1370 c 128,-1,27
 740 1352 740 1352 772 1330 c 128,-1,28
 804 1308 804 1308 848 1226 c 128,-1,29
 892 1144 892 1144 892 1052 c 128,-1,30
 892 960 892 960 862 812 c 128,-1,31
 832 664 832 664 776 584 c 0,32,33
 746 544 746 544 701 512 c 128,-1,34
 656 480 656 480 642 470 c 128,-1,35
 628 460 628 460 622 454 c 128,-1,36
 616 448 616 448 606 440 c 1,37,-1
 576 400 l 2,38,39
 572 392 572 392 572 376 c 128,-1,40
 572 360 572 360 614 298 c 128,-1,41
 656 236 656 236 684 218 c 128,-1,42
 712 200 712 200 760 130 c 128,-1,43
 808 60 808 60 842 54 c 128,-1,44
 876 48 876 48 884 40 c 1,45,46
 888 28 888 28 888 16 c 2,47,-1
 888 -2 l 2,48,49
 888 -18 888 -18 884 -28 c 1,50,51
 878 -30 878 -30 870 -29 c 128,-1,52
 862 -28 862 -28 849 -28 c 128,-1,53
 836 -28 836 -28 796 -14 c 128,-1,54
 756 0 756 0 691 1 c 128,-1,55
 626 2 626 2 616 16 c 1,56,-1
 636 116 l 1,57,-1
 636 124 l 2,58,59
 636 176 636 176 552 254 c 128,-1,60
 468 332 468 332 454 339 c 128,-1,61
 440 346 440 346 432 346 c 2,62,-1
 418 346 l 1,63,64
 400 344 400 344 368 342 c 128,-1,65
 336 340 336 340 308 322 c 128,-1,66
 280 304 280 304 268 284 c 1,67,-1
 268 280 l 1,68,69
 252 248 252 248 252 224 c 2,70,-1
 252 184 l 2,71,72
 252 140 252 140 288 122 c 0,73,74
 338 96 338 96 346 74 c 1,75,76
 346 74 346 74 346 68 c 2,77,78
 346 64 346 64 341 48 c 128,-1,79
 336 32 336 32 332 28 c 1,80,81
 312 32 312 32 278 32 c 128,-1,82
 244 32 244 32 220 16 c 128,-1,83
 196 0 196 0 176 0 c 2,84,-1
 152 0 l 2,85,86
 112 0 112 0 111 12 c 128,-1,87
 110 24 110 24 109 31 c 128,-1,88
 108 38 108 38 110 47 c 128,-1,89
 112 56 112 56 142 82 c 128,-1,90
 172 108 172 108 180 188 c 128,-1,91
 188 268 188 268 190 412 c 1,92,-1
 190 610 l 1,93,94
 188 936 188 936 186 1032 c 0,95,96
 182 1186 182 1186 124 1196 c 1,97,-1
 120 1196 l 2,98,99
 102 1196 102 1196 87 1184 c 128,-1,100
 72 1172 72 1172 64 1168 c 1,16,17
EndSplineSet
Validated: 1
EndChar

StartChar: S
Encoding: 83 83 50
Width: 974
VWidth: 1894
Flags: W
HStem: -32 70<393.979 684.838> 1306 96<330.381 670.902> 1344 20G<748 854>
VStem: 94 80<838.251 1137.45> 832 78<192.44 472.388>
LayerCount: 2
Fore
SplineSet
422 1386 m 1,0,1
 462 1402 462 1402 511 1402 c 128,-1,2
 560 1402 560 1402 628 1379 c 128,-1,3
 696 1356 696 1356 748 1356 c 1,4,-1
 840 1364 l 2,5,6
 844 1364 844 1364 848 1364 c 0,7,8
 860 1364 860 1364 868 1360 c 0,9,10
 880 1356 880 1356 881 1353 c 128,-1,11
 882 1350 882 1350 882 1328 c 128,-1,12
 882 1306 882 1306 830 1218 c 128,-1,13
 778 1130 778 1130 750 1102 c 128,-1,14
 722 1074 722 1074 710 1074 c 1,15,-1
 700 1076 l 1,16,17
 700 1076 700 1076 700 1102 c 2,18,19
 700 1108 700 1108 698 1114 c 0,20,21
 696 1132 696 1132 700 1156 c 0,22,23
 704 1184 704 1184 704 1199 c 128,-1,24
 704 1214 704 1214 698 1231 c 128,-1,25
 692 1248 692 1248 652 1276 c 128,-1,26
 612 1304 612 1304 516 1304 c 0,27,28
 506 1304 506 1304 496 1306 c 1,29,30
 416 1306 416 1306 394 1298 c 0,31,32
 368 1290 368 1290 313 1249 c 128,-1,33
 258 1208 258 1208 224 1155 c 128,-1,34
 190 1102 190 1102 182 1073 c 128,-1,35
 174 1044 174 1044 174 949 c 128,-1,36
 174 854 174 854 234 806 c 128,-1,37
 294 758 294 758 461 741 c 128,-1,38
 628 724 628 724 672 702 c 1,39,-1
 674 702 l 1,40,41
 790 656 790 656 864 496 c 0,42,43
 902 412 902 412 906 375 c 128,-1,44
 910 338 910 338 910 304 c 128,-1,45
 910 270 910 270 886 201 c 128,-1,46
 862 132 862 132 805 61 c 128,-1,47
 748 -10 748 -10 717 -21 c 128,-1,48
 686 -32 686 -32 583 -32 c 128,-1,49
 480 -32 480 -32 370 8 c 128,-1,50
 260 48 260 48 192 48 c 1,51,-1
 76 36 l 1,52,53
 76 36 76 36 70 36 c 2,54,55
 58 36 58 36 54 42 c 1,56,-1
 48 72 l 1,57,58
 48 104 48 104 73 152 c 128,-1,59
 98 200 98 200 114 212 c 1,60,61
 134 206 134 206 190 160 c 128,-1,62
 246 114 246 114 380 76 c 128,-1,63
 514 38 514 38 556 38 c 128,-1,64
 598 38 598 38 640 48 c 128,-1,65
 682 58 682 58 757 145 c 128,-1,66
 832 232 832 232 832 301 c 128,-1,67
 832 370 832 370 802 450 c 128,-1,68
 772 530 772 530 752 558 c 128,-1,69
 732 586 732 586 683 615 c 128,-1,70
 634 644 634 644 595 652 c 128,-1,71
 556 660 556 660 446 662 c 128,-1,72
 336 664 336 664 298 672 c 0,73,74
 222 688 222 688 142 822 c 1,75,76
 108 888 108 888 101 913 c 128,-1,77
 94 938 94 938 94 1015 c 128,-1,78
 94 1092 94 1092 116 1144 c 0,79,80
 136 1196 136 1196 192 1257 c 128,-1,81
 248 1318 248 1318 293 1345 c 128,-1,82
 338 1372 338 1372 422 1386 c 1,0,1
EndSplineSet
Validated: 1
EndChar

StartChar: T
Encoding: 84 84 51
Width: 1140
VWidth: 1894
Flags: W
HStem: -2 62<618 651.078> 1224 84<137.602 466.455> 1242 72<275.545 531.674> 1264 88<643.981 944.936> 1286 64<950 1009.06>
VStem: 512 66<88 955.703> 1016 94<1098.26 1284.19>
LayerCount: 2
Fore
SplineSet
74 1000 m 1,0,1
 62 1002 62 1002 47 1023 c 128,-1,2
 32 1044 32 1044 32 1154 c 128,-1,3
 32 1264 32 1264 42 1290 c 1,4,-1
 52 1308 l 1,5,-1
 260 1308 l 2,6,7
 404 1308 404 1308 484 1314 c 128,-1,8
 564 1320 564 1320 582 1322 c 128,-1,9
 600 1324 600 1324 609 1324 c 128,-1,10
 618 1324 618 1324 632 1326 c 128,-1,11
 646 1328 646 1328 654 1329 c 128,-1,12
 662 1330 662 1330 672 1331 c 128,-1,13
 682 1332 682 1332 688 1334 c 128,-1,14
 694 1336 694 1336 700 1338 c 128,-1,15
 706 1340 706 1340 710 1342 c 128,-1,16
 714 1344 714 1344 723 1348 c 128,-1,17
 732 1352 732 1352 760 1352 c 2,18,-1
 996 1350 l 2,19,20
 1082 1350 1082 1350 1106 1344 c 1,21,22
 1110 1336 1110 1336 1110 1316 c 0,23,24
 1110 1124 1110 1124 1050 1084 c 0,25,26
 1042 1078 1042 1078 1039 1078 c 128,-1,27
 1036 1078 1036 1078 1030 1082 c 1,28,29
 1020 1094 1020 1094 1020 1120 c 2,30,-1
 1016 1232 l 1,31,-1
 1016 1234 l 1,32,33
 1012 1258 1012 1258 995 1272 c 128,-1,34
 978 1286 978 1286 956 1286 c 2,35,-1
 950 1286 l 1,36,-1
 946 1282 l 1,37,38
 912 1280 912 1280 873 1272 c 128,-1,39
 834 1264 834 1264 754 1264 c 128,-1,40
 674 1264 674 1264 643 1248 c 128,-1,41
 612 1232 612 1232 601 1180 c 128,-1,42
 590 1128 590 1128 584 552 c 2,43,-1
 578 88 l 1,44,-1
 618 60 l 1,45,-1
 620 60 l 1,46,47
 644 46 644 46 656 20 c 1,48,-1
 656 18 l 1,49,-1
 662 -2 l 1,50,51
 642 -10 642 -10 567 -15 c 128,-1,52
 492 -20 492 -20 473 -21 c 128,-1,53
 454 -22 454 -22 445 -21 c 128,-1,54
 436 -20 436 -20 425 -7 c 128,-1,55
 414 6 414 6 408 12 c 1,56,57
 410 20 410 20 418 35 c 128,-1,58
 426 50 426 50 453 63 c 128,-1,59
 480 76 480 76 492 94 c 128,-1,60
 504 112 504 112 511 153 c 128,-1,61
 518 194 518 194 518 228 c 128,-1,62
 518 262 518 262 512 298 c 1,63,-1
 506 476 l 1,64,-1
 512 1050 l 1,65,-1
 510 1108 l 1,66,-1
 532 1242 l 1,67,-1
 210 1224 l 1,68,-1
 208 1224 l 1,69,70
 156 1212 156 1212 137 1184 c 128,-1,71
 118 1156 118 1156 108 1090 c 128,-1,72
 98 1024 98 1024 88 1006 c 1,73,-1
 74 1000 l 1,0,1
EndSplineSet
Validated: 1
EndChar

StartChar: U
Encoding: 85 85 52
Width: 1090
VWidth: 1894
Flags: W
HStem: -66 74<390.552 642.268>
VStem: 126 66<258.301 837.744> 910 72<696.097 1198.46>
LayerCount: 2
Fore
SplineSet
46 1220 m 1,0,-1
 46 1260 l 1,1,2
 50 1268 50 1268 73 1276 c 128,-1,3
 96 1284 96 1284 125 1292 c 128,-1,4
 154 1300 154 1300 192 1308 c 0,5,6
 228 1316 228 1316 252 1320 c 1,7,8
 272 1326 272 1326 286 1326 c 1,9,-1
 288 1324 l 1,10,11
 300 1324 300 1324 315 1308 c 128,-1,12
 330 1292 330 1292 332 1272 c 128,-1,13
 334 1252 334 1252 335 1245 c 128,-1,14
 336 1238 336 1238 336 1236 c 0,15,16
 328 1232 328 1232 292 1228 c 128,-1,17
 256 1224 256 1224 244 1188 c 128,-1,18
 232 1152 232 1152 224 1080 c 0,19,20
 216 1012 216 1012 210 944 c 1,21,-1
 192 422 l 2,22,23
 192 406 192 406 194 388 c 0,24,25
 206 250 206 250 298 129 c 128,-1,26
 390 8 390 8 524 8 c 0,27,28
 704 8 704 8 798 288 c 0,29,30
 850 442 850 442 880 650 c 0,31,32
 910 856 910 856 910 944 c 1,33,-1
 894 1228 l 1,34,-1
 788 1214 l 2,35,36
 784 1214 784 1214 780 1214 c 0,37,38
 764 1214 764 1214 756 1220 c 1,39,-1
 748 1252 l 1,40,41
 748 1282 748 1282 810 1292 c 128,-1,42
 872 1302 872 1302 910 1317 c 128,-1,43
 948 1332 948 1332 958 1332 c 1,44,-1
 960 1334 l 1,45,46
 970 1334 970 1334 1002 1316 c 0,47,48
 1036 1298 1036 1298 1042 1290 c 1,49,-1
 1048 1230 l 1,50,51
 980 1216 980 1216 980 1120 c 1,52,-1
 982 1098 l 1,53,-1
 982 1062 l 2,54,55
 982 958 982 958 948 704 c 128,-1,56
 914 450 914 450 886 339 c 128,-1,57
 858 228 858 228 841 188 c 128,-1,58
 824 148 824 148 772 75 c 128,-1,59
 720 2 720 2 675 -31 c 128,-1,60
 630 -64 630 -64 570 -64 c 0,61,62
 568 -64 568 -64 564 -66 c 1,63,64
 564 -66 564 -66 554 -66 c 2,65,66
 498 -66 498 -66 424 -44 c 0,67,68
 340 -20 340 -20 325 1 c 128,-1,69
 310 22 310 22 267 58 c 128,-1,70
 224 94 224 94 195 149 c 128,-1,71
 166 204 166 204 154 254 c 0,72,73
 140 304 140 304 133 389 c 128,-1,74
 126 474 126 474 126 548 c 128,-1,75
 126 622 126 622 140 761 c 128,-1,76
 154 900 154 900 154 966 c 1,77,-1
 144 1090 l 1,78,79
 138 1138 138 1138 108 1171 c 128,-1,80
 78 1204 78 1204 46 1220 c 1,0,-1
EndSplineSet
Validated: 1
EndChar

StartChar: V
Encoding: 86 86 53
Width: 1138
VWidth: 1894
Flags: W
HStem: 1372 48G<232 299 968 1018>
LayerCount: 2
Fore
SplineSet
42 1316 m 2,0,1
 62 1346 62 1346 130 1369 c 128,-1,2
 198 1392 198 1392 266 1392 c 0,3,4
 332 1392 332 1392 332 1362 c 2,5,6
 332 1362 332 1362 332 1360 c 2,7,8
 332 1344 332 1344 310 1324 c 1,9,-1
 274 1280 l 1,10,-1
 290 1182 l 2,11,12
 306 1096 306 1096 344 969 c 128,-1,13
 382 842 382 842 404 751 c 128,-1,14
 426 660 426 660 473 544 c 128,-1,15
 520 428 520 428 538 388 c 128,-1,16
 556 348 556 348 566 323 c 128,-1,17
 576 298 576 298 591 268 c 128,-1,18
 606 238 606 238 617 227 c 128,-1,19
 628 216 628 216 638 216 c 128,-1,20
 648 216 648 216 655 221 c 128,-1,21
 662 226 662 226 668 236 c 128,-1,22
 674 246 674 246 680 259 c 128,-1,23
 686 272 686 272 692 292 c 128,-1,24
 698 312 698 312 703 330 c 128,-1,25
 708 348 708 348 715 377 c 128,-1,26
 722 406 722 406 727 429 c 128,-1,27
 732 452 732 452 740 488 c 128,-1,28
 748 524 748 524 788 695 c 128,-1,29
 828 866 828 866 861 989 c 128,-1,30
 894 1112 894 1112 907 1250 c 128,-1,31
 920 1388 920 1388 932 1404 c 128,-1,32
 944 1420 944 1420 992 1420 c 0,33,34
 994 1420 994 1420 996 1420 c 0,35,36
 1040 1420 1040 1420 1068 1392 c 128,-1,37
 1096 1364 1096 1364 1102 1350 c 1,38,39
 1096 1342 1096 1342 1064 1327 c 128,-1,40
 1032 1312 1032 1312 1019 1290 c 128,-1,41
 1006 1268 1006 1268 996 1230 c 128,-1,42
 986 1192 986 1192 936 1032 c 128,-1,43
 886 872 886 872 872 820 c 1,44,45
 790 412 790 412 743 248 c 128,-1,46
 696 84 696 84 696 14 c 2,47,-1
 696 6 l 2,48,49
 696 -48 696 -48 672 -72 c 128,-1,50
 648 -96 648 -96 640 -100 c 1,51,-1
 638 -100 l 2,52,53
 632 -100 632 -100 620 -92 c 128,-1,54
 608 -84 608 -84 582 -3 c 128,-1,55
 556 78 556 78 498 241 c 128,-1,56
 440 404 440 404 424 441 c 128,-1,57
 408 478 408 478 387 554 c 128,-1,58
 366 630 366 630 343 681 c 128,-1,59
 320 732 320 732 301 819 c 128,-1,60
 282 906 282 906 242 993 c 128,-1,61
 202 1080 202 1080 191 1150 c 128,-1,62
 180 1220 180 1220 168 1236 c 1,63,64
 152 1252 152 1252 107 1257 c 128,-1,65
 62 1262 62 1262 44 1280 c 2,66,-1
 30 1296 l 1,67,-1
 42 1316 l 2,0,1
EndSplineSet
Validated: 1
EndChar

StartChar: W
Encoding: 87 87 54
Width: 1434
VWidth: 1894
Flags: W
HStem: -20 114<541.524 627.616>
VStem: 130 88<993.085 1238.82> 504 146<-15.6851 92.4062> 712 138<290.025 541.547> 1252 144<1118.89 1313.06>
LayerCount: 2
Fore
SplineSet
1252 1164 m 1,0,-1
 1250 1278 l 1,1,2
 1254 1286 1254 1286 1267 1298 c 128,-1,3
 1280 1310 1280 1310 1308 1316 c 128,-1,4
 1336 1322 1336 1322 1350 1321 c 128,-1,5
 1364 1320 1364 1320 1380 1309 c 128,-1,6
 1396 1298 1396 1298 1396 1277 c 128,-1,7
 1396 1256 1396 1256 1348 1109 c 128,-1,8
 1300 962 1300 962 1279 923 c 128,-1,9
 1258 884 1258 884 1202 677 c 128,-1,10
 1146 470 1146 470 1126 323 c 128,-1,11
 1106 176 1106 176 1072 92 c 128,-1,12
 1038 8 1038 8 1024 -6 c 1,13,-1
 1022 -6 l 1,14,15
 1012 -12 1012 -12 1006 -14 c 1,16,17
 950 6 950 6 918 90 c 128,-1,18
 886 174 886 174 853 222 c 128,-1,19
 820 270 820 270 782 272 c 1,20,-1
 770 274 l 1,21,-1
 716 208 l 1,22,-1
 714 206 l 1,23,24
 692 162 692 162 678 100 c 128,-1,25
 664 38 664 38 650 16 c 1,26,-1
 650 14 l 1,27,28
 640 -6 640 -6 634 -16 c 1,29,-1
 590 -20 l 1,30,31
 522 -20 522 -20 504 9 c 128,-1,32
 486 38 486 38 462 120 c 128,-1,33
 438 202 438 202 406 315 c 128,-1,34
 374 428 374 428 331 523 c 128,-1,35
 288 618 288 618 267 703 c 128,-1,36
 246 788 246 788 221 842 c 128,-1,37
 196 896 196 896 163 1003 c 128,-1,38
 130 1110 130 1110 130 1165 c 128,-1,39
 130 1220 130 1220 75 1245 c 128,-1,40
 20 1270 20 1270 20 1286 c 0,41,42
 20 1334 20 1334 186 1334 c 0,43,44
 254 1334 254 1334 276 1326 c 1,45,-1
 280 1290 l 1,46,47
 280 1266 280 1266 276 1254 c 1,48,49
 270 1250 270 1250 262 1248 c 0,50,51
 218 1238 218 1238 218 1198 c 0,52,53
 218 1174 218 1174 268 968 c 128,-1,54
 318 762 318 762 381 602 c 128,-1,55
 444 442 444 442 473 350 c 128,-1,56
 502 258 502 258 513 222 c 128,-1,57
 524 186 524 186 530 169 c 128,-1,58
 536 152 536 152 544 132 c 128,-1,59
 552 112 552 112 561 103 c 128,-1,60
 570 94 570 94 581 94 c 128,-1,61
 592 94 592 94 600 99 c 128,-1,62
 608 104 608 104 616 117 c 128,-1,63
 624 130 624 130 628 140 c 128,-1,64
 632 150 632 150 641 171 c 128,-1,65
 650 192 650 192 673 247 c 128,-1,66
 696 302 696 302 704 338 c 128,-1,67
 712 374 712 374 712 451 c 128,-1,68
 712 528 712 528 717 542 c 128,-1,69
 722 556 722 556 751 564 c 128,-1,70
 780 572 780 572 806 588 c 1,71,-1
 848 602 l 1,72,73
 848 602 848 602 852 596 c 2,74,75
 856 592 856 592 858 570 c 1,76,-1
 850 434 l 1,77,78
 850 352 850 352 884 304 c 0,79,80
 920 256 920 256 928 244 c 1,81,82
 936 236 936 236 952 224 c 1,83,-1
 984 212 l 1,84,85
 1014 212 1014 212 1033 244 c 128,-1,86
 1052 276 1052 276 1075 359 c 128,-1,87
 1098 442 1098 442 1107 467 c 128,-1,88
 1116 492 1116 492 1174 756 c 0,89,90
 1234 1020 1234 1020 1242 1064 c 128,-1,91
 1250 1108 1250 1108 1252 1164 c 1,0,-1
EndSplineSet
Validated: 1
EndChar

StartChar: X
Encoding: 88 88 55
Width: 1016
VWidth: 1894
Flags: W
HStem: 24 70<68.3176 159.976 232.45 287.75> 1292 108<796.074 887.867> 1342 20G<142 218>
VStem: 440 98<580.625 692> 692 200<1274.06 1383.58> 704 248<18.2495 40 42 87.1846>
LayerCount: 2
Fore
SplineSet
796 1272 m 24,0,1
 756 1164 756 1164 647 954 c 128,-1,2
 538 744 538 744 538 716 c 128,-1,3
 538 688 538 688 615 494 c 128,-1,4
 692 300 692 300 732 259 c 128,-1,5
 772 218 772 218 797 172 c 128,-1,6
 822 126 822 126 869 107 c 128,-1,7
 916 88 916 88 934 64 c 128,-1,8
 952 40 952 40 952 32 c 1,9,10
 952 32 952 32 954 32 c 1,11,12
 954 26 954 26 944 18 c 128,-1,13
 934 10 934 10 839 10 c 128,-1,14
 744 10 744 10 729 13 c 128,-1,15
 714 16 714 16 705 26 c 128,-1,16
 696 36 696 36 696 40 c 1,17,-1
 694 42 l 1,18,19
 694 48 694 48 706 62 c 0,20,21
 718 78 718 78 718 114 c 1,22,-1
 698 172 l 2,23,24
 696 176 696 176 627 336 c 128,-1,25
 558 496 558 496 554 504 c 0,26,27
 548 516 548 516 548 518 c 2,28,-1
 528 548 l 2,29,30
 524 552 524 552 520 556 c 1,31,32
 520 556 520 556 504 556 c 2,33,34
 492 556 492 556 468 539 c 128,-1,35
 444 522 444 522 396 419 c 128,-1,36
 348 316 348 316 316 266 c 128,-1,37
 284 216 284 216 271 197 c 128,-1,38
 258 178 258 178 252 170 c 128,-1,39
 246 162 246 162 239 151 c 128,-1,40
 232 140 232 140 230 132 c 128,-1,41
 228 124 228 124 228 116 c 2,42,-1
 228 104 l 2,43,44
 228 96 228 96 234 92 c 1,45,46
 236 88 236 88 240 84 c 1,47,48
 244 84 244 84 250 80 c 2,49,-1
 276 66 l 2,50,51
 302 52 302 52 308 42 c 1,52,53
 306 36 306 36 295 24 c 128,-1,54
 284 12 284 12 184 12 c 0,55,56
 172 12 172 12 162 10 c 1,57,58
 82 10 82 10 64 18 c 1,59,60
 58 24 58 24 58 45 c 128,-1,61
 58 66 58 66 68 76 c 128,-1,62
 78 86 78 86 109 94 c 128,-1,63
 140 102 140 102 154 120 c 128,-1,64
 168 138 168 138 189 180 c 128,-1,65
 210 222 210 222 247 276 c 128,-1,66
 284 330 284 330 362 492 c 128,-1,67
 440 654 440 654 440 692 c 1,68,-1
 442 694 l 1,69,70
 440 732 440 732 392 828 c 128,-1,71
 344 924 344 924 304 1010 c 1,72,73
 258 1096 258 1096 219 1169 c 128,-1,74
 180 1242 180 1242 138 1269 c 128,-1,75
 96 1296 96 1296 89 1307 c 128,-1,76
 82 1318 82 1318 82 1333 c 128,-1,77
 82 1348 82 1348 88 1354 c 1,78,79
 104 1362 104 1362 180 1362 c 128,-1,80
 256 1362 256 1362 289 1339 c 128,-1,81
 322 1316 322 1316 330 1304 c 1,82,83
 330 1298 330 1298 316 1276 c 128,-1,84
 302 1254 302 1254 302 1233 c 128,-1,85
 302 1212 302 1212 307 1187 c 128,-1,86
 312 1162 312 1162 368 1027 c 128,-1,87
 424 892 424 892 449 850 c 128,-1,88
 474 808 474 808 502 806 c 1,89,-1
 516 806 l 1,90,-1
 644 1086 l 1,91,92
 684 1186 684 1186 694 1214 c 128,-1,93
 704 1242 704 1242 704 1266 c 128,-1,94
 704 1290 704 1290 698 1313 c 128,-1,95
 692 1336 692 1336 692 1344 c 2,96,-1
 692 1358 l 1,97,98
 704 1368 704 1368 736 1384 c 128,-1,99
 768 1400 768 1400 776 1400 c 2,100,-1
 792 1400 l 2,101,102
 892 1400 892 1400 892 1330 c 0,103,104
 892 1310 892 1310 888 1306 c 128,-1,105
 884 1302 884 1302 846 1292 c 0,106,107
 798 1280 798 1280 796 1272 c 24,0,1
EndSplineSet
Validated: 1
EndChar

StartChar: Y
Encoding: 89 89 56
Width: 1164
VWidth: 1894
Flags: W
HStem: -68 76<513.441 552> 1320 64<306.064 359.311>
VStem: 578 78<36 465.089>
LayerCount: 2
Fore
SplineSet
594 680 m 2,0,-1
 600 680 l 1,1,2
 622 684 622 684 650 726 c 1,3,-1
 650 728 l 1,4,5
 746 900 746 900 798 1020 c 1,6,7
 904 1216 904 1216 906 1290 c 1,8,-1
 906 1292 l 1,9,-1
 902 1328 l 1,10,11
 904 1364 904 1364 920 1378 c 128,-1,12
 936 1392 936 1392 1001 1392 c 128,-1,13
 1066 1392 1066 1392 1094 1363 c 128,-1,14
 1122 1334 1122 1334 1132 1320 c 1,15,16
 1122 1316 1122 1316 1078 1308 c 128,-1,17
 1034 1300 1034 1300 1025 1266 c 128,-1,18
 1016 1232 1016 1232 915 1091 c 128,-1,19
 814 950 814 950 754 816 c 128,-1,20
 694 682 694 682 667 638 c 128,-1,21
 640 594 640 594 640 469 c 128,-1,22
 640 344 640 344 648 200 c 2,23,-1
 656 36 l 1,24,-1
 686 6 l 1,25,26
 688 -8 688 -8 688 -38 c 1,27,28
 670 -44 670 -44 616 -56 c 128,-1,29
 562 -68 562 -68 536 -68 c 128,-1,30
 510 -68 510 -68 500 -66 c 1,31,-1
 500 -60 l 2,32,33
 500 -48 500 -48 520 -20 c 128,-1,34
 540 8 540 8 550 8 c 2,35,-1
 552 8 l 1,36,-1
 554 10 l 1,37,38
 564 12 564 12 570 18 c 128,-1,39
 576 24 576 24 578 34 c 2,40,-1
 580 146 l 2,41,42
 580 256 580 256 567 399 c 128,-1,43
 554 542 554 542 547 570 c 128,-1,44
 540 598 540 598 511 633 c 128,-1,45
 482 668 482 668 450 733 c 128,-1,46
 418 798 418 798 418 822 c 128,-1,47
 418 846 418 846 357 963 c 128,-1,48
 296 1080 296 1080 274 1125 c 128,-1,49
 252 1170 252 1170 242 1189 c 128,-1,50
 232 1208 232 1208 217 1232 c 128,-1,51
 202 1256 202 1256 191 1264 c 128,-1,52
 180 1272 180 1272 148 1272 c 128,-1,53
 116 1272 116 1272 77 1302 c 128,-1,54
 38 1332 38 1332 26 1344 c 1,55,56
 30 1358 30 1358 60 1371 c 128,-1,57
 90 1384 90 1384 226 1384 c 128,-1,58
 362 1384 362 1384 362 1342 c 0,59,60
 362 1332 362 1332 356 1330 c 128,-1,61
 350 1328 350 1328 340 1327 c 128,-1,62
 330 1326 330 1326 327 1325 c 128,-1,63
 324 1324 324 1324 316 1320 c 1,64,65
 308 1320 308 1320 306 1316 c 2,66,-1
 300 1304 l 1,67,-1
 294 1284 l 1,68,69
 294 1164 294 1164 375 1035 c 128,-1,70
 456 906 456 906 475 845 c 128,-1,71
 494 784 494 784 513 758 c 128,-1,72
 532 732 532 732 552 706 c 128,-1,73
 572 680 572 680 594 680 c 2,0,-1
EndSplineSet
Validated: 1
EndChar

StartChar: Z
Encoding: 90 90 57
Width: 980
VWidth: 1894
Flags: W
HStem: -38 84<137.22 491.531> 594 86<463.371 509.923> 1338 20G<724 863>
VStem: 62 68<52.5205 155.781> 124 94<1172 1201.34> 124 60<1064.76 1167.33> 146 38<1064 1114.03>
LayerCount: 2
Fore
SplineSet
386 530 m 1,0,-1
 320 614 l 1,1,-1
 324 632 l 1,2,-1
 324 634 l 1,3,4
 332 648 332 648 389 664 c 128,-1,5
 446 680 446 680 464 680 c 0,6,7
 502 680 502 680 506 714 c 1,8,9
 512 730 512 730 554 789 c 128,-1,10
 596 848 596 848 666 1000 c 1,11,12
 742 1146 742 1146 767 1173 c 128,-1,13
 792 1200 792 1200 792 1216 c 128,-1,14
 792 1232 792 1232 788 1239 c 128,-1,15
 784 1246 784 1246 774 1251 c 128,-1,16
 764 1256 764 1256 757 1258 c 128,-1,17
 750 1260 750 1260 738 1262 c 128,-1,18
 726 1264 726 1264 698 1272 c 0,19,20
 674 1280 674 1280 608 1280 c 2,21,22
 608 1280 608 1280 590 1280 c 2,23,24
 510 1280 510 1280 437 1257 c 128,-1,25
 364 1234 364 1234 344 1227 c 128,-1,26
 324 1220 324 1220 313 1217 c 128,-1,27
 302 1214 302 1214 286 1209 c 128,-1,28
 270 1204 270 1204 261 1201 c 128,-1,29
 252 1198 252 1198 243 1193 c 128,-1,30
 234 1188 234 1188 228 1183 c 128,-1,31
 222 1178 222 1178 218 1174 c 1,32,-1
 218 1172 l 1,33,-1
 216 1172 l 1,34,35
 190 1122 190 1122 184 1080 c 1,36,-1
 184 1078 l 1,37,38
 182 1052 182 1052 170 1044 c 1,39,-1
 146 1064 l 1,40,41
 124 1088 124 1088 124 1164 c 2,42,-1
 124 1180 l 2,43,44
 124 1268 124 1268 170 1314 c 0,45,46
 178 1324 178 1324 186 1324 c 128,-1,47
 194 1324 194 1324 217 1312 c 128,-1,48
 240 1300 240 1300 286 1300 c 128,-1,49
 332 1300 332 1300 471 1320 c 128,-1,50
 610 1340 610 1340 724 1348 c 2,51,-1
 860 1358 l 1,52,53
 866 1350 866 1350 874 1334 c 1,54,-1
 874 1332 l 1,55,56
 888 1306 888 1306 888 1288 c 2,57,-1
 888 1278 l 1,58,59
 876 1240 876 1240 752 1035 c 128,-1,60
 628 830 628 830 600 779 c 128,-1,61
 572 728 572 728 572 700 c 128,-1,62
 572 672 572 672 580 650 c 128,-1,63
 588 628 588 628 588 608 c 1,64,65
 584 606 584 606 570 600 c 128,-1,66
 556 594 556 594 527 594 c 128,-1,67
 498 594 498 594 444 531 c 128,-1,68
 390 468 390 468 372 432 c 128,-1,69
 354 396 354 396 324 370 c 128,-1,70
 294 344 294 344 250 281 c 128,-1,71
 206 218 206 218 168 163 c 128,-1,72
 130 108 130 108 130 88 c 128,-1,73
 130 68 130 68 137 60 c 128,-1,74
 144 52 144 52 157 49 c 128,-1,75
 170 46 170 46 180 46 c 0,76,77
 190 48 190 48 206 48 c 2,78,79
 206 48 206 48 228 48 c 1,80,-1
 262 48 l 1,81,82
 262 48 262 48 368 48 c 2,83,84
 370 48 370 48 372 46 c 1,85,86
 436 46 436 46 532 74 c 0,87,88
 632 102 632 102 728 115 c 128,-1,89
 824 128 824 128 841 138 c 128,-1,90
 858 148 858 148 877 190 c 128,-1,91
 896 232 896 232 906 232 c 0,92,93
 924 232 924 232 924 177 c 128,-1,94
 924 122 924 122 909 55 c 128,-1,95
 894 -12 894 -12 882 -30 c 1,96,97
 872 -30 872 -30 844 -7 c 128,-1,98
 816 16 816 16 793 23 c 128,-1,99
 770 30 770 30 726 30 c 2,100,-1
 636 30 l 2,101,102
 582 30 582 30 527 13 c 128,-1,103
 472 -4 472 -4 340 -21 c 128,-1,104
 208 -38 208 -38 153 -38 c 128,-1,105
 98 -38 98 -38 80 -15 c 128,-1,106
 62 8 62 8 62 57 c 128,-1,107
 62 106 62 106 108 180 c 128,-1,108
 154 254 154 254 274 388 c 1,109,-1
 386 530 l 1,0,-1
EndSplineSet
Validated: 1
EndChar

StartChar: bracketleft
Encoding: 91 91 58
Width: 404
VWidth: 1894
Flags: W
HStem: -326 28<266 380.819> -320 52<346.548 547.025> 1487 81<301.865 521.026>
VStem: 156 66<-75.962 1223.08>
LayerCount: 2
Fore
SplineSet
152 416 m 1,0,-1
 162 824 l 1,1,2
 176 1090 176 1090 176 1472 c 2,3,-1
 176 1496 l 2,4,5
 176 1536 176 1536 246 1556 c 0,6,7
 282 1568 282 1568 390 1568 c 1,8,9
 500 1564 500 1564 524 1560 c 2,10,-1
 558 1554 l 1,11,12
 554 1488 554 1488 441 1487 c 128,-1,13
 328 1486 328 1486 301 1479 c 128,-1,14
 274 1472 274 1472 260 1440 c 0,15,16
 244 1404 244 1404 236 1096 c 1,17,-1
 222 -268 l 1,18,-1
 266 -290 l 1,19,-1
 268 -290 l 1,20,21
 276 -294 276 -294 288 -294 c 1,22,-1
 288 -298 l 1,23,-1
 312 -298 l 2,24,25
 340 -298 340 -298 385 -283 c 128,-1,26
 430 -268 430 -268 477 -268 c 128,-1,27
 524 -268 524 -268 543 -289 c 128,-1,28
 562 -310 562 -310 570 -320 c 1,29,-1
 140 -326 l 1,30,-1
 156 196 l 1,31,-1
 152 416 l 1,0,-1
EndSplineSet
Validated: 1
EndChar

StartChar: backslash
Encoding: 92 92 59
Width: 672
VWidth: 1894
Flags: W
LayerCount: 2
Fore
SplineSet
750 -112 m 1,0,1
 752 -116 752 -116 752 -124 c 128,-1,2
 752 -132 752 -132 745 -145 c 128,-1,3
 738 -158 738 -158 730 -158 c 128,-1,4
 722 -158 722 -158 708 -146 c 128,-1,5
 694 -134 694 -134 670 -85 c 128,-1,6
 646 -36 646 -36 516 222 c 1,7,8
 400 480 400 480 136 1108 c 1,9,10
 88 1208 88 1208 22 1307 c 128,-1,11
 -44 1406 -44 1406 -44 1440 c 128,-1,12
 -44 1474 -44 1474 -40 1480 c 1,13,-1
 -8 1490 l 1,14,-1
 144 1244 l 1,15,16
 296 864 296 864 418 593 c 128,-1,17
 540 322 540 322 641 117 c 128,-1,18
 742 -88 742 -88 750 -110 c 1,19,-1
 750 -112 l 1,0,1
EndSplineSet
Validated: 1
EndChar

StartChar: bracketright
Encoding: 93 93 60
Width: 408
VWidth: 1894
Flags: W
HStem: -284 64<-68.4072 150> 1518 66<-58 151.215>
VStem: 180 62<212 1248.36>
LayerCount: 2
Fore
SplineSet
66 -220 m 2,0,-1
 150 -220 l 1,1,-1
 174 212 l 1,2,-1
 188 382 l 1,3,-1
 174 772 l 1,4,5
 180 984 180 984 180 1193 c 128,-1,6
 180 1402 180 1402 168 1440 c 128,-1,7
 156 1478 156 1478 152 1484 c 128,-1,8
 148 1490 148 1490 140 1494 c 2,9,-1
 108 1504 l 1,10,11
 96 1504 96 1504 88 1506 c 128,-1,12
 80 1508 80 1508 64 1508 c 2,13,-1
 -58 1518 l 1,14,-1
 -102 1548 l 1,15,-1
 -92 1558 l 2,16,17
 -70 1580 -70 1580 -52 1584 c 0,18,19
 -36 1588 -36 1588 76 1592 c 2,20,-1
 236 1598 l 2,21,22
 248 1598 248 1598 252 1594 c 0,23,24
 260 1588 260 1588 264 1564 c 1,25,-1
 268 1496 l 1,26,-1
 242 944 l 1,27,-1
 254 396 l 1,28,29
 252 280 252 280 236 107 c 128,-1,30
 220 -66 220 -66 220 -117 c 128,-1,31
 220 -168 220 -168 226 -184 c 1,32,-1
 226 -186 l 1,33,34
 236 -206 236 -206 246 -232 c 1,35,-1
 226 -280 l 1,36,-1
 54 -284 l 1,37,38
 -58 -284 -58 -284 -78 -260 c 1,39,40
 -40 -220 -40 -220 66 -220 c 2,0,-1
EndSplineSet
Validated: 1
EndChar

StartChar: a
Encoding: 97 97 61
Width: 760
VWidth: 1894
Flags: W
HStem: 10 48<251.095 444.161> 470 76<250.549 541.918> 818 59<263.414 523.83>
VStem: 68 56<142.845 367.826> 608 64<539.941 728.111>
LayerCount: 2
Fore
SplineSet
138 722 m 1,0,1
 138 722 138 722 208 814 c 0,2,3
 266 870 266 870 358 876 c 0,4,5
 374 877 374 877 389 877 c 0,6,7
 468 877 468 877 520 850 c 0,8,9
 582 818 582 818 598 802 c 128,-1,10
 614 786 614 786 639 733 c 128,-1,11
 664 680 664 680 668 670 c 1,12,13
 668 660 668 660 672 624 c 1,14,-1
 672 554 l 1,15,-1
 652 368 l 1,16,-1
 668 102 l 2,17,18
 670 70 670 70 694 40 c 1,19,-1
 666 0 l 1,20,-1
 620 20 l 1,21,22
 590 40 590 40 576 62 c 128,-1,23
 562 84 562 84 546 88 c 1,24,-1
 534 88 l 1,25,26
 522 84 522 84 510 74 c 128,-1,27
 498 64 498 64 458 37 c 128,-1,28
 418 10 418 10 373 10 c 128,-1,29
 328 10 328 10 256 26 c 0,30,31
 98 61 98 61 72 192 c 0,32,33
 68 212 68 212 68 243 c 128,-1,34
 68 274 68 274 89 362 c 128,-1,35
 110 450 110 450 142 470 c 128,-1,36
 174 490 174 490 287 518 c 128,-1,37
 400 546 400 546 430 546 c 1,38,-1
 536 534 l 1,39,-1
 538 534 l 2,40,41
 570 534 570 534 581 543 c 128,-1,42
 592 552 592 552 595 555 c 128,-1,43
 598 558 598 558 600 563 c 128,-1,44
 602 568 602 568 603 572 c 128,-1,45
 604 576 604 576 605 583 c 128,-1,46
 606 590 606 590 607 593 c 128,-1,47
 608 596 608 596 608 604 c 2,48,-1
 608 644 l 2,49,50
 608 818 608 818 384 818 c 2,51,-1
 318 818 l 2,52,53
 273 818 273 818 204 718 c 0,54,-1
 168 650 l 0,55,56
 152 645 152 645 141 645 c 0,57,58
 120 645 120 645 120 665 c 128,-1,59
 120 685 120 685 138 722 c 1,0,1
556 184 m 0,60,61
 564 198 564 198 564 284 c 0,62,63
 564 380 564 380 550 418 c 128,-1,64
 536 456 536 456 467 463 c 128,-1,65
 398 470 398 470 375 470 c 128,-1,66
 352 470 352 470 339 465 c 128,-1,67
 326 460 326 460 272 455 c 128,-1,68
 218 450 218 450 170 406 c 1,69,-1
 140 344 l 1,70,-1
 126 240 l 2,71,72
 124 228 124 228 124 217 c 0,73,74
 124 169 124 169 156 138 c 0,75,76
 198 96 198 96 244 83 c 0,77,78
 327 58 327 58 341 58 c 0,79,-1
 342 58 l 0,80,81
 488 65 488 65 556 184 c 0,60,61
EndSplineSet
Validated: 1
EndChar

StartChar: b
Encoding: 98 98 62
Width: 862
VWidth: 1894
Flags: W
HStem: 4 42<388.25 495.49> 810 76<378.398 494> 1334 20G<167.5 206.5>
VStem: 162 56<198.91 564.04 786.974 1221.5> 728 72<340.5 613.011>
LayerCount: 2
Fore
SplineSet
220 1104 m 2,0,-1
 220 974 l 1,1,-1
 226 834 l 1,2,3
 236 780 236 780 262 780 c 128,-1,4
 288 780 288 780 309 798 c 128,-1,5
 330 816 330 816 357 838 c 128,-1,6
 384 860 384 860 412 873 c 128,-1,7
 440 886 440 886 456 886 c 2,8,-1
 506 884 l 2,9,10
 508 884 508 884 572 858 c 0,11,12
 726 800 726 800 770 588 c 0,13,14
 800 444 800 444 800 420 c 1,15,-1
 778 298 l 1,16,17
 730 110 730 110 550 32 c 1,18,19
 496 4 496 4 480 4 c 2,20,-1
 440 4 l 2,21,22
 416 4 416 4 364 40 c 128,-1,23
 312 76 312 76 283 76 c 128,-1,24
 254 76 254 76 254 40 c 1,25,-1
 258 2 l 1,26,27
 256 -24 256 -24 186 -24 c 128,-1,28
 116 -24 116 -24 116 -8 c 1,29,-1
 140 36 l 1,30,31
 176 80 176 80 178 140 c 1,32,-1
 162 308 l 1,33,-1
 162 384 l 1,34,-1
 166 890 l 1,35,-1
 160 1136 l 1,36,37
 154 1210 154 1210 136 1222 c 128,-1,38
 118 1234 118 1234 97 1260 c 128,-1,39
 76 1286 76 1286 68 1298 c 1,40,41
 74 1330 74 1330 111 1342 c 128,-1,42
 148 1354 148 1354 187 1354 c 128,-1,43
 226 1354 226 1354 240 1342 c 1,44,-1
 254 1324 l 1,45,46
 260 1310 260 1310 260 1298 c 0,47,48
 260 1270 260 1270 228 1262 c 0,49,50
 220 1260 220 1260 220 1104 c 2,0,-1
218 348 m 2,51,52
 218 280 218 280 231 231 c 128,-1,53
 244 182 244 182 324 118 c 1,54,55
 396 46 396 46 421 46 c 128,-1,56
 446 46 446 46 456 50 c 2,57,-1
 584 104 l 1,58,59
 718 218 718 218 726 380 c 1,60,-1
 728 536 l 2,61,62
 728 538 728 538 728 540 c 0,63,64
 728 624 728 624 648 720 c 0,65,66
 566 816 566 816 494 820 c 1,67,-1
 440 810 l 1,68,69
 400 810 400 810 320 704 c 1,70,71
 224 592 224 592 218 388 c 1,72,-1
 218 348 l 2,51,52
EndSplineSet
Validated: 1
EndChar

StartChar: c
Encoding: 99 99 63
Width: 860
VWidth: 1894
Flags: W
HStem: -68 50<369.912 460 464 531.491> 742 108<584.797 697.042> 810 74<390.828 594.365>
VStem: 56 66<188.269 503.758>
LayerCount: 2
Fore
SplineSet
646 134 m 1,0,-1
 656 192 l 1,1,2
 652 208 652 208 652 219 c 128,-1,3
 652 230 652 230 656 234 c 1,4,-1
 674 238 l 1,5,6
 706 238 706 238 736 206 c 128,-1,7
 766 174 766 174 780 107 c 128,-1,8
 794 40 794 40 796 12 c 1,9,10
 792 10 792 10 776 10 c 0,11,12
 760 12 760 12 740 20 c 1,13,-1
 692 30 l 1,14,-1
 690 26 l 1,15,16
 674 20 674 20 617 -24 c 128,-1,17
 560 -68 560 -68 477 -68 c 128,-1,18
 394 -68 394 -68 330 -40 c 128,-1,19
 266 -12 266 -12 238 6 c 128,-1,20
 210 24 210 24 160 81 c 128,-1,21
 110 138 110 138 86 194 c 128,-1,22
 62 250 62 250 58 266 c 0,23,24
 56 282 56 282 56 300 c 0,25,26
 56 520 56 520 184 671 c 128,-1,27
 312 822 312 822 386 853 c 128,-1,28
 460 884 460 884 472 884 c 128,-1,29
 484 884 484 884 524 868 c 128,-1,30
 564 852 564 852 610 850 c 1,31,-1
 614 850 l 1,32,-1
 672 858 l 1,33,34
 710 858 710 858 726 852 c 1,35,36
 724 832 724 832 707 802 c 128,-1,37
 690 772 690 772 668 757 c 128,-1,38
 646 742 646 742 630 742 c 2,39,-1
 622 742 l 1,40,41
 614 748 614 748 591 779 c 128,-1,42
 568 810 568 810 516 810 c 2,43,-1
 510 810 l 2,44,45
 466 810 466 810 374 766 c 1,46,47
 298 720 298 720 268 694 c 128,-1,48
 238 668 238 668 180 574 c 128,-1,49
 122 480 122 480 122 347 c 128,-1,50
 122 214 122 214 175 148 c 128,-1,51
 228 82 228 82 320 32 c 0,52,53
 410 -18 410 -18 460 -18 c 1,54,55
 460 -18 460 -18 464 -16 c 1,56,57
 516 -16 516 -16 532 -4 c 128,-1,58
 548 8 548 8 592 60 c 128,-1,59
 636 112 636 112 646 134 c 1,0,-1
EndSplineSet
Validated: 1
EndChar

StartChar: d
Encoding: 100 100 64
Width: 904
VWidth: 1894
Flags: W
HStem: -81 58<357.932 493.773> 817 68<356.796 536.666> 1363 20G<642 737>
VStem: 60 64<223 437> 618 156<1287.87 1372.75> 704 56<315 617.985 818.978 1262.54> 722 118<-32.9619 1>
LayerCount: 2
Fore
SplineSet
704 441 m 1,0,1
 704 543 704 543 676 618 c 128,-1,2
 648 693 648 693 625 709 c 128,-1,3
 602 725 602 725 551 771 c 128,-1,4
 500 817 500 817 452 817 c 128,-1,5
 404 817 404 817 336 799 c 0,6,7
 264 779 264 779 164 579 c 0,8,9
 132 515 132 515 130 461 c 2,10,-1
 124 327 l 1,11,-1
 124 313 l 2,12,13
 124 159 124 159 284 37 c 1,14,15
 352 -23 352 -23 414 -23 c 2,16,17
 414 -23 414 -23 416 -23 c 2,18,19
 476 -23 476 -23 526 23 c 1,20,21
 630 113 630 113 682 275 c 0,22,23
 690 301 690 301 696 315 c 1,24,-1
 704 441 l 1,0,1
60 293 m 1,25,-1
 62 401 l 1,26,-1
 64 437 l 1,27,28
 74 537 74 537 154 663 c 128,-1,29
 234 789 234 789 273 812 c 128,-1,30
 312 835 312 835 379 860 c 128,-1,31
 446 885 446 885 470 885 c 2,32,-1
 520 885 l 2,33,34
 536 885 536 885 592 853 c 1,35,36
 648 817 648 817 660 817 c 0,37,38
 662 817 662 817 664 817 c 0,39,40
 674 817 674 817 680 821 c 0,41,42
 688 825 688 825 692 835 c 128,-1,43
 696 845 696 845 698 855 c 128,-1,44
 700 865 700 865 701 880 c 128,-1,45
 702 895 702 895 702 905 c 2,46,-1
 694 1169 l 1,47,48
 686 1271 686 1271 652 1300 c 128,-1,49
 618 1329 618 1329 618 1343 c 2,50,-1
 618 1351 l 1,51,52
 620 1365 620 1365 642 1373 c 1,53,-1
 720 1383 l 1,54,55
 754 1381 754 1381 768 1377 c 1,56,57
 774 1357 774 1357 774 1306 c 128,-1,58
 774 1255 774 1255 769 1140 c 128,-1,59
 764 1025 764 1025 762 935 c 0,60,61
 760 875 760 875 760 835 c 2,62,63
 760 835 760 835 760 797 c 2,64,65
 760 749 760 749 765 652 c 128,-1,66
 770 555 770 555 773 498 c 128,-1,67
 776 441 776 441 784 318 c 128,-1,68
 792 195 792 195 795 130 c 128,-1,69
 798 65 798 65 819 38 c 128,-1,70
 840 11 840 11 844 1 c 1,71,-1
 840 -13 l 1,72,73
 832 -21 832 -21 804 -31 c 1,74,-1
 756 -43 l 1,75,76
 750 -39 750 -39 737 -20 c 128,-1,77
 724 -1 724 -1 722 39 c 2,78,-1
 714 135 l 1,79,-1
 606 39 l 1,80,81
 494 -77 494 -77 406 -81 c 1,82,-1
 292 -47 l 1,83,-1
 180 21 l 1,84,85
 118 51 118 51 70 223 c 1,86,-1
 60 293 l 1,25,-1
EndSplineSet
Validated: 1
EndChar

StartChar: e
Encoding: 101 101 65
Width: 758
VWidth: 1894
Flags: W
HStem: -34 66<269.518 516.339> 860 48<322.556 453.121>
VStem: 66 90<127.309 362 479.281 520.496> 572 118<70.4805 215.074>
LayerCount: 2
Fore
SplineSet
156 230 m 2,0,1
 156 196 156 196 164 173 c 128,-1,2
 172 150 172 150 231 91 c 128,-1,3
 290 32 290 32 382 32 c 2,4,-1
 392 32 l 2,5,6
 466 32 466 32 518 64 c 128,-1,7
 570 96 570 96 572 162 c 128,-1,8
 574 228 574 228 588 238 c 1,9,-1
 600 250 l 1,10,-1
 634 226 l 1,11,12
 690 176 690 176 690 127 c 128,-1,13
 690 78 690 78 686 64 c 1,14,15
 676 56 676 56 629 43 c 128,-1,16
 582 30 582 30 544 11 c 128,-1,17
 506 -8 506 -8 455 -21 c 128,-1,18
 404 -34 404 -34 385 -34 c 128,-1,19
 366 -34 366 -34 322 -20 c 128,-1,20
 278 -6 278 -6 253 6 c 128,-1,21
 228 18 228 18 179 57 c 128,-1,22
 130 96 130 96 113 123 c 128,-1,23
 96 150 96 150 80 202 c 0,24,25
 66 254 66 254 66 278 c 2,26,-1
 70 368 l 2,27,28
 70 402 70 402 100 492 c 0,29,30
 200 802 200 802 264 854 c 0,31,32
 328 908 328 908 364 908 c 0,33,34
 366 908 366 908 368 908 c 0,35,36
 404 908 404 908 460 888 c 0,37,38
 520 868 520 868 540 851 c 128,-1,39
 560 834 560 834 613 748 c 128,-1,40
 666 662 666 662 680 595 c 128,-1,41
 694 528 694 528 694 488 c 128,-1,42
 694 448 694 448 680 437 c 128,-1,43
 666 426 666 426 610 424 c 1,44,-1
 476 438 l 1,45,-1
 474 438 l 2,46,47
 390 438 390 438 242 386 c 1,48,-1
 156 362 l 1,49,-1
 156 230 l 2,0,1
576 584 m 1,50,51
 532 740 532 740 507 789 c 128,-1,52
 482 838 482 838 454 849 c 128,-1,53
 426 860 426 860 383 860 c 128,-1,54
 340 860 340 860 316 830 c 1,55,-1
 314 828 l 1,56,57
 254 760 254 760 226 697 c 128,-1,58
 198 634 198 634 188 613 c 128,-1,59
 178 592 178 592 174 582 c 128,-1,60
 170 572 170 572 165 560 c 128,-1,61
 160 548 160 548 158 540 c 128,-1,62
 156 532 156 532 156 524 c 128,-1,63
 156 516 156 516 158 509 c 128,-1,64
 160 502 160 502 166 497 c 128,-1,65
 172 492 172 492 176 489 c 128,-1,66
 180 486 180 486 189 483 c 128,-1,67
 198 480 198 480 202 479 c 128,-1,68
 206 478 206 478 215 476 c 128,-1,69
 224 474 224 474 252 469 c 128,-1,70
 280 464 280 464 302 464 c 128,-1,71
 324 464 324 464 392 488 c 128,-1,72
 460 512 460 512 488 519 c 128,-1,73
 516 526 516 526 527 529 c 128,-1,74
 538 532 538 532 545 535 c 128,-1,75
 552 538 552 538 561 543 c 128,-1,76
 570 548 570 548 574 556 c 1,77,-1
 578 580 l 1,78,-1
 576 584 l 1,50,51
EndSplineSet
Validated: 1
EndChar

StartChar: f
Encoding: 102 102 66
Width: 640
VWidth: 1894
Flags: W
HStem: -6 68<96 141.855> 30 16<311.972 320> 1232 152<459.367 584.906>
VStem: 148 58<123.539 560 704 1133.94>
LayerCount: 2
Fore
SplineSet
320 36 m 1,0,-1
 320 30 l 1,1,2
 304 18 304 18 225 6 c 128,-1,3
 146 -6 146 -6 124 -6 c 128,-1,4
 102 -6 102 -6 91 -3 c 128,-1,5
 80 0 80 0 70 16 c 2,6,-1
 60 36 l 1,7,-1
 96 62 l 1,8,9
 148 64 148 64 148 136 c 2,10,-1
 152 746 l 1,11,-1
 148 866 l 1,12,13
 148 996 148 996 168 1100 c 0,14,15
 212 1330 212 1330 326 1374 c 1,16,-1
 386 1386 l 1,17,-1
 516 1384 l 2,18,19
 572 1382 572 1382 590 1368 c 1,20,21
 602 1356 602 1356 601 1338 c 128,-1,22
 600 1320 600 1320 587 1282 c 128,-1,23
 574 1244 574 1244 562 1238 c 128,-1,24
 550 1232 550 1232 520 1232 c 128,-1,25
 490 1232 490 1232 442 1276 c 1,26,-1
 458 1280 l 1,27,-1
 428 1312 l 2,28,29
 418 1322 418 1322 401 1321 c 128,-1,30
 384 1320 384 1320 338 1288 c 0,31,32
 208 1198 208 1198 206 922 c 1,33,-1
 206 904 l 1,34,-1
 212 704 l 1,35,-1
 300 682 l 1,36,37
 370 668 370 668 389 655 c 128,-1,38
 408 642 408 642 408 614 c 2,39,-1
 408 598 l 1,40,-1
 350 604 l 1,41,-1
 284 600 l 1,42,43
 226 594 226 594 218 560 c 1,44,-1
 206 368 l 1,45,46
 208 240 208 240 214 190 c 128,-1,47
 220 140 220 140 233 123 c 128,-1,48
 246 106 246 106 276 87 c 128,-1,49
 306 68 306 68 316 46 c 1,50,-1
 318 46 l 1,51,52
 322 40 322 40 320 36 c 1,0,-1
EndSplineSet
Validated: 1
EndChar

StartChar: g
Encoding: 103 103 67
Width: 998
VWidth: 1894
Flags: W
HStem: -406 54<463.08 609.584> -274 60<143.996 299.91> -116 74<187.952 351.613> -4 76<434.597 632.681> 788 87<408.201 684.205>
VStem: 84 88<-24.9006 112.396> 688 56<-257.465 -67.424> 820 74<471.279 705.299>
LayerCount: 2
Fore
SplineSet
336 170 m 2,0,1
 336 170 336 170 294 160 c 2,2,3
 272 155 272 155 221 117 c 0,4,5
 172 80 172 80 172 46 c 128,-1,6
 172 12 172 12 190 -15 c 128,-1,7
 208 -42 208 -42 249 -42 c 128,-1,8
 290 -42 290 -42 371 5 c 128,-1,9
 452 52 452 52 478 62 c 128,-1,10
 504 72 504 72 541 72 c 128,-1,11
 578 72 578 72 595 64 c 128,-1,12
 612 56 612 56 652 24 c 128,-1,13
 692 -8 692 -8 710 -40 c 128,-1,14
 728 -72 728 -72 736 -119 c 128,-1,15
 744 -166 744 -166 744 -204 c 128,-1,16
 744 -242 744 -242 718 -300 c 128,-1,17
 692 -358 692 -358 647 -382 c 128,-1,18
 602 -406 602 -406 580 -406 c 128,-1,19
 558 -406 558 -406 534 -403 c 128,-1,20
 510 -400 510 -400 428 -365 c 128,-1,21
 346 -330 346 -330 329 -327 c 128,-1,22
 312 -324 312 -324 296 -297 c 0,23,24
 283 -274 283 -274 258 -274 c 0,25,26
 253 -274 253 -274 248 -275 c 0,27,28
 215 -280 215 -280 200 -282 c 128,-1,29
 185 -284 185 -284 173 -287 c 128,-1,30
 161 -290 161 -290 148 -300 c 128,-1,31
 135 -310 135 -310 131 -324 c 128,-1,32
 127 -338 127 -338 95 -367 c 128,-1,33
 63 -396 63 -396 49 -398 c 1,34,-1
 43 -398 l 1,35,36
 41 -386 41 -386 41 -361 c 128,-1,37
 41 -336 41 -336 66 -295 c 128,-1,38
 91 -254 91 -254 129 -234 c 128,-1,39
 167 -214 167 -214 242 -214 c 128,-1,40
 317 -214 317 -214 342.5 -248 c 128,-1,41
 368 -282 368 -282 441 -317 c 128,-1,42
 514 -352 514 -352 550 -352 c 128,-1,43
 586 -352 586 -352 627 -309 c 128,-1,44
 668 -266 668 -266 678 -245 c 128,-1,45
 688 -224 688 -224 688 -152 c 128,-1,46
 688 -80 688 -80 633 -42 c 128,-1,47
 578 -4 578 -4 538 -4 c 128,-1,48
 498 -4 498 -4 451 -32 c 128,-1,49
 404 -60 404 -60 340 -88 c 128,-1,50
 276 -116 276 -116 248 -116 c 128,-1,51
 220 -116 220 -116 166 -84 c 128,-1,52
 112 -52 112 -52 98 -29 c 128,-1,53
 84 -6 84 -6 84 23 c 128,-1,54
 84 52 84 52 104 82 c 128,-1,55
 124 112 124 112 143 140 c 128,-1,56
 162 168 162 168 165 175 c 128,-1,57
 168 182 168 182 168 200 c 128,-1,58
 168 218 168 218 136 267 c 128,-1,59
 104 316 104 316 96 382 c 0,60,61
 95 392 95 392 95 402 c 0,62,63
 95 464 95 464 136 559 c 5,64,65
 145 571 145 571 190 653 c 4,66,67
 214 697 214 697 268 736.5 c 128,-1,68
 322 776 322 776 370 809 c 128,-1,69
 418 842 418 842 459 858 c 128,-1,70
 500 874 500 874 580 875 c 128,-1,71
 660 876 660 876 685 896 c 128,-1,72
 710 916 710 916 740 1002 c 1,73,74
 768 1094 768 1094 846 1094 c 0,75,76
 876 1094 876 1094 907 1069 c 128,-1,77
 938 1044 938 1044 938 997 c 128,-1,78
 938 950 938 950 934 936 c 1,79,80
 926 940 926 940 914 950 c 1,81,-1
 912 950 l 1,82,83
 874 980 874 980 852 982 c 1,84,-1
 826 976 l 1,85,-1
 794 878 l 1,86,-1
 800 840 l 1,87,88
 804 836 804 836 804 833 c 128,-1,89
 804 830 804 830 808 824 c 128,-1,90
 812 818 812 818 815 815 c 128,-1,91
 818 812 818 812 823 805 c 128,-1,92
 828 798 828 798 831 795 c 128,-1,93
 834 792 834 792 841 784 c 128,-1,94
 848 776 848 776 871 749 c 128,-1,95
 894 722 894 722 894 654 c 2,96,-1
 894 652 l 2,97,98
 894 588 894 588 864 492 c 0,99,100
 794 266 794 266 652 228 c 0,101,102
 622 220 622 220 514 208 c 0,103,104
 402 196 402 196 374 184 c 0,105,106
 345 172 345 172 336 170 c 2,0,1
590 788 m 0,107,108
 428 788 428 788 296 680 c 1,109,110
 148 570 148 570 148 444 c 0,111,112
 148 370 148 370 169 333 c 128,-1,113
 190 296 190 296 252 272 c 128,-1,114
 314 248 314 248 373 248 c 128,-1,115
 432 248 432 248 495 273 c 128,-1,116
 558 298 558 298 615 298 c 128,-1,117
 672 298 672 298 691 306 c 128,-1,118
 710 314 710 314 749 365 c 128,-1,119
 788 416 788 416 804 468 c 128,-1,120
 820 520 820 520 820 602 c 0,121,122
 820 605 820 605 821 607 c 0,123,124
 821 684 821 684 806 706 c 0,125,126
 790 730 790 730 716 759 c 128,-1,127
 642 788 642 788 590 788 c 0,107,108
EndSplineSet
Validated: 1
EndChar

StartChar: h
Encoding: 104 104 68
Width: 774
VWidth: 1894
Flags: W
HStem: 838 76<363.436 548.095> 1376 20G<120 172>
VStem: 66 148<-35.7295 38> 98 78<-23.0312 495.604 582.031 1303.07> 624 60<104 721.576>
LayerCount: 2
Fore
SplineSet
708 8 m 1,0,1
 690 6 690 6 624 2 c 1,2,3
 624 2 624 2 614 2 c 2,4,5
 568 2 568 2 568 40 c 2,6,-1
 568 54 l 1,7,8
 570 66 570 66 586 74 c 1,9,-1
 624 104 l 1,10,-1
 628 368 l 1,11,-1
 622 608 l 1,12,13
 614 684 614 684 585 744 c 128,-1,14
 556 804 556 804 520 821 c 128,-1,15
 484 838 484 838 446 838 c 128,-1,16
 408 838 408 838 362 803 c 128,-1,17
 316 768 316 768 265 630 c 128,-1,18
 214 492 214 492 195 445 c 128,-1,19
 176 398 176 398 176 364 c 2,20,-1
 176 360 l 1,21,-1
 178 336 l 1,22,-1
 182 228 l 2,23,24
 186 96 186 96 200 38 c 2,25,-1
 214 -24 l 1,26,-1
 192 -42 l 1,27,28
 166 -66 166 -66 116 -66 c 128,-1,29
 66 -66 66 -66 66 -52 c 128,-1,30
 66 -38 66 -38 79 -2 c 128,-1,31
 92 34 92 34 94 104 c 0,32,33
 96 198 96 198 98 340 c 128,-1,34
 100 482 100 482 100 600 c 2,35,-1
 96 1136 l 1,36,37
 92 1224 92 1224 82 1259 c 128,-1,38
 72 1294 72 1294 62 1301 c 128,-1,39
 52 1308 52 1308 50 1310 c 1,40,41
 52 1356 52 1356 73 1376 c 128,-1,42
 94 1396 94 1396 146 1396 c 128,-1,43
 198 1396 198 1396 198 1374 c 1,44,-1
 184 1262 l 1,45,46
 170 1170 170 1170 170 973 c 128,-1,47
 170 776 170 776 178 710 c 1,48,-1
 202 580 l 1,49,-1
 272 730 l 1,50,51
 348 914 348 914 410 914 c 2,52,-1
 412 914 l 2,53,54
 488 914 488 914 562 871 c 128,-1,55
 636 828 636 828 660 736 c 128,-1,56
 684 644 684 644 684 544 c 2,57,-1
 684 360 l 2,58,59
 684 198 684 198 698 140 c 128,-1,60
 712 82 712 82 714 48 c 1,61,-1
 708 8 l 1,0,1
EndSplineSet
Validated: 1
EndChar

StartChar: k
Encoding: 107 107 71
Width: 800
VWidth: 1894
Flags: W
HStem: -4 72<92.3772 143.559> 864 20G<486 574> 1354 20G<173 176>
VStem: 126 56<1316.19 1372> 158 58<104.119 208.344 338.712 826.694> 178 52<560.451 1002> 486 134<790.102 852 856 873.688>
LayerCount: 2
Fore
SplineSet
216 160 m 2,0,1
 216 92 216 92 268 92 c 1,2,3
 308 72 308 72 313 58 c 128,-1,4
 318 44 318 44 320 36 c 1,5,-1
 318 36 l 1,6,7
 304 22 304 22 225 9 c 128,-1,8
 146 -4 146 -4 125 -4 c 128,-1,9
 104 -4 104 -4 92 0 c 0,10,11
 76 6 76 6 62 40 c 1,12,13
 48 32 48 32 46 32 c 1,14,15
 46 34 46 34 98 68 c 1,16,-1
 100 68 l 2,17,18
 130 68 130 68 144 103 c 128,-1,19
 158 138 158 138 158 278 c 2,20,-1
 158 386 l 1,21,-1
 178 1002 l 1,22,-1
 118 1028 l 1,23,24
 90 1050 90 1050 78 1060 c 1,25,-1
 126 1370 l 1,26,27
 136 1372 136 1372 148 1372 c 2,28,-1
 170 1372 l 2,29,30
 172 1372 172 1372 174 1374 c 1,31,32
 178 1374 178 1374 182 1372 c 1,33,34
 186 1348 186 1348 207 1320 c 128,-1,35
 228 1292 228 1292 228 1184 c 128,-1,36
 228 1076 228 1076 232 1016 c 128,-1,37
 236 956 236 956 236 948 c 2,38,-1
 230 740 l 1,39,40
 230 532 230 532 216 436 c 1,41,-1
 210 374 l 1,42,43
 210 338 210 338 256 338 c 128,-1,44
 302 338 302 338 310 390 c 1,45,46
 320 416 320 416 380 534 c 0,47,48
 484 738 484 738 486 846 c 1,49,-1
 486 852 l 1,50,-1
 484 856 l 1,51,-1
 486 882 l 1,52,-1
 546 884 l 2,53,54
 602 884 602 884 616 874 c 1,55,56
 622 864 622 864 622 856 c 1,57,-1
 620 852 l 1,58,59
 620 844 620 844 593 811 c 128,-1,60
 566 778 566 778 539 720 c 128,-1,61
 512 662 512 662 473 589 c 128,-1,62
 434 516 434 516 434 489 c 128,-1,63
 434 462 434 462 446 452 c 1,64,-1
 448 452 l 1,65,66
 462 440 462 440 475 422 c 128,-1,67
 488 404 488 404 553 298 c 128,-1,68
 618 192 618 192 676 124 c 128,-1,69
 734 56 734 56 738 30 c 1,70,71
 736 -2 736 -2 668 -2 c 1,72,73
 666 0 666 0 664 0 c 0,74,75
 592 0 592 0 584 8 c 2,76,-1
 570 20 l 1,77,78
 572 28 572 28 584 52 c 1,79,-1
 598 102 l 1,80,81
 598 146 598 146 548 212 c 2,82,-1
 414 392 l 1,83,84
 402 400 402 400 395 400 c 128,-1,85
 388 400 388 400 383 399 c 128,-1,86
 378 398 378 398 374 393 c 128,-1,87
 370 388 370 388 367 384 c 128,-1,88
 364 380 364 380 359 371 c 128,-1,89
 354 362 354 362 352 357 c 128,-1,90
 350 352 350 352 345 340 c 128,-1,91
 340 328 340 328 324 296 c 1,92,93
 312 264 312 264 276 236 c 0,94,95
 216 188 216 188 216 164 c 2,96,-1
 216 160 l 2,0,1
EndSplineSet
Validated: 1
EndChar

StartChar: l
Encoding: 108 108 72
Width: 424
VWidth: 1894
Flags: W
HStem: 1326 20G<150 166>
VStem: 116 66<138.142 862>
LayerCount: 2
Fore
SplineSet
122 862 m 1,0,-1
 74 866 l 1,1,-1
 70 866 l 2,2,3
 58 866 58 866 50 918 c 1,4,5
 54 940 54 940 82 1062 c 1,6,-1
 94 1168 l 1,7,-1
 110 1258 l 1,8,9
 118 1270 118 1270 119 1282 c 128,-1,10
 120 1294 120 1294 124 1301 c 128,-1,11
 128 1308 128 1308 135 1327 c 128,-1,12
 142 1346 142 1346 158 1346 c 128,-1,13
 174 1346 174 1346 180 1327 c 128,-1,14
 186 1308 186 1308 186 1244 c 2,15,-1
 182 406 l 2,16,17
 182 172 182 172 203 137 c 128,-1,18
 224 102 224 102 246 92 c 1,19,-1
 248 90 l 1,20,-1
 256 88 l 2,21,22
 280 84 280 84 304 102 c 128,-1,23
 328 120 328 120 343 121 c 128,-1,24
 358 122 358 122 364 115 c 128,-1,25
 370 108 370 108 370 78 c 128,-1,26
 370 48 370 48 342 20 c 128,-1,27
 314 -8 314 -8 280 -8 c 128,-1,28
 246 -8 246 -8 231 -2 c 128,-1,29
 216 4 216 4 182 36 c 128,-1,30
 148 68 148 68 132 104 c 128,-1,31
 116 140 116 140 116 338 c 2,32,-1
 116 730 l 1,33,-1
 122 862 l 1,0,-1
EndSplineSet
Validated: 1
EndChar

StartChar: m
Encoding: 109 109 73
Width: 1194
VWidth: 1894
Flags: W
HStem: 816 70<451.742 564.495> 834 58<855.753 965.102>
VStem: 84 112<670 714> 140 84<16.1919 152> 632 50<140 435.931> 972 156<54.5525 213.97> 1040 46<240.625 740.708>
LayerCount: 2
Fore
SplineSet
746 68 m 1,0,1
 734 56 734 56 697 23 c 128,-1,2
 660 -10 660 -10 638 -10 c 128,-1,3
 616 -10 616 -10 612 -8 c 2,4,-1
 606 -4 l 1,5,-1
 632 126 l 1,6,7
 632 154 632 154 622 216 c 128,-1,8
 612 278 612 278 612 441 c 128,-1,9
 612 604 612 604 600 680 c 128,-1,10
 588 756 588 756 562 785 c 128,-1,11
 536 814 536 814 524 816 c 1,12,13
 524 816 524 816 516 816 c 1,14,-1
 508 816 l 2,15,16
 450 816 450 816 374 696 c 128,-1,17
 298 576 298 576 264 406 c 128,-1,18
 230 236 230 236 226 156 c 1,19,-1
 224 152 l 1,20,-1
 224 144 l 2,21,22
 224 70 224 70 239 46 c 128,-1,23
 254 22 254 22 256 16 c 1,24,-1
 254 10 l 2,25,26
 250 -2 250 -2 232 -10 c 128,-1,27
 214 -18 214 -18 169 -48 c 128,-1,28
 124 -78 124 -78 105 -78 c 128,-1,29
 86 -78 86 -78 82 -72 c 1,30,-1
 82 -56 l 1,31,32
 84 -44 84 -44 111 3 c 128,-1,33
 138 50 138 50 140 92 c 1,34,-1
 110 620 l 2,35,36
 106 670 106 670 84 712 c 1,37,-1
 84 714 l 1,38,-1
 62 750 l 1,39,-1
 92 798 l 1,40,41
 122 850 122 850 148 864 c 1,42,-1
 150 864 l 1,43,44
 170 874 170 874 180 878 c 1,45,-1
 190 868 l 2,46,47
 202 856 202 856 204 836 c 0,48,49
 208 812 208 812 208 788 c 2,50,51
 208 788 208 788 208 782 c 2,52,53
 208 760 208 760 202 729 c 128,-1,54
 196 698 196 698 196 676 c 2,55,56
 196 676 196 676 196 670 c 2,57,58
 196 648 196 648 208 633 c 128,-1,59
 220 618 220 618 246 618 c 128,-1,60
 272 618 272 618 278 644 c 1,61,-1
 382 798 l 1,62,63
 396 812 396 812 448 849 c 128,-1,64
 500 886 500 886 529 886 c 128,-1,65
 558 886 558 886 590 856 c 128,-1,66
 622 826 622 826 637 766 c 128,-1,67
 652 706 652 706 688 706 c 0,68,69
 708 706 708 706 724 724 c 128,-1,70
 740 742 740 742 768 790 c 128,-1,71
 796 838 796 838 817 865 c 128,-1,72
 838 892 838 892 874 892 c 128,-1,73
 910 892 910 892 940 890 c 128,-1,74
 970 888 970 888 994 864 c 128,-1,75
 1018 840 1018 840 1048 784 c 128,-1,76
 1078 728 1078 728 1088 675 c 128,-1,77
 1098 622 1098 622 1098 489 c 128,-1,78
 1098 356 1098 356 1092 302 c 128,-1,79
 1086 248 1086 248 1086 215 c 128,-1,80
 1086 182 1086 182 1107 155 c 128,-1,81
 1128 128 1128 128 1128 112 c 128,-1,82
 1128 96 1128 96 1101 70 c 128,-1,83
 1074 44 1074 44 1048 33 c 128,-1,84
 1022 22 1022 22 1010 16 c 1,85,-1
 1000 16 l 1,86,87
 994 20 994 20 984 28 c 128,-1,88
 974 36 974 36 972 40 c 0,89,90
 972 42 972 42 972 44 c 0,91,92
 972 48 972 48 976 56 c 0,93,94
 982 66 982 66 993 107 c 128,-1,95
 1004 148 1004 148 1009 181 c 128,-1,96
 1014 214 1014 214 1020 265 c 128,-1,97
 1026 316 1026 316 1032 352 c 0,98,99
 1040 388 1040 388 1040 544 c 0,100,101
 1040 552 1040 552 1040 560 c 0,102,103
 1040 702 1040 702 1022 732 c 1,104,105
 1006 764 1006 764 972 799 c 128,-1,106
 938 834 938 834 909 834 c 128,-1,107
 880 834 880 834 838 788 c 128,-1,108
 796 742 796 742 773 692 c 128,-1,109
 750 642 750 642 716 484 c 128,-1,110
 682 326 682 326 682 266 c 128,-1,111
 682 206 682 206 687 184 c 128,-1,112
 692 162 692 162 694 153 c 128,-1,113
 696 144 696 144 696 140 c 1,114,-1
 718 108 l 2,115,116
 722 104 722 104 728 102 c 1,117,118
 732 96 732 96 738 86 c 128,-1,119
 744 76 744 76 746 68 c 1,0,1
EndSplineSet
Validated: 1
EndChar

StartChar: n
Encoding: 110 110 74
Width: 958
VWidth: 1894
Flags: W
HStem: 820 64<417.951 605.117>
VStem: 62 150<735.812 870.143> 140 88<92 680.195> 760 56<86 566.125>
LayerCount: 2
Fore
SplineSet
228 626 m 1,0,1
 222 374 222 374 219 284 c 1,2,-1
 232 92 l 2,3,4
 236 39 236 39 262 12 c 1,5,6
 252 -4 252 -4 219 -39 c 128,-1,7
 186 -74 186 -74 152 -74 c 1,8,-1
 116 -64 l 1,9,10
 114 -60 114 -60 114 -55 c 128,-1,11
 114 -50 114 -50 125 -28 c 128,-1,12
 136 -6 136 -6 140 59 c 128,-1,13
 144 124 144 124 144 326 c 128,-1,14
 144 528 144 528 140 596 c 128,-1,15
 136 664 136 664 126 698 c 128,-1,16
 116 732 116 732 89 754 c 128,-1,17
 62 776 62 776 62 790 c 128,-1,18
 62 804 62 804 89 848 c 128,-1,19
 116 892 116 892 155 892 c 0,20,21
 196 892 196 892 212 830 c 0,22,23
 214 822 214 822 219 799 c 128,-1,24
 224 776 224 776 228 764 c 128,-1,25
 232 752 232 752 242 741 c 128,-1,26
 252 730 252 730 263 730 c 128,-1,27
 274 730 274 730 282 735 c 128,-1,28
 290 740 290 740 295 745 c 128,-1,29
 300 750 300 750 310 763 c 128,-1,30
 320 776 320 776 342 801 c 128,-1,31
 364 826 364 826 383 839 c 128,-1,32
 402 852 402 852 453 868 c 128,-1,33
 504 884 504 884 544 884 c 128,-1,34
 584 884 584 884 653 826 c 128,-1,35
 722 768 722 768 741 711 c 128,-1,36
 760 654 760 654 784 581 c 128,-1,37
 808 508 808 508 812 466 c 1,38,-1
 816 86 l 1,39,-1
 896 24 l 1,40,41
 888 16 888 16 857 -1 c 128,-1,42
 826 -18 826 -18 787 -57 c 128,-1,43
 748 -96 748 -96 731 -97 c 128,-1,44
 714 -98 714 -98 708 -90 c 1,45,-1
 706 -90 l 1,46,47
 704 -88 704 -88 706 -79 c 128,-1,48
 708 -70 708 -70 729 -30 c 128,-1,49
 750 10 750 10 755 51 c 128,-1,50
 760 92 760 92 760 252 c 128,-1,51
 760 412 760 412 754 466 c 128,-1,52
 748 520 748 520 721 608 c 128,-1,53
 694 696 694 696 640 758 c 128,-1,54
 586 820 586 820 500 820 c 2,55,-1
 478 820 l 1,56,57
 293 730 293 730 228 626 c 1,0,1
EndSplineSet
Validated: 1
EndChar

StartChar: o
Encoding: 111 111 75
Width: 804
VWidth: 1894
Flags: W
HStem: -42 76<311.628 529.054> 844 72<408.626 517.578>
VStem: 670 72<283.172 604.741>
LayerCount: 2
Fore
SplineSet
405 916 m 128,-1,1
 446 916 446 916 505 887 c 128,-1,2
 564 858 564 858 604 824 c 128,-1,3
 644 790 644 790 678 742 c 128,-1,4
 712 694 712 694 718 674 c 1,5,-1
 742 502 l 1,6,7
 742 476 742 476 730 445 c 128,-1,8
 718 414 718 414 718 361 c 128,-1,9
 718 308 718 308 687 214 c 128,-1,10
 656 120 656 120 624 58 c 0,11,12
 570 -42 570 -42 468 -42 c 128,-1,13
 366 -42 366 -42 296 4 c 1,14,15
 208 50 208 50 167 87 c 128,-1,16
 126 124 126 124 93 219 c 128,-1,17
 60 314 60 314 54 342 c 1,18,-1
 64 470 l 1,19,20
 78 574 78 574 98 636 c 128,-1,21
 118 698 118 698 157 754 c 128,-1,22
 196 810 196 810 222 830 c 128,-1,23
 248 850 248 850 306 883 c 128,-1,0
 364 916 364 916 405 916 c 128,-1,1
456 844 m 2,24,-1
 454 844 l 1,25,26
 428 842 428 842 408 826 c 1,27,-1
 408 824 l 1,28,29
 402 818 402 818 396 818 c 2,30,31
 396 818 396 818 394 818 c 1,32,-1
 362 820 l 2,33,34
 344 820 344 820 313 798 c 128,-1,35
 282 776 282 776 216 679 c 128,-1,36
 150 582 150 582 148 490 c 1,37,-1
 156 310 l 1,38,39
 166 218 166 218 172 200 c 1,40,-1
 210 142 l 1,41,42
 312 34 312 34 426 34 c 2,43,-1
 432 34 l 2,44,45
 486 34 486 34 539 79 c 128,-1,46
 592 124 592 124 630 266 c 0,47,48
 668 406 668 406 670 462 c 1,49,50
 670 462 670 462 670 484 c 1,51,52
 670 484 670 484 670 502 c 2,53,54
 670 540 670 540 664 580 c 0,55,56
 656 642 656 642 616 711 c 128,-1,57
 576 780 576 780 529 812 c 128,-1,58
 482 844 482 844 456 844 c 2,24,-1
EndSplineSet
EndChar

StartChar: p
Encoding: 112 112 76
Width: 890
VWidth: 1894
Flags: W
HStem: -405 21G<47 173> 4 84<357.764 595.618> 832 20G<148 204> 864 64<443.872 618.088>
VStem: 109 80<-295 73.9109> 140 58<-152.759 74 219.207 668.54> 778 54<393.5 524 528 643.099>
LayerCount: 2
Fore
SplineSet
189 -295 m 1,0,-1
 267 -345 l 1,1,2
 261 -355 261 -355 246 -372 c 128,-1,3
 231 -389 231 -389 173 -393 c 1,4,-1
 63 -405 l 1,5,-1
 59 -405 l 2,6,7
 35 -405 35 -405 35 -399 c 2,8,9
 35 -399 35 -399 35 -397 c 1,10,-1
 35 -393 l 2,11,12
 35 -375 35 -375 71 -350 c 128,-1,13
 107 -325 107 -325 109 -294 c 128,-1,14
 111 -263 111 -263 113.5 -145.5 c 128,-1,15
 116 -28 116 -28 128 51 c 128,-1,16
 140 130 140 130 140 244 c 128,-1,17
 140 358 140 358 139 420 c 128,-1,18
 138 482 138 482 137 527 c 128,-1,19
 136 572 136 572 135 595 c 128,-1,20
 134 618 134 618 133 649 c 128,-1,21
 132 680 132 680 130 696 c 128,-1,22
 128 712 128 712 124 730 c 128,-1,23
 120 748 120 748 115 758 c 128,-1,24
 110 768 110 768 102 774 c 1,25,-1
 96 808 l 1,26,27
 96 832 96 832 108 842 c 128,-1,28
 120 852 120 852 176 852 c 128,-1,29
 232 852 232 852 262 834 c 128,-1,30
 292 816 292 816 314 816 c 2,31,-1
 318 816 l 1,32,-1
 330 818 l 1,33,-1
 334 820 l 1,34,35
 360 830 360 830 398 872 c 128,-1,36
 436 914 436 914 454 921 c 128,-1,37
 472 928 472 928 527 928 c 128,-1,38
 582 928 582 928 649 892 c 128,-1,39
 716 856 716 856 772 742 c 128,-1,40
 828 628 828 628 832 500 c 1,41,-1
 832 482 l 2,42,43
 832 364 832 364 776 246 c 128,-1,44
 720 128 720 128 703 105 c 128,-1,45
 686 82 686 82 648 56 c 128,-1,46
 610 30 610 30 582 17 c 128,-1,47
 554 4 554 4 495 4 c 128,-1,48
 436 4 436 4 368 40 c 0,49,50
 304 74 304 74 262 74 c 0,51,52
 260 74 260 74 258 74 c 2,53,-1
 188 74 l 1,54,-1
 189 -281 l 1,55,-1
 189 -295 l 1,0,-1
198 538 m 2,56,-1
 198 374 l 1,57,58
 202 256 202 256 225 218 c 128,-1,59
 248 180 248 180 311 143 c 128,-1,60
 374 106 374 106 399 97 c 128,-1,61
 424 88 424 88 482 88 c 128,-1,62
 540 88 540 88 580 117 c 128,-1,63
 620 146 620 146 676 232 c 1,64,65
 728 318 728 318 754 400 c 0,66,67
 778 476 778 476 778 510 c 0,68,69
 778 512 778 512 778 514 c 2,70,-1
 778 524 l 1,71,-1
 776 528 l 1,72,73
 776 554 776 554 772 582 c 128,-1,74
 768 610 768 610 730 690 c 128,-1,75
 692 770 692 770 658 803 c 128,-1,76
 624 836 624 836 576 850 c 128,-1,77
 528 864 528 864 506 864 c 128,-1,78
 484 864 484 864 443 839 c 128,-1,79
 402 814 402 814 388 766 c 1,80,81
 372 750 372 750 294 715 c 128,-1,82
 216 680 216 680 207 628 c 128,-1,83
 198 576 198 576 198 538 c 2,56,-1
EndSplineSet
Validated: 1
EndChar

StartChar: q
Encoding: 113 113 77
Width: 900
VWidth: 1894
Flags: W
HStem: -404 21G<681 685> -36 86<222.012 424.441> 764 54<326 440 442 483>
VStem: 50 50<219.453 511.719> 602 64<-248 144 417.377 661.857>
LayerCount: 2
Fore
SplineSet
594 144 m 1,0,-1
 560 170 l 1,1,2
 546 170 546 170 535 158 c 128,-1,3
 524 146 524 146 518 135 c 128,-1,4
 512 124 512 124 489 63 c 128,-1,5
 466 2 466 2 450 -10 c 1,6,7
 404 -36 404 -36 362 -36 c 2,8,9
 362 -36 362 -36 360 -36 c 2,10,11
 320 -36 320 -36 226 -4 c 128,-1,12
 132 28 132 28 97 74 c 128,-1,13
 62 120 62 120 56 216 c 128,-1,14
 50 312 50 312 50 328 c 0,15,16
 50 342 50 342 50 356 c 2,17,-1
 50 370 l 2,18,19
 50 428 50 428 64 476 c 0,20,21
 84 544 84 544 97 580 c 128,-1,22
 110 616 110 616 146 668 c 1,23,24
 180 706 180 706 243 754 c 128,-1,25
 306 802 306 802 330 810 c 0,26,27
 352 817 352 817 392 818 c 1,28,29
 398 816 398 816 402 816 c 0,30,31
 450 816 450 816 501 780 c 128,-1,32
 552 744 552 744 570 742 c 1,33,-1
 654 760 l 2,34,-1
 656 762 l 2,35,-1
 660 760 l 2,36,37
 665 758 665 758 666 755 c 0,38,39
 666 752 666 752 666 726 c 128,-1,40
 666 700 666 700 665 652 c 128,-1,41
 664 604 664 604 654 506 c 1,42,-1
 644 370 l 1,43,44
 646 336 646 336 653 199 c 128,-1,45
 660 62 660 62 662 26 c 1,46,47
 653 -2 653 -2 653 -49 c 0,48,49
 653 -65 653 -65 654 -82 c 2,50,-1
 663 -248 l 1,51,-1
 707 -242 l 1,52,53
 715 -236 715 -236 718 -229 c 0,54,55
 722 -213 722 -213 723 -210 c 2,56,-1
 758 -56 l 2,57,58
 760 -46 760 -46 784 -18 c 128,-1,59
 808 10 808 10 818 18 c 1,60,-1
 856 2 l 1,61,-1
 852 -46 l 2,62,63
 847 -101 847 -101 834 -132 c 1,64,-1
 834 -134 l 1,65,66
 814 -134 814 -134 768.5 -255 c 128,-1,67
 723 -376 723 -376 709 -389 c 128,-1,68
 695 -402 695 -402 687 -402 c 0,69,70
 685 -402 685 -402 685 -404 c 1,71,72
 677 -403 677 -403 657 -398 c 0,73,74
 633 -392 633 -392 626 -388 c 128,-1,75
 619 -384 619 -384 613 -371 c 128,-1,76
 607 -358 607 -358 599 -326 c 1,77,-1
 590 -96 l 1,78,79
 600 28 600 28 600 76 c 0,80,81
 600 92 600 92 598 100 c 0,82,83
 594 130 594 130 594 144 c 1,0,-1
436 102 m 1,84,85
 472 136 472 136 513 226 c 128,-1,86
 554 316 554 316 570 342 c 128,-1,87
 586 368 586 368 586 440 c 128,-1,88
 586 512 586 512 594 549.5 c 128,-1,89
 602 587 602 587 602 594 c 0,90,91
 602 610 602 610 596 624 c 128,-1,92
 590 638 590 638 534 708 c 128,-1,93
 478 778 478 778 442 778 c 1,94,-1
 440 776 l 1,95,96
 404 776 404 776 369 770 c 128,-1,97
 334 764 334 764 326 764 c 1,98,-1
 210 682 l 1,99,-1
 120 574 l 1,100,101
 100 560 100 560 100 438 c 128,-1,102
 100 316 100 316 120 238 c 128,-1,103
 140 160 140 160 149 143 c 0,104,105
 157 125 157 125 222 92 c 0,106,107
 281 62 281 62 320 52 c 0,108,109
 328 50 328 50 336 50 c 0,110,111
 353 50 353 50 372 58 c 0,112,113
 396 68 396 68 436 102 c 1,84,85
EndSplineSet
Validated: 1
EndChar

StartChar: r
Encoding: 114 114 78
Width: 688
VWidth: 1894
Flags: W
HStem: 742 116<76.6875 162>
VStem: 162 71<277.965 662> 162 56<134.006 659.656> 569 57<778.195 850.344>
LayerCount: 2
Fore
SplineSet
502 808 m 0,0,1
 502 795 502 795 514 787 c 0,2,3
 569 750 569 750 569 818 c 0,4,5
 569 852 569 852 554 851 c 0,6,7
 554 851 554 851 528 849 c 0,8,9
 528 849 528 849 504 835 c 0,10,11
 504 835 504 835 502 808 c 0,0,1
437 785 m 1,12,-1
 335 719 l 1,13,-1
 239 662 l 1,14,-1
 233 512 l 1,15,16
 218 338 218 338 218 276 c 128,-1,17
 218 214 218 214 222 190 c 128,-1,18
 226 166 226 166 246 134 c 128,-1,19
 266 102 266 102 272 92 c 1,20,21
 272 82 272 82 260 59 c 0,22,23
 247 34 247 34 236 30 c 0,24,25
 221 24 221 24 199 24 c 0,26,27
 180 24 180 24 141 31 c 128,-1,28
 102 38 102 38 94 48 c 1,29,30
 100 60 100 60 114 74 c 2,31,-1
 162 122 l 1,32,-1
 162 742 l 1,33,-1
 112 742 l 2,34,35
 96 742 96 742 82 758 c 128,-1,36
 68 774 68 774 66 783 c 128,-1,37
 64 792 64 792 68 800 c 0,38,39
 97 858 97 858 218 858 c 2,40,-1
 226 858 l 2,41,42
 231 858 231 858 242 794 c 1,43,-1
 334 806 l 1,44,-1
 460 922 l 1,45,46
 484 936 484 936 532 936 c 128,-1,47
 580 936 580 936 603 920 c 128,-1,48
 626 904 626 904 626 830 c 0,49,50
 626 692 626 692 560 692 c 0,51,52
 534 692 534 692 480 720 c 1,53,-1
 437 785 l 1,12,-1
EndSplineSet
Validated: 1
EndChar

StartChar: s
Encoding: 115 115 79
Width: 718
VWidth: 1894
Flags: W
HStem: -56 58<344.066 483.476> 840 76<271.375 503.49>
VStem: 106 66<577.661 721.02> 568 48<147.314 359.262>
LayerCount: 2
Fore
SplineSet
176 22 m 1,0,-1
 88 -92 l 1,1,2
 80 -90 80 -90 72 -86 c 128,-1,3
 64 -82 64 -82 64 -59 c 128,-1,4
 64 -36 64 -36 68 54 c 128,-1,5
 72 144 72 144 80 169 c 128,-1,6
 88 194 88 194 96 200 c 0,7,8
 102 206 102 206 108 206 c 1,9,10
 108 206 108 206 110 204 c 1,11,12
 116 204 116 204 134 193 c 128,-1,13
 152 182 152 182 202 119 c 128,-1,14
 252 56 252 56 276 41 c 128,-1,15
 300 26 300 26 356 14 c 128,-1,16
 412 2 412 2 424 2 c 128,-1,17
 436 2 436 2 450 6 c 128,-1,18
 464 10 464 10 492 39 c 128,-1,19
 520 68 520 68 544 145 c 128,-1,20
 568 222 568 222 568 269 c 128,-1,21
 568 316 568 316 556 340 c 128,-1,22
 544 364 544 364 516 402 c 1,23,-1
 460 464 l 1,24,-1
 208 480 l 1,25,26
 184 488 184 488 144 520 c 0,27,28
 106 550 106 550 106 600 c 2,29,-1
 106 612 l 1,30,31
 108 672 108 672 108 682 c 128,-1,32
 108 692 108 692 116 712 c 0,33,34
 122 732 122 732 151 788 c 128,-1,35
 180 844 180 844 226 877 c 128,-1,36
 272 910 272 910 284 913 c 128,-1,37
 296 916 296 916 314 916 c 128,-1,38
 332 916 332 916 372 914 c 128,-1,39
 412 912 412 912 464 898 c 128,-1,40
 516 884 516 884 528 884 c 0,41,42
 532 884 532 884 536 882 c 1,43,-1
 552 884 l 2,44,45
 564 886 564 886 590 904 c 128,-1,46
 616 922 616 922 632 922 c 2,47,-1
 652 922 l 1,48,49
 652 922 652 922 652 908 c 2,50,51
 652 896 652 896 616 828 c 128,-1,52
 580 760 580 760 556 748 c 0,53,54
 540 738 540 738 532 734 c 1,55,56
 530 740 530 740 525 765 c 128,-1,57
 520 790 520 790 504 803 c 128,-1,58
 488 816 488 816 430 828 c 128,-1,59
 372 840 372 840 352 840 c 128,-1,60
 332 840 332 840 312 835 c 128,-1,61
 292 830 292 830 232 758 c 128,-1,62
 172 686 172 686 172 632 c 0,63,64
 172 562 172 562 288 562 c 1,65,-1
 344 564 l 2,66,67
 388 564 388 564 476 520 c 128,-1,68
 564 476 564 476 592 426 c 0,69,70
 618 376 618 376 618 248 c 1,71,72
 616 244 616 244 616 238 c 0,73,74
 616 102 616 102 596 68 c 1,75,76
 536 -50 536 -50 460 -56 c 1,77,78
 432 -56 432 -56 368 -34 c 1,79,-1
 176 22 l 1,0,-1
EndSplineSet
Validated: 1
EndChar

StartChar: t
Encoding: 116 116 80
Width: 590
VWidth: 1894
Flags: W
HStem: -64 68<422.461 482> 560 82<86 157.68>
VStem: 198 78<102.086 382.376> 232 73<683.471 843.482> 256 44<1340 1386.65>
LayerCount: 2
Fore
SplineSet
308 880 m 1,0,-1
 298 684 l 1,1,-1
 416 676 l 2,2,3
 490 672 490 672 512 660 c 1,4,5
 526 650 526 650 527 633 c 128,-1,6
 528 616 528 616 528 604 c 128,-1,7
 528 592 528 592 514 582 c 128,-1,8
 500 572 500 572 420 568 c 2,9,-1
 302 562 l 1,10,-1
 282 480 l 1,11,12
 274 436 274 436 274 384 c 128,-1,13
 274 332 274 332 276 286 c 0,14,15
 296 22 296 22 424 4 c 0,16,17
 502 -6 502 -6 522 -22 c 1,18,-1
 522 -24 l 1,19,-1
 482 -64 l 1,20,21
 468 -70 468 -70 421 -70 c 128,-1,22
 374 -70 374 -70 331 -37 c 128,-1,23
 288 -4 288 -4 268 26 c 128,-1,24
 248 56 248 56 228 124 c 128,-1,25
 208 192 208 192 203 236 c 128,-1,26
 198 280 198 280 198 312 c 0,27,28
 200 344 200 344 208 396 c 1,29,-1
 216 504 l 1,30,31
 212 552 212 552 154 560 c 128,-1,32
 96 568 96 568 60 586 c 1,33,-1
 60 622 l 1,34,-1
 86 642 l 1,35,-1
 206 666 l 1,36,37
 232 674 232 674 232 709 c 128,-1,38
 232 744 232 744 227 792 c 128,-1,39
 222 840 222 840 186 846 c 1,40,41
 178 860 178 860 174 902 c 1,42,-1
 182 986 l 1,43,44
 198 1038 198 1038 220 1192 c 128,-1,45
 242 1346 242 1346 256 1374 c 1,46,47
 266 1386 266 1386 281 1387 c 128,-1,48
 296 1388 296 1388 300 1382 c 1,49,-1
 308 1340 l 1,50,51
 308 1314 308 1314 305 1272 c 128,-1,52
 302 1230 302 1230 302 1170 c 128,-1,53
 302 1110 302 1110 305 1021 c 128,-1,54
 308 932 308 932 308 880 c 1,0,-1
EndSplineSet
Validated: 1
EndChar

StartChar: u
Encoding: 117 117 81
Width: 903
VWidth: 1894
Flags: W
HStem: -78 54<286.469 460.794> 856 20G<149 209>
VStem: 79 130<760.316 857.23> 103 78<196 585.152> 659 58<317.002 420> 667 92<429.688 668 674 704>
LayerCount: 2
Fore
SplineSet
659 102 m 16,0,1
 657 104 657 104 653 104 c 0,2,3
 643 104 643 104 619 96 c 0,4,5
 587 86 587 86 583 74 c 0,6,7
 579 60 579 60 575 52 c 2,8,-1
 541 2 l 1,9,10
 491 -78 491 -78 374 -78 c 128,-1,11
 257 -78 257 -78 200 -23 c 128,-1,12
 143 32 143 32 125 72 c 128,-1,13
 107 112 107 112 103 254 c 1,14,-1
 107 566 l 1,15,16
 105 686 105 686 88 718 c 128,-1,17
 71 750 71 750 69 760 c 1,18,19
 71 770 71 770 79 796 c 1,20,21
 111 876 111 876 187 876 c 2,22,-1
 209 876 l 1,23,-1
 181 280 l 1,24,-1
 175 196 l 1,25,-1
 173 192 l 1,26,-1
 179 142 l 1,27,28
 185 110 185 110 241 44 c 0,29,30
 299 -24 299 -24 371 -24 c 2,31,-1
 373 -24 l 2,32,33
 443 -24 443 -24 479 20 c 128,-1,34
 515 64 515 64 543 120 c 128,-1,35
 571 176 571 176 578 209 c 128,-1,36
 585 242 585 242 615 290 c 128,-1,37
 645 338 645 338 651 369 c 128,-1,38
 657 400 657 400 659 522 c 1,39,-1
 669 668 l 1,40,-1
 671 674 l 1,41,-1
 667 700 l 1,42,-1
 667 704 l 1,43,-1
 665 706 l 1,44,45
 655 722 655 722 633 727 c 128,-1,46
 611 732 611 732 594 751 c 128,-1,47
 577 770 577 770 573 778 c 1,48,49
 585 798 585 798 640 850 c 128,-1,50
 695 902 695 902 719 902 c 0,51,52
 743 904 743 904 751 896 c 128,-1,53
 759 888 759 888 759 860 c 2,54,55
 759 860 759 860 759 858 c 2,56,57
 759 826 759 826 737 662 c 1,58,-1
 715 426 l 1,59,-1
 717 420 l 1,60,61
 717 376 717 376 727 325 c 128,-1,62
 737 274 737 274 739 197 c 128,-1,63
 741 120 741 120 767 96 c 1,64,-1
 837 2 l 1,65,-1
 797 -40 l 1,66,-1
 765 -34 l 1,67,68
 709 -20 709 -20 707 12 c 0,69,70
 703 72 703 72 659 102 c 16,0,1
EndSplineSet
EndChar

StartChar: v
Encoding: 118 118 82
Width: 938
VWidth: 1894
Flags: W
HStem: -5 165<458.435 512.7> 832 20G<754 824>
VStem: 57 136<728.38 827.31> 752 124<716.501 844.674>
LayerCount: 2
Fore
SplineSet
772 852 m 2,0,1
 876 852 876 852 876 790 c 0,2,3
 876 756 876 756 845 730 c 128,-1,4
 814 704 814 704 754 564 c 128,-1,5
 694 424 694 424 682 406 c 128,-1,6
 670 388 670 388 663 363 c 128,-1,7
 656 338 656 338 600 228 c 128,-1,8
 544 118 544 118 526 71 c 128,-1,9
 508 24 508 24 495 10 c 128,-1,10
 482 -4 482 -4 477 -5 c 128,-1,11
 472 -6 472 -6 458 -2 c 1,12,13
 442 10 442 10 417 74 c 128,-1,14
 392 138 392 138 278 355 c 128,-1,15
 164 572 164 572 144 632 c 128,-1,16
 124 692 124 692 94 707 c 128,-1,17
 64 722 64 722 60 728 c 1,18,19
 58 740 58 740 57 773 c 128,-1,20
 56 806 56 806 72 828 c 128,-1,21
 88 850 88 850 116 850 c 128,-1,22
 144 850 144 850 160 830 c 0,23,24
 186 796 186 796 193 759 c 128,-1,25
 200 722 200 722 234 607 c 128,-1,26
 268 492 268 492 292 445 c 128,-1,27
 316 398 316 398 365 310 c 128,-1,28
 414 222 414 222 423 206 c 128,-1,29
 432 190 432 190 447 175 c 128,-1,30
 462 160 462 160 472 160 c 128,-1,31
 482 160 482 160 489 163 c 128,-1,32
 496 166 496 166 503 175 c 128,-1,33
 510 184 510 184 516 193 c 128,-1,34
 522 202 522 202 531 218 c 128,-1,35
 540 234 540 234 546 248 c 128,-1,36
 552 262 552 262 563 286 c 128,-1,37
 574 310 574 310 581 328 c 128,-1,38
 588 346 588 346 601 376 c 128,-1,39
 614 406 614 406 624 428 c 0,40,41
 752 688 752 688 752 792 c 0,42,43
 752 834 752 834 756 852 c 1,44,-1
 772 852 l 2,0,1
EndSplineSet
Validated: 1
EndChar

StartChar: w
Encoding: 119 119 83
Width: 1270
VWidth: 1894
Flags: W
HStem: 4 132<470 516.148> 852 20G<132.5 197.5 1116 1182>
VStem: 57 133<771.43 834.603> 1070 142<738.556 868.298>
LayerCount: 2
Fore
SplineSet
448 144 m 2,0,-1
 470 136 l 1,1,2
 492 136 492 136 505 156 c 128,-1,3
 518 176 518 176 541 247 c 128,-1,4
 564 318 564 318 597 378 c 128,-1,5
 630 438 630 438 644 455 c 128,-1,6
 658 472 658 472 665 477 c 128,-1,7
 672 482 672 482 681 482 c 128,-1,8
 690 482 690 482 698 468 c 128,-1,9
 706 454 706 454 714 384 c 0,10,11
 722 312 722 312 752 268 c 0,12,13
 784 224 784 224 792 212 c 2,14,-1
 824 172 l 2,15,16
 828 168 828 168 834 164 c 1,17,18
 840 156 840 156 846 156 c 2,19,-1
 864 156 l 1,20,-1
 890 166 l 1,21,-1
 904 176 l 1,22,23
 908 184 908 184 914 195 c 128,-1,24
 920 206 920 206 925 218 c 128,-1,25
 930 230 930 230 938 251 c 128,-1,26
 946 272 946 272 952 291 c 128,-1,27
 958 310 958 310 966 340 c 0,28,29
 976 370 976 370 984 395 c 128,-1,30
 992 420 992 420 1005 460 c 128,-1,31
 1018 500 1018 500 1044 576 c 128,-1,32
 1070 652 1070 652 1070 732 c 128,-1,33
 1070 812 1070 812 1074 830 c 0,34,35
 1084 872 1084 872 1148 872 c 0,36,37
 1150 872 1150 872 1152 872 c 0,38,39
 1212 872 1212 872 1212 850 c 128,-1,40
 1212 828 1212 828 1198 805 c 128,-1,41
 1184 782 1184 782 1132 648 c 128,-1,42
 1080 514 1080 514 1015 330 c 128,-1,43
 950 146 950 146 927 87 c 128,-1,44
 904 28 904 28 886 13 c 128,-1,45
 868 -2 868 -2 852 -4 c 0,46,47
 844 -4 844 -4 815 53 c 128,-1,48
 786 110 786 110 762 146 c 128,-1,49
 738 182 738 182 730 191 c 128,-1,50
 722 200 722 200 718 205 c 128,-1,51
 714 210 714 210 708 217 c 128,-1,52
 702 224 702 224 698 228 c 2,53,-1
 660 256 l 1,54,55
 656 256 656 256 649 255 c 128,-1,56
 642 254 642 254 636 251 c 128,-1,57
 630 248 630 248 624 241 c 128,-1,58
 618 234 618 234 614 228 c 128,-1,59
 610 222 610 222 604 209 c 128,-1,60
 598 196 598 196 595 189 c 128,-1,61
 592 182 592 182 585 164 c 128,-1,62
 578 146 578 146 559 107 c 128,-1,63
 540 68 540 68 536 26 c 1,64,65
 488 4 488 4 464 4 c 0,66,67
 462 4 462 4 460 4 c 0,68,69
 442 4 442 4 436 12 c 128,-1,70
 430 20 430 20 390 128 c 128,-1,71
 350 236 350 236 326 282 c 128,-1,72
 302 328 302 328 287 370 c 128,-1,73
 272 412 272 412 210 525 c 128,-1,74
 148 638 148 638 141 685 c 128,-1,75
 134 732 134 732 124 749 c 128,-1,76
 114 766 114 766 86 781 c 128,-1,77
 58 796 58 796 57 816 c 128,-1,78
 56 836 56 836 56 844 c 1,79,80
 64 846 64 846 82 851 c 128,-1,81
 100 856 100 856 165 856 c 128,-1,82
 230 856 230 856 250 846 c 1,83,84
 244 840 244 840 217 823 c 128,-1,85
 190 806 190 806 190 764 c 128,-1,86
 190 722 190 722 243 592 c 128,-1,87
 296 462 296 462 323 386 c 128,-1,88
 350 310 350 310 372 274 c 128,-1,89
 394 238 394 238 405 215 c 128,-1,90
 416 192 416 192 421 183 c 128,-1,91
 426 174 426 174 433 161 c 128,-1,92
 440 148 440 148 448 144 c 2,0,-1
EndSplineSet
Validated: 1
EndChar

StartChar: x
Encoding: 120 120 84
Width: 774
VWidth: 1894
Flags: W
HStem: 858 2G<95 212 488 595>
VStem: 60 143<687.872 810.597> 298 118<378 448.125>
LayerCount: 2
Fore
SplineSet
506 740 m 1,0,1
 484 806 484 806 484 831 c 128,-1,2
 484 856 484 856 488 868 c 1,3,-1
 554 878 l 1,4,5
 636 878 636 878 658 864 c 1,6,7
 646 788 646 788 577 696 c 128,-1,8
 508 604 508 604 462 496 c 128,-1,9
 416 388 416 388 416 378 c 1,10,-1
 444 306 l 2,11,12
 452 282 452 282 517 199 c 128,-1,13
 582 116 582 116 625 86 c 128,-1,14
 668 56 668 56 679 38 c 128,-1,15
 690 20 690 20 689 -2 c 128,-1,16
 688 -24 688 -24 684 -28 c 2,17,-1
 676 -32 l 1,18,19
 664 -32 664 -32 645 -19 c 128,-1,20
 626 -6 626 -6 583 3 c 128,-1,21
 540 12 540 12 528 22 c 0,22,23
 518 32 518 32 514 64 c 128,-1,24
 510 96 510 96 472 152 c 128,-1,25
 434 208 434 208 425 220 c 128,-1,26
 416 232 416 232 412 237 c 128,-1,27
 408 242 408 242 402 251 c 128,-1,28
 396 260 396 260 392 264 c 128,-1,29
 388 268 388 268 382 272 c 128,-1,30
 376 276 376 276 372 278 c 128,-1,31
 368 280 368 280 360 280 c 128,-1,32
 352 280 352 280 343 270 c 128,-1,33
 334 260 334 260 329 253 c 128,-1,34
 324 246 324 246 302 198 c 128,-1,35
 280 150 280 150 276 136 c 128,-1,36
 272 122 272 122 272 77 c 128,-1,37
 272 32 272 32 268 20 c 1,38,39
 260 10 260 10 225 -15 c 128,-1,40
 190 -40 190 -40 148 -42 c 1,41,-1
 108 -38 l 2,42,43
 100 -36 100 -36 96 -32 c 2,44,-1
 90 -20 l 1,45,46
 90 6 90 6 127 33 c 128,-1,47
 164 60 164 60 203 131 c 128,-1,48
 242 202 242 202 268 283 c 128,-1,49
 294 364 294 364 298 370 c 1,50,51
 298 380 298 380 196 542 c 128,-1,52
 94 704 94 704 90 711 c 128,-1,53
 86 718 86 718 73 773 c 128,-1,54
 60 828 60 828 60 832 c 0,55,56
 60 860 60 860 130 860 c 2,57,-1
 180 860 l 2,58,59
 244 860 244 860 270 842 c 1,60,61
 266 828 266 828 234 797 c 128,-1,62
 202 766 202 766 203 743 c 128,-1,63
 204 720 204 720 208 692 c 128,-1,64
 212 664 212 664 238 604 c 128,-1,65
 264 544 264 544 297 497 c 128,-1,66
 330 450 330 450 348 450 c 1,67,-1
 350 452 l 1,68,69
 368 456 368 456 380 465 c 128,-1,70
 392 474 392 474 444 620 c 1,71,-1
 506 740 l 1,0,1
EndSplineSet
Validated: 1
EndChar

StartChar: y
Encoding: 121 121 85
Width: 804
VWidth: 1894
Flags: W
HStem: -390 116<223.995 317.938> -388 94<314.062 429.781> 850 20G<222 232 699 737>
VStem: 164 76<256.739 664> 628 92<334.49 696>
LayerCount: 2
Fore
SplineSet
520 754 m 0,0,1
 518 760 518 760 518 766 c 2,2,-1
 518 776 l 1,3,4
 520 788 520 788 542 810 c 128,-1,5
 564 832 564 832 622 842 c 128,-1,6
 680 852 680 852 718 852 c 128,-1,7
 756 852 756 852 756 836 c 2,8,-1
 756 834 l 2,9,10
 756 798 756 798 732 758 c 1,11,12
 718 728 718 728 716 696 c 1,13,-1
 720 634 l 1,14,-1
 720 632 l 1,15,-1
 720 626 l 2,16,17
 720 530 720 530 624 74 c 0,18,19
 580 -128 580 -128 504 -250 c 1,20,21
 444 -366 444 -366 386 -377 c 128,-1,22
 328 -388 328 -388 318 -388 c 0,23,24
 316 -388 316 -388 314 -390 c 1,25,26
 306 -390 306 -390 294 -386 c 0,27,28
 280 -382 280 -382 214 -339 c 128,-1,29
 148 -296 148 -296 142 -288 c 128,-1,30
 136 -280 136 -280 136 -274 c 128,-1,31
 136 -268 136 -268 140 -256 c 128,-1,32
 144 -244 144 -244 148 -240 c 1,33,34
 158 -238 158 -238 177 -238 c 128,-1,35
 196 -238 196 -238 220 -256 c 128,-1,36
 244 -274 244 -274 274 -274 c 0,37,38
 304 -272 304 -272 328 -284 c 0,39,40
 348 -294 348 -294 360 -294 c 0,41,42
 362 -294 362 -294 364 -294 c 0,43,44
 412 -294 412 -294 460 -200 c 1,45,-1
 460 -198 l 1,46,47
 508 -92 508 -92 508 -70 c 1,48,-1
 504 -40 l 1,49,50
 490 10 490 10 407 50 c 128,-1,51
 324 90 324 90 266 152 c 128,-1,52
 208 214 208 214 192 258 c 1,53,54
 164 372 164 372 164 520 c 2,55,-1
 164 664 l 1,56,-1
 104 718 l 2,57,58
 64 754 64 754 64 772 c 2,59,-1
 64 774 l 2,60,61
 64 794 64 794 86 822 c 128,-1,62
 108 850 108 850 164 860 c 0,63,64
 214 870 214 870 230 870 c 1,65,-1
 232 868 l 1,66,67
 244 868 244 868 266 862 c 128,-1,68
 288 856 288 856 294 852 c 128,-1,69
 300 848 300 848 302 846 c 128,-1,70
 304 844 304 844 304 835 c 128,-1,71
 304 826 304 826 278 806 c 128,-1,72
 252 786 252 786 246 742 c 128,-1,73
 240 698 240 698 240 656 c 128,-1,74
 240 614 240 614 248 505 c 128,-1,75
 256 396 256 396 266 305 c 128,-1,76
 276 214 276 214 364 160 c 0,77,78
 452 104 452 104 480 104 c 0,79,80
 482 104 482 104 484 104 c 2,81,-1
 536 120 l 1,82,83
 564 136 564 136 578 180 c 128,-1,84
 592 224 592 224 610 343 c 128,-1,85
 628 462 628 462 628 562 c 2,86,-1
 628 608 l 1,87,-1
 628 610 l 1,88,89
 616 742 616 742 556 742 c 1,90,-1
 526 744 l 2,91,92
 524 746 524 746 520 754 c 0,0,1
EndSplineSet
Validated: 1
EndChar

StartChar: z
Encoding: 122 122 86
Width: 730
VWidth: 1894
Flags: W
HStem: -388 70<180 381.159> 782 64<271.808 452 464 499.688> 858 42G<102 294 588 640>
VStem: 84 96<-317.879 -49.6257> 256 224<325.962 446>
LayerCount: 2
Fore
SplineSet
500 762 m 1,0,1
 490 776 490 776 480 776 c 2,2,-1
 464 776 l 1,3,-1
 452 782 l 1,4,-1
 224 782 l 1,5,-1
 220 780 l 1,6,7
 184 772 184 772 176 746 c 128,-1,8
 168 720 168 720 146 693 c 128,-1,9
 124 666 124 666 108 658 c 1,10,11
 100 686 100 686 100 768 c 128,-1,12
 100 850 100 850 104 878 c 1,13,-1
 408 846 l 1,14,-1
 412 846 l 2,15,16
 438 846 438 846 503 873 c 128,-1,17
 568 900 568 900 608 900 c 0,18,19
 672 900 672 900 672 852 c 0,20,21
 672 834 672 834 640 788 c 2,22,-1
 592 718 l 1,23,-1
 594 718 l 1,24,25
 592 708 592 708 536 582 c 128,-1,26
 480 456 480 456 480 436 c 128,-1,27
 480 416 480 416 494 386 c 128,-1,28
 508 356 508 356 512 344 c 1,29,30
 504 336 504 336 458 327 c 128,-1,31
 412 318 412 318 392 300 c 128,-1,32
 372 282 372 282 344 232 c 128,-1,33
 316 182 316 182 268 88 c 128,-1,34
 220 -6 220 -6 200 -111 c 128,-1,35
 180 -216 180 -216 180 -256 c 2,36,-1
 180 -318 l 1,37,-1
 272 -318 l 2,38,39
 348 -318 348 -318 416 -290 c 128,-1,40
 484 -262 484 -262 524 -251 c 128,-1,41
 564 -240 564 -240 594 -214 c 128,-1,42
 624 -188 624 -188 642 -188 c 128,-1,43
 660 -188 660 -188 666 -196 c 1,44,-1
 672 -230 l 1,45,46
 672 -254 672 -254 662 -301 c 128,-1,47
 652 -348 652 -348 630 -366 c 128,-1,48
 608 -384 608 -384 588 -384 c 2,49,-1
 580 -384 l 1,50,51
 560 -382 560 -382 542 -357 c 128,-1,52
 524 -332 524 -332 492 -330 c 1,53,-1
 420 -342 l 1,54,55
 378 -358 378 -358 269 -373 c 128,-1,56
 160 -388 160 -388 112 -388 c 128,-1,57
 64 -388 64 -388 52 -378 c 0,58,59
 44 -370 44 -370 44 -359 c 128,-1,60
 44 -348 44 -348 50 -343 c 128,-1,61
 56 -338 56 -338 60 -333 c 128,-1,62
 64 -328 64 -328 68 -319 c 128,-1,63
 72 -310 72 -310 76 -302 c 128,-1,64
 80 -294 80 -294 82 -280 c 0,65,66
 84 -264 84 -264 84 -256 c 0,67,68
 84 -216 84 -216 92 -198 c 1,69,70
 106 -78 106 -78 177 60 c 128,-1,71
 248 198 248 198 254 220 c 1,72,-1
 260 280 l 1,73,74
 256 304 256 304 256 330 c 128,-1,75
 256 356 256 356 302 376 c 128,-1,76
 348 396 348 396 374 431 c 128,-1,77
 400 466 400 466 426 523 c 128,-1,78
 452 580 452 580 466 604 c 128,-1,79
 480 628 480 628 484 644 c 2,80,-1
 512 730 l 1,81,-1
 500 762 l 1,0,1
EndSplineSet
Validated: 1
EndChar

StartChar: braceleft
Encoding: 123 123 87
Width: 590
VWidth: 1894
Flags: W
VStem: 140 148<538.703 647.072> 296 72<-124.019 484.2 860.588 1382.08> 312 76<772 1376>
LayerCount: 2
Fore
SplineSet
288 626 m 1,0,1
 280 604 280 604 312 568 c 0,2,3
 372 500 372 500 372 324 c 1,4,-1
 364 112 l 1,5,6
 364 -156 364 -156 468 -180 c 1,7,-1
 700 -228 l 1,8,9
 692 -244 692 -244 676 -246 c 1,10,11
 428 -246 428 -246 380 -226 c 1,12,-1
 312 -92 l 2,13,14
 300 -68 300 -68 295 160 c 128,-1,15
 290 388 290 388 285 428 c 128,-1,16
 280 468 280 468 254 494 c 128,-1,17
 228 520 228 520 216 520 c 2,18,-1
 196 520 l 2,19,20
 178 520 178 520 159 548 c 128,-1,21
 140 576 140 576 140 588 c 1,22,23
 152 614 152 614 216 682 c 2,24,-1
 312 782 l 1,25,-1
 296 1254 l 1,26,27
 296 1354 296 1354 300 1376 c 128,-1,28
 304 1398 304 1398 330 1447 c 128,-1,29
 356 1496 356 1496 456 1525 c 128,-1,30
 556 1554 556 1554 610 1554 c 128,-1,31
 664 1554 664 1554 678 1537 c 128,-1,32
 692 1520 692 1520 696 1510 c 1,33,34
 528 1500 528 1500 448 1447 c 128,-1,35
 368 1394 368 1394 368 1100 c 0,36,37
 368 964 368 964 378 916 c 128,-1,38
 388 868 388 868 388 840 c 128,-1,39
 388 812 388 812 384 772 c 128,-1,40
 380 732 380 732 358 711 c 128,-1,41
 336 690 336 690 314 660 c 128,-1,42
 292 630 292 630 288 626 c 1,0,1
EndSplineSet
Validated: 1
EndChar

StartChar: bar
Encoding: 124 124 88
Width: 388
VWidth: 1894
Flags: W
VStem: 140 76<959.637 1337.66> 147 97<-401.615 -87.7568> 147 81<-205.304 332.55 1376.9 1658> 156 60<658.933 1217.42>
LayerCount: 2
Fore
SplineSet
172 424 m 128,-1,1
 172 526 172 526 156 823 c 128,-1,2
 140 1120 140 1120 140 1370 c 128,-1,3
 140 1620 140 1620 148 1646 c 128,-1,4
 156 1672 156 1672 168 1681 c 128,-1,5
 180 1690 180 1690 186 1691 c 0,6,7
 187 1691 187 1691 188 1691 c 0,8,9
 194 1691 194 1691 206 1685 c 0,10,11
 220 1678 220 1678 228 1658 c 1,12,-1
 236 1590 l 1,13,14
 236 1538 236 1538 224 1492 c 1,15,-1
 216 1274 l 1,16,-1
 216 1060 l 1,17,-1
 204 766 l 1,18,-1
 228 216 l 1,19,-1
 224 4 l 1,20,-1
 244 -320 l 1,21,22
 244 -354 244 -354 237 -371 c 128,-1,23
 230 -388 230 -388 216.5 -395 c 128,-1,24
 203 -402 203 -402 195 -402 c 128,-1,25
 187 -402 187 -402 177 -393 c 128,-1,26
 167 -384 167 -384 157 -357 c 0,27,28
 147 -331 147 -331 147 -110 c 0,29,30
 148 -99 148 -99 148 -87 c 0,31,32
 148 156 148 156 160 239 c 128,-1,0
 172 322 172 322 172 424 c 128,-1,1
EndSplineSet
Validated: 1
EndChar

StartChar: asciitilde
Encoding: 126 126 89
Width: 1256
VWidth: 1894
Flags: W
HStem: 436 70<777.399 891.438> 656 60<354.627 558.266>
LayerCount: 2
Fore
SplineSet
1030 720 m 128,-1,1
 1072 758 1072 758 1086 758 c 128,-1,2
 1100 758 1100 758 1104 756 c 128,-1,3
 1108 754 1108 754 1110 747 c 128,-1,4
 1112 740 1112 740 1112 727 c 128,-1,5
 1112 714 1112 714 1106 687 c 128,-1,6
 1100 660 1100 660 1026 579 c 128,-1,7
 952 498 952 498 928 470 c 128,-1,8
 904 442 904 442 896 439 c 128,-1,9
 888 436 888 436 858 436 c 128,-1,10
 828 436 828 436 806 447 c 128,-1,11
 784 458 784 458 680 540 c 128,-1,12
 576 622 576 622 536 638 c 0,13,14
 496 656 496 656 464 656 c 0,15,16
 462 656 462 656 460 656 c 0,17,18
 428 656 428 656 384 640 c 0,19,20
 336 624 336 624 258 548 c 128,-1,21
 180 472 180 472 160 458 c 1,22,23
 140 462 140 462 140 522 c 2,24,-1
 140 552 l 1,25,26
 144 568 144 568 188 609 c 128,-1,27
 232 650 232 650 286 676 c 128,-1,28
 340 702 340 702 368 709 c 128,-1,29
 396 716 396 716 470 716 c 128,-1,30
 544 716 544 716 576 700 c 128,-1,31
 608 684 608 684 676 626 c 128,-1,32
 744 568 744 568 756 558 c 128,-1,33
 768 548 768 548 788 532 c 128,-1,34
 808 516 808 516 820 511 c 128,-1,35
 832 506 832 506 844 506 c 128,-1,36
 856 506 856 506 870 519 c 128,-1,37
 884 532 884 532 896 546 c 128,-1,38
 908 560 908 560 920 579 c 128,-1,39
 932 598 932 598 960 640 c 128,-1,0
 988 682 988 682 1030 720 c 128,-1,1
EndSplineSet
Validated: 1
EndChar

StartChar: cent
Encoding: 162 162 90
Width: 994
VWidth: 1894
Flags: W
HStem: -40 54<465.482 674.885> 798 58<687.36 728> 848 20G<912 925>
VStem: 72 68<196.188 476>
LayerCount: 2
Fore
SplineSet
676 1002 m 1,0,-1
 670 918 l 1,1,-1
 674 906 l 2,2,3
 678 894 678 894 693 879 c 128,-1,4
 708 864 708 864 726 856 c 1,5,-1
 728 856 l 1,6,-1
 840 816 l 1,7,-1
 888 852 l 1,8,-1
 890 852 l 1,9,10
 908 868 908 868 916 868 c 2,11,-1
 924 868 l 2,12,13
 926 868 926 868 928 861 c 128,-1,14
 930 854 930 854 930 825 c 128,-1,15
 930 796 930 796 894 749 c 128,-1,16
 858 702 858 702 844 694 c 1,17,18
 834 692 834 692 824 690 c 1,19,20
 812 698 812 698 776 748 c 128,-1,21
 740 798 740 798 676 798 c 2,22,-1
 672 798 l 2,23,24
 616 798 616 798 592 693 c 128,-1,25
 568 588 568 588 545 524 c 128,-1,26
 522 460 522 460 486 315 c 128,-1,27
 450 170 450 170 448 137 c 128,-1,28
 446 104 446 104 445 88 c 128,-1,29
 444 72 444 72 450 58 c 128,-1,30
 456 44 456 44 484 29 c 128,-1,31
 512 14 512 14 568 14 c 128,-1,32
 624 14 624 14 670 38 c 0,33,34
 712 60 712 60 764 144 c 1,35,36
 820 228 820 228 832 236 c 1,37,-1
 862 246 l 1,38,39
 878 240 878 240 905 219 c 128,-1,40
 932 198 932 198 932 172 c 128,-1,41
 932 146 932 146 930 136 c 1,42,43
 918 132 918 132 882 125 c 128,-1,44
 846 118 846 118 778 52 c 128,-1,45
 710 -14 710 -14 680 -25.5 c 128,-1,46
 650 -37 650 -37 550 -40 c 2,47,-1
 414 -44 l 1,48,-1
 386 -122 l 1,49,-1
 384 -124 l 1,50,51
 362 -276 362 -276 301 -395 c 1,52,-1
 265 -391 l 1,53,-1
 330 -32 l 1,54,-1
 282 8 l 1,55,56
 96 158 96 158 72 276 c 1,57,-1
 66 476 l 1,58,-1
 142 594 l 2,59,60
 221 717 221 717 309.5 785.5 c 128,-1,61
 398 854 398 854 472 865 c 128,-1,62
 546 876 546 876 568 903 c 128,-1,63
 590 930 590 930 616 1054 c 128,-1,64
 642 1178 642 1178 656 1194 c 1,65,66
 672 1206 672 1206 684 1207 c 128,-1,67
 696 1208 696 1208 702 1206 c 1,68,69
 704 1196 704 1196 704 1169 c 128,-1,70
 704 1142 704 1142 692 1083 c 128,-1,71
 680 1024 680 1024 676 1002 c 1,0,-1
521 775 m 128,-1,73
 506 796 506 796 482 796 c 128,-1,74
 458 796 458 796 405 770 c 128,-1,75
 352 744 352 744 266 647 c 128,-1,76
 180 550 180 550 160 489 c 128,-1,77
 140 428 140 428 140 343 c 128,-1,78
 140 258 140 258 162 215 c 128,-1,79
 184 172 184 172 238 129 c 128,-1,80
 292 86 292 86 324 86 c 128,-1,81
 356 86 356 86 370 123 c 128,-1,82
 384 160 384 160 430 335 c 128,-1,83
 476 510 476 510 506 604 c 128,-1,84
 536 698 536 698 536 726 c 128,-1,72
 536 754 536 754 521 775 c 128,-1,73
EndSplineSet
Validated: 1
EndChar

StartChar: sterling
Encoding: 163 163 91
Width: 884
VWidth: 1894
Flags: W
HStem: -56 94<612.854 703.556> 566 86<362.942 389.937 390 501.434> 1318 88<454.863 667.248>
VStem: 326 14<808 816.219> 722 46<1170.33 1232.88>
LayerCount: 2
Fore
SplineSet
86 -48 m 1,0,-1
 78 10 l 1,1,2
 78 26 78 26 84 38 c 128,-1,3
 90 50 90 50 152 132 c 128,-1,4
 214 214 214 214 232 278 c 128,-1,5
 250 342 250 342 255 397 c 128,-1,6
 260 452 260 452 270 630 c 128,-1,7
 280 808 280 808 326 1128 c 1,8,-1
 326 1130 l 1,9,10
 330 1272 330 1272 438 1372 c 0,11,12
 476 1406 476 1406 498 1406 c 0,13,14
 604 1406 604 1406 674 1358 c 0,15,16
 744 1308 744 1308 754 1288 c 1,17,-1
 768 1208 l 1,18,19
 768 1170 768 1170 750 1170 c 128,-1,20
 732 1170 732 1170 722 1182 c 128,-1,21
 712 1194 712 1194 691 1256 c 128,-1,22
 670 1318 670 1318 630 1318 c 0,23,24
 604 1318 604 1318 525 1301 c 128,-1,25
 446 1284 446 1284 426 1244 c 128,-1,26
 406 1204 406 1204 396 1148 c 0,27,28
 388 1092 388 1092 364 904 c 1,29,-1
 340 686 l 2,30,31
 340 674 340 674 346 666 c 128,-1,32
 352 658 352 658 362 655 c 128,-1,33
 372 652 372 652 384 652 c 0,34,35
 388 652 388 652 390 650 c 1,36,-1
 404 652 l 1,37,38
 404 652 404 652 418 652 c 1,39,40
 418 652 418 652 450 652 c 1,41,42
 484 648 484 648 502 636 c 1,43,-1
 502 634 l 1,44,45
 514 626 514 626 517 607 c 128,-1,46
 520 588 520 588 520 581 c 128,-1,47
 520 574 520 574 518 572 c 0,48,49
 510 568 510 568 496 566 c 1,50,-1
 402 566 l 1,51,52
 390 560 390 560 367 529 c 128,-1,53
 344 498 344 498 333 468 c 128,-1,54
 322 438 322 438 322 362 c 128,-1,55
 322 286 322 286 325 261 c 128,-1,56
 328 236 328 236 356 226 c 128,-1,57
 384 216 384 216 496 128 c 128,-1,58
 608 40 608 40 650 38 c 1,59,-1
 650 40 l 1,60,61
 690 40 690 40 704 53 c 128,-1,62
 718 66 718 66 739 125 c 128,-1,63
 760 184 760 184 802 184 c 0,64,65
 824 184 824 184 833 177 c 128,-1,66
 842 170 842 170 844 157 c 128,-1,67
 846 144 846 144 846 138 c 2,68,-1
 846 130 l 1,69,70
 828 114 828 114 787 38 c 128,-1,71
 746 -38 746 -38 734 -52 c 1,72,73
 726 -56 726 -56 695 -56 c 128,-1,74
 664 -56 664 -56 554 34 c 1,75,76
 442 134 442 134 375 134 c 128,-1,77
 308 134 308 134 286 119 c 128,-1,78
 264 104 264 104 210 40 c 128,-1,79
 156 -24 156 -24 140 -38 c 0,80,81
 126 -48 126 -48 108 -48 c 2,82,-1
 86 -48 l 1,0,-1
EndSplineSet
Validated: 1
EndChar

StartChar: section
Encoding: 167 167 92
Width: 734
VWidth: 1894
Flags: W
HStem: -48 44<187.676 331.247> 452 56<206 286.535> 520 92<307.58 467.592> 908 66<415.42 585.965> 1340 56<355.688 549.9>
VStem: 62 78<560 648> 84 46<46.043 124> 586 84<1181.89 1314> 618 52<727.894 867.531>
LayerCount: 2
Fore
SplineSet
140 824 m 1,0,-1
 140 840 l 2,1,2
 140 870 140 870 118 921 c 128,-1,3
 96 972 96 972 96 994 c 128,-1,4
 96 1016 96 1016 107 1082 c 128,-1,5
 118 1148 118 1148 169 1220 c 128,-1,6
 220 1292 220 1292 266 1322 c 128,-1,7
 312 1352 312 1352 370 1374 c 128,-1,8
 428 1396 428 1396 474 1396 c 128,-1,9
 520 1396 520 1396 582 1378 c 128,-1,10
 644 1360 644 1360 657 1340 c 128,-1,11
 670 1320 670 1320 670 1298 c 128,-1,12
 670 1276 670 1276 663 1238 c 128,-1,13
 656 1200 656 1200 652 1188 c 128,-1,14
 648 1176 648 1176 622 1154 c 128,-1,15
 596 1132 596 1132 575 1132 c 128,-1,16
 554 1132 554 1132 548 1136 c 1,17,-1
 582 1200 l 1,18,-1
 584 1204 l 1,19,20
 586 1218 586 1218 586 1251 c 128,-1,21
 586 1284 586 1284 551 1312 c 128,-1,22
 516 1340 516 1340 456 1340 c 2,23,-1
 386 1340 l 1,24,25
 296 1336 296 1336 200 1196 c 0,26,27
 150 1126 150 1126 146 1092 c 2,28,-1
 142 1032 l 1,29,30
 146 1006 146 1006 188 943 c 128,-1,31
 230 880 230 880 290 876 c 1,32,-1
 296 876 l 2,33,34
 318 876 318 876 390 928 c 1,35,36
 474 974 474 974 524 974 c 0,37,38
 526 974 526 974 528 974 c 0,39,40
 578 972 578 972 624 932 c 128,-1,41
 670 892 670 892 670 864 c 128,-1,42
 670 836 670 836 668 832 c 2,43,-1
 658 760 l 2,44,45
 646 684 646 684 564 612 c 1,46,47
 538 592 538 592 528 572 c 1,48,-1
 520 572 l 1,49,-1
 518 548 l 1,50,51
 518 548 518 548 518 542 c 2,52,53
 518 516 518 516 548 482 c 0,54,55
 582 444 582 444 589 418 c 128,-1,56
 596 392 596 392 596 364 c 128,-1,57
 596 336 596 336 586 276 c 128,-1,58
 576 216 576 216 566 192 c 128,-1,59
 556 168 556 168 522 116 c 128,-1,60
 488 64 488 64 445 32 c 128,-1,61
 402 0 402 0 337 -24 c 128,-1,62
 272 -48 272 -48 247 -48 c 128,-1,63
 222 -48 222 -48 184 -24 c 1,64,65
 110 12 110 12 84 96 c 1,66,-1
 84 100 l 1,67,-1
 74 168 l 1,68,-1
 76 168 l 1,69,-1
 76 172 l 1,70,71
 82 204 82 204 102 228 c 1,72,73
 126 252 126 252 150 252 c 2,74,75
 150 252 150 252 152 252 c 2,76,77
 174 252 174 252 190 232 c 1,78,-1
 192 232 l 1,79,80
 202 222 202 222 202 218 c 1,81,82
 202 218 202 218 200 216 c 1,83,84
 200 212 200 212 171 188 c 128,-1,85
 142 164 142 164 132 124 c 1,86,-1
 130 96 l 1,87,88
 130 96 130 96 130 88 c 2,89,90
 130 58 130 58 156 28 c 0,91,92
 184 -4 184 -4 232 -4 c 0,93,94
 348 -4 348 -4 398 64 c 1,95,96
 454 128 454 128 493 202 c 128,-1,97
 532 276 532 276 536 300 c 1,98,-1
 540 360 l 1,99,100
 534 388 534 388 501 432 c 128,-1,101
 468 476 468 476 458 488 c 128,-1,102
 448 500 448 500 434 510 c 128,-1,103
 420 520 420 520 407 520 c 128,-1,104
 394 520 394 520 319 486 c 128,-1,105
 244 452 244 452 218 452 c 0,106,107
 108 452 108 452 72 560 c 1,108,-1
 62 628 l 1,109,110
 62 628 62 628 62 638 c 2,111,112
 62 654 62 654 66 678 c 0,113,114
 72 712 72 712 103 752 c 128,-1,115
 134 792 134 792 140 824 c 1,0,-1
618 796 m 1,116,-1
 618 808 l 2,117,118
 618 836 618 836 589 872 c 128,-1,119
 560 908 560 908 509 908 c 128,-1,120
 458 908 458 908 403 870 c 128,-1,121
 348 832 348 832 285 812 c 128,-1,122
 222 792 222 792 189 760 c 128,-1,123
 156 728 156 728 144 652 c 1,124,-1
 142 648 l 1,125,-1
 140 608 l 1,126,127
 140 560 140 560 163 538 c 128,-1,128
 186 516 186 516 202 512 c 1,129,-1
 206 508 l 1,130,-1
 220 508 l 2,131,132
 240 508 240 508 272 526 c 128,-1,133
 304 544 304 544 307 564 c 128,-1,134
 310 584 310 584 327 598 c 128,-1,135
 344 612 344 612 350 612 c 2,136,-1
 390 612 l 1,137,-1
 390 608 l 1,138,-1
 408 612 l 1,139,140
 450 614 450 614 525 660 c 128,-1,141
 600 706 600 706 618 796 c 1,116,-1
EndSplineSet
Validated: 1
EndChar

StartChar: questiondown
Encoding: 191 191 95
Width: 720
VWidth: 1894
Flags: W
HStem: 78 128<477.053 599.621> 116 90<477.219 599.621> 1022 234<332.097 482.199>
VStem: 78 84<-191.444 102.773> 308 196<1043.44 1241.96> 384 88<442.228 809.935>
LayerCount: 2
Fore
SplineSet
372 1254 m 0,0,1
 388 1256 388 1256 423 1256 c 128,-1,2
 458 1256 458 1256 481 1214 c 128,-1,3
 504 1172 504 1172 504 1139 c 128,-1,4
 504 1106 504 1106 499 1092 c 128,-1,5
 494 1078 494 1078 468 1050 c 128,-1,6
 442 1022 442 1022 428 1022 c 2,7,-1
 398 1022 l 2,8,9
 370 1022 370 1022 339 1057 c 128,-1,10
 308 1092 308 1092 308 1154 c 1,11,12
 318 1244 318 1244 372 1254 c 0,0,1
446 78 m 2,13,-1
 438 78 l 1,14,-1
 438 92 l 2,15,16
 438 112 438 112 459 140 c 128,-1,17
 480 168 480 168 507 187 c 128,-1,18
 534 206 534 206 567 206 c 128,-1,19
 600 206 600 206 629 185 c 128,-1,20
 658 164 658 164 672 99 c 128,-1,21
 686 34 686 34 686 8 c 0,22,23
 686 -184 686 -184 622 -240 c 1,24,-1
 618 -244 l 1,25,-1
 616 -250 l 2,26,27
 604 -290 604 -290 519 -318 c 128,-1,28
 434 -346 434 -346 414 -364 c 1,29,30
 376 -362 376 -362 256 -332 c 1,31,32
 222 -326 222 -326 165 -265 c 128,-1,33
 108 -204 108 -204 93 -177 c 128,-1,34
 78 -150 78 -150 78 -108 c 0,35,36
 78 94 78 94 168 190 c 0,37,38
 174 196 174 196 260 317 c 128,-1,39
 346 438 346 438 364 492 c 0,40,41
 384 546 384 546 384 590 c 1,42,-1
 376 708 l 1,43,44
 376 770 376 770 386 784 c 1,45,46
 400 798 400 798 411 805 c 128,-1,47
 422 812 422 812 428 810 c 128,-1,48
 434 808 434 808 445 795 c 128,-1,49
 456 782 456 782 458 768 c 2,50,-1
 472 560 l 1,51,-1
 472 558 l 2,52,53
 472 536 472 536 436 455 c 128,-1,54
 400 374 400 374 319 274 c 128,-1,55
 238 174 238 174 200 95 c 128,-1,56
 162 16 162 16 162 -60 c 128,-1,57
 162 -136 162 -136 218 -213 c 128,-1,58
 274 -290 274 -290 344 -290 c 128,-1,59
 414 -290 414 -290 522 -244 c 1,60,-1
 528 -242 l 1,61,-1
 614 -146 l 1,62,-1
 628 -52 l 1,63,-1
 620 20 l 2,64,65
 612 76 612 76 600 94 c 128,-1,66
 588 112 588 112 558 116 c 1,67,-1
 546 116 l 1,68,69
 514 114 514 114 485 96 c 128,-1,70
 456 78 456 78 446 78 c 2,13,-1
EndSplineSet
Validated: 1
EndChar

StartChar: germandbls
Encoding: 223 223 115
Width: 832
VWidth: 1894
Flags: W
HStem: -84 60<350.568 523.381> 1364 20G<449 512>
VStem: 59 108<-381 -246.566> 644 62<940.918 1201.98> 696 80<147.298 495.109>
LayerCount: 2
Fore
SplineSet
478 1384 m 0,0,1
 546 1384 546 1384 572 1369 c 128,-1,2
 598 1354 598 1354 652 1259 c 128,-1,3
 706 1164 706 1164 706 1057 c 128,-1,4
 706 950 706 950 665 855 c 128,-1,5
 624 760 624 760 624 746 c 128,-1,6
 624 732 624 732 625 727 c 128,-1,7
 626 722 626 722 629 715 c 128,-1,8
 632 708 632 708 634 702 c 128,-1,9
 636 696 636 696 641 686 c 128,-1,10
 646 676 646 676 650 669 c 128,-1,11
 654 662 654 662 660 650 c 0,12,13
 669 632 669 632 672 628 c 2,14,-1
 704 576 l 1,15,16
 776 454 776 454 776 334 c 2,17,-1
 776 332 l 2,18,19
 776 212 776 212 729 117 c 128,-1,20
 682 22 682 22 625 -31 c 128,-1,21
 568 -84 568 -84 494 -84 c 128,-1,22
 420 -84 420 -84 380 -76 c 128,-1,23
 340 -68 340 -68 326 -60 c 1,24,25
 322 -48 322 -48 322 -24 c 2,26,-1
 322 14 l 1,27,28
 336 12 336 12 383 -6 c 128,-1,29
 430 -24 430 -24 444 -24 c 128,-1,30
 458 -24 458 -24 468 -21 c 128,-1,31
 478 -18 478 -18 528 8 c 1,32,33
 592 36 592 36 644 124 c 128,-1,34
 696 212 696 212 696 302 c 128,-1,35
 696 392 696 392 658 492 c 128,-1,36
 620 592 620 592 586 626 c 1,37,-1
 546 674 l 1,38,-1
 474 624 l 1,39,40
 438 596 438 596 423 596 c 128,-1,41
 408 596 408 596 404 608 c 0,42,43
 402 614 402 614 402 622 c 2,44,45
 402 622 402 622 402 628 c 2,46,47
 402 672 402 672 468 732 c 128,-1,48
 534 792 534 792 566 837 c 128,-1,49
 598 882 598 882 621 967 c 128,-1,50
 644 1052 644 1052 644 1081 c 128,-1,51
 644 1110 644 1110 626 1168 c 0,52,53
 606 1232 606 1232 572 1276 c 1,54,-1
 526 1330 l 1,55,-1
 464 1294 l 2,56,57
 423 1270 423 1270 395.5 1224 c 128,-1,58
 368 1178 368 1178 337 1092 c 128,-1,59
 306 1006 306 1006 281 853 c 128,-1,60
 256 700 256 700 221.5 464.5 c 128,-1,61
 187 229 187 229 169 -255 c 1,62,-1
 167 -381 l 1,63,-1
 59 -381 l 1,64,-1
 112 116 l 2,65,66
 123 221 123 221 133 264 c 0,67,68
 144 308 144 308 144 384 c 128,-1,69
 144 460 144 460 182 678 c 1,70,71
 208 874 208 874 244 995 c 128,-1,72
 280 1116 280 1116 350 1250 c 128,-1,73
 420 1384 420 1384 478 1384 c 0,0,1
EndSplineSet
Validated: 1
EndChar

StartChar: quoteright
Encoding: 8217 8217 135
Width: 363
VWidth: 1894
Flags: W
HStem: 1144 364
VStem: 60 186<1294.26 1460>
LayerCount: 2
Fore
SplineSet
100 1156 m 1,0,1
 114 1184 114 1184 114 1238 c 128,-1,2
 114 1292 114 1292 87 1320 c 128,-1,3
 60 1348 60 1348 60 1396 c 1,4,-1
 68 1460 l 1,5,6
 76 1476 76 1476 104 1492 c 128,-1,7
 132 1508 132 1508 152 1508 c 1,8,-1
 176 1504 l 1,9,10
 206 1492 206 1492 225 1470 c 128,-1,11
 244 1448 244 1448 246 1384 c 1,12,-1
 246 1380 l 2,13,14
 246 1264 246 1264 144 1180 c 0,15,16
 110 1152 110 1152 92 1144 c 1,17,-1
 100 1156 l 1,0,1
EndSplineSet
Validated: 1
EndChar

StartChar: bullet
Encoding: 8226 8226 138
Width: 730
VWidth: 1894
Flags: W
HStem: 384 476<242.531 455.367>
VStem: 142 442<454.293 729.904>
LayerCount: 2
Fore
SplineSet
156 520 m 0,0,1
 142 560 142 560 142 620 c 0,2,3
 142 628 142 628 142 636 c 0,4,5
 142 638 142 638 142 640 c 0,6,7
 142 710 142 710 204 776 c 0,8,9
 268 844 268 844 284 852 c 128,-1,10
 300 860 300 860 316 860 c 128,-1,11
 332 860 332 860 384 846 c 128,-1,12
 436 832 436 832 456 820 c 1,13,14
 472 808 472 808 528 744 c 128,-1,15
 584 680 584 680 584 608 c 128,-1,16
 584 536 584 536 560 480 c 128,-1,17
 536 424 536 424 496 404 c 0,18,19
 460 384 460 384 384 384 c 128,-1,20
 308 384 308 384 288 388 c 128,-1,21
 268 392 268 392 230 419 c 128,-1,22
 192 446 192 446 182 460 c 128,-1,23
 172 474 172 474 156 520 c 0,0,1
EndSplineSet
Validated: 1
EndChar

